<?xml version="1.0" encoding="utf-8" standalone="no"?>
<!DOCTYPE svg PUBLIC "-//W3C//DTD SVG 1.1//EN"
  "http://www.w3.org/Graphics/SVG/1.1/DTD/svg11.dtd">
<!-- Created with matplotlib (http://matplotlib.org/) -->
<svg height="288pt" version="1.1" viewBox="0 0 720 288" width="720pt" xmlns="http://www.w3.org/2000/svg" xmlns:xlink="http://www.w3.org/1999/xlink">
 <defs>
  <style type="text/css">
*{stroke-linecap:butt;stroke-linejoin:round;}
  </style>
 </defs>
 <g id="figure_1">
  <g id="patch_1">
   <path d="
M0 288
L720 288
L720 0
L0 0
z
" style="fill:#ffffff;"/>
  </g>
  <g id="axes_1">
   <g id="patch_2">
    <path d="
M90 252
L648 252
L648 28.8
L90 28.8
z
" style="fill:#eeeeee;"/>
   </g>
   <g id="matplotlib.axis_1">
    <g id="xtick_1">
     <g id="line2d_1">
      <path clip-path="url(#p9f76a1e9e4)" d="
M90 252
L90 28.8" style="fill:none;stroke:#000000;stroke-dasharray:1.000000,3.000000;stroke-dashoffset:0.0;stroke-width:0.5;"/>
     </g>
     <g id="line2d_2">
      <defs>
       <path d="
M0 0
L0 0" id="m1d870bcb37" style="stroke:#555555;stroke-width:0.5;"/>
      </defs>
      <g>
       <use style="fill:#555555;stroke:#555555;stroke-width:0.5;" x="90.0" xlink:href="#m1d870bcb37" y="252.0"/>
      </g>
     </g>
     <g id="line2d_3">
      <g>
       <use style="fill:#555555;stroke:#555555;stroke-width:0.5;" x="90.0" xlink:href="#m1d870bcb37" y="28.8"/>
      </g>
     </g>
     <g id="text_1">
      <!-- 0 -->
      <defs>
       <path d="
M29.8906 70.2188
Q40.8281 70.2188 46.7031 60.8125
Q52.5938 51.4219 52.5938 34.4219
Q52.5938 17.9688 46.875 8.32812
Q41.1562 -1.3125 29.8906 -1.3125
Q19 -1.3125 13.0781 8.0625
Q7.17188 17.4375 7.17188 34.4219
Q7.17188 50.9219 12.9062 60.5625
Q18.6562 70.2188 29.8906 70.2188
M29.8906 5.71875
Q37.1094 5.71875 40.5938 12.5781
Q44.0938 19.4375 44.0938 34.4219
Q44.0938 49.4688 40.5938 56.2812
Q37.1094 63.0938 29.8906 63.0938
Q22.75 63.0938 19.2344 56.1094
Q15.7188 49.125 15.7188 34.4219
Q15.7188 19.5312 19.2031 12.625
Q22.7031 5.71875 29.8906 5.71875
M29.6875 41.75
Q32.7656 41.75 34.8906 39.625
Q37.0156 37.5 37.0156 34.4219
Q37.0156 31.25 34.8594 28.9688
Q32.7188 26.7031 29.6875 26.7031
Q26.7031 26.7031 24.5781 28.9688
Q22.4688 31.25 22.4688 34.4219
Q22.4688 37.5469 24.5312 39.6406
Q26.6094 41.75 29.6875 41.75" id="AndaleMono-30"/>
      </defs>
      <g style="fill:#555555;" transform="translate(87.72890625 264.8890625)scale(0.1 -0.1)">
       <use xlink:href="#AndaleMono-30"/>
      </g>
     </g>
    </g>
    <g id="xtick_2">
     <g id="line2d_4">
      <path clip-path="url(#p9f76a1e9e4)" d="
M201.6 252
L201.6 28.8" style="fill:none;stroke:#000000;stroke-dasharray:1.000000,3.000000;stroke-dashoffset:0.0;stroke-width:0.5;"/>
     </g>
     <g id="line2d_5">
      <g>
       <use style="fill:#555555;stroke:#555555;stroke-width:0.5;" x="201.6" xlink:href="#m1d870bcb37" y="252.0"/>
      </g>
     </g>
     <g id="line2d_6">
      <g>
       <use style="fill:#555555;stroke:#555555;stroke-width:0.5;" x="201.6" xlink:href="#m1d870bcb37" y="28.8"/>
      </g>
     </g>
     <g id="text_2">
      <!-- 2 -->
      <defs>
       <path d="
M47.9062 0
L10.0156 0
L10.0156 5.8125
Q24.4219 21.875 28.7188 27.3438
Q33.0156 32.8125 35.6875 38.8125
Q38.375 44.8281 38.375 50.7812
Q38.375 56.5469 34.875 59.8594
Q31.3906 63.1875 25.0938 63.1875
Q20.2656 63.1875 12.1094 60.2031
L10.9844 67.0938
Q18.3594 70.2188 26.4219 70.2188
Q35.6406 70.2188 41.2812 65.0156
Q46.9219 59.8125 46.9219 51.125
Q46.9219 44.9219 44.0156 38.8125
Q41.1094 32.7188 36.5625 27.0938
Q32.0312 21.4844 18.8906 6.98438
L47.9062 6.98438
z
" id="AndaleMono-32"/>
      </defs>
      <g style="fill:#555555;" transform="translate(199.70546875 264.8890625)scale(0.1 -0.1)">
       <use xlink:href="#AndaleMono-32"/>
      </g>
     </g>
    </g>
    <g id="xtick_3">
     <g id="line2d_7">
      <path clip-path="url(#p9f76a1e9e4)" d="
M313.2 252
L313.2 28.8" style="fill:none;stroke:#000000;stroke-dasharray:1.000000,3.000000;stroke-dashoffset:0.0;stroke-width:0.5;"/>
     </g>
     <g id="line2d_8">
      <g>
       <use style="fill:#555555;stroke:#555555;stroke-width:0.5;" x="313.2" xlink:href="#m1d870bcb37" y="252.0"/>
      </g>
     </g>
     <g id="line2d_9">
      <g>
       <use style="fill:#555555;stroke:#555555;stroke-width:0.5;" x="313.2" xlink:href="#m1d870bcb37" y="28.8"/>
      </g>
     </g>
     <g id="text_3">
      <!-- 4 -->
      <defs>
       <path d="
M52.3906 15.9219
L43.8906 15.9219
L43.8906 0
L35.8906 0
L35.8906 15.9219
L5.90625 15.9219
L5.90625 22.0156
L33.1094 68.8906
L43.8906 68.8906
L43.8906 22.9062
L52.3906 22.9062
z

M35.8906 22.9062
L35.8906 60.9844
L14.0156 22.9062
z
" id="AndaleMono-34"/>
      </defs>
      <g style="fill:#555555;" transform="translate(310.87578125 264.8890625)scale(0.1 -0.1)">
       <use xlink:href="#AndaleMono-34"/>
      </g>
     </g>
    </g>
    <g id="xtick_4">
     <g id="line2d_10">
      <path clip-path="url(#p9f76a1e9e4)" d="
M424.8 252
L424.8 28.8" style="fill:none;stroke:#000000;stroke-dasharray:1.000000,3.000000;stroke-dashoffset:0.0;stroke-width:0.5;"/>
     </g>
     <g id="line2d_11">
      <g>
       <use style="fill:#555555;stroke:#555555;stroke-width:0.5;" x="424.8" xlink:href="#m1d870bcb37" y="252.0"/>
      </g>
     </g>
     <g id="line2d_12">
      <g>
       <use style="fill:#555555;stroke:#555555;stroke-width:0.5;" x="424.8" xlink:href="#m1d870bcb37" y="28.8"/>
      </g>
     </g>
     <g id="text_4">
      <!-- 6 -->
      <defs>
       <path d="
M17.6719 35.8906
Q24.125 41.1094 31.6875 41.1094
Q40.4375 41.1094 46.2656 35.5156
Q52.0938 29.9375 52.0938 21.0938
Q52.0938 11.375 46.9219 5.03125
Q41.75 -1.3125 33.1094 -1.3125
Q22.0781 -1.3125 15.625 8.8125
Q9.1875 18.9531 9.1875 33.5938
Q9.1875 49.2188 15.8906 59.7188
Q22.6094 70.2188 34.2812 70.2188
Q42.3281 70.2188 48.1875 67.8281
L46.9219 60.6875
Q40.1406 63.1875 34.5156 63.1875
Q26.5625 63.1875 22.1094 55.5625
Q17.6719 47.9531 17.6719 35.8906
M17.9219 29
Q17.9219 20.1719 22.0625 12.9375
Q26.2188 5.71875 32.5156 5.71875
Q37.8438 5.71875 40.7188 9.625
Q43.6094 13.5312 43.6094 20.4062
Q43.6094 26.7656 40.4219 30.4219
Q37.25 34.0781 31.5 34.0781
Q24.0312 34.0781 17.9219 29" id="AndaleMono-36"/>
      </defs>
      <g style="fill:#555555;" transform="translate(422.6546875 264.8890625)scale(0.1 -0.1)">
       <use xlink:href="#AndaleMono-36"/>
      </g>
     </g>
    </g>
    <g id="xtick_5">
     <g id="line2d_13">
      <path clip-path="url(#p9f76a1e9e4)" d="
M536.4 252
L536.4 28.8" style="fill:none;stroke:#000000;stroke-dasharray:1.000000,3.000000;stroke-dashoffset:0.0;stroke-width:0.5;"/>
     </g>
     <g id="line2d_14">
      <g>
       <use style="fill:#555555;stroke:#555555;stroke-width:0.5;" x="536.4" xlink:href="#m1d870bcb37" y="252.0"/>
      </g>
     </g>
     <g id="line2d_15">
      <g>
       <use style="fill:#555555;stroke:#555555;stroke-width:0.5;" x="536.4" xlink:href="#m1d870bcb37" y="28.8"/>
      </g>
     </g>
     <g id="text_5">
      <!-- 8 -->
      <defs>
       <path d="
M36.9219 37.7969
Q43.9531 35.75 47.8281 30.8125
Q51.7031 25.875 51.7031 19.2812
Q51.7031 9.8125 45.4219 4.25
Q39.1562 -1.3125 29.9844 -1.3125
Q20.3594 -1.3125 14.1875 4.29688
Q8.01562 9.90625 8.01562 19.1875
Q8.01562 25.7344 12.0156 30.7031
Q16.0156 35.6875 23.1875 37.7969
Q17.4844 39.2656 14.0312 43.4375
Q10.5938 47.6094 10.5938 52.7812
Q10.5938 59.4219 15.8594 64.8125
Q21.1406 70.2188 29.7812 70.2188
Q38.3281 70.2188 43.9219 64.8438
Q49.5156 59.4688 49.5156 52.7812
Q49.5156 47.75 46 43.5312
Q42.4844 39.3125 36.9219 37.7969
M29.7812 41.1094
Q30.0312 41.1094 32.125 41.6875
Q34.2344 42.2812 35.7188 43.1406
Q37.2031 44 38.4688 45.3125
Q39.75 46.625 40.5312 48.4062
Q41.3125 50.2031 41.3125 52.3906
Q41.3125 57.0781 37.9375 60.1719
Q34.5781 63.2812 29.7812 63.2812
Q25.1406 63.2812 21.8125 60.1094
Q18.5 56.9375 18.5 52.3906
Q18.5 49.5156 19.7031 47.3594
Q20.9062 45.2188 22.6875 43.8906
Q24.4688 42.5781 26.7812 41.8438
Q29.1094 41.1094 29.7812 41.1094
M29.7812 34.2812
Q16.4062 30.375 16.4062 19.5781
Q16.4062 13.2812 20.4531 9.5
Q24.5156 5.71875 29.9844 5.71875
Q35.6406 5.71875 39.5156 9.45312
Q43.4062 13.1875 43.4062 19.5781
Q43.4062 24.4219 40.7188 28.25
Q38.0312 32.0781 29.7812 34.2812" id="AndaleMono-38"/>
      </defs>
      <g style="fill:#555555;" transform="translate(534.215625 264.8890625)scale(0.1 -0.1)">
       <use xlink:href="#AndaleMono-38"/>
      </g>
     </g>
    </g>
    <g id="xtick_6">
     <g id="line2d_16">
      <path clip-path="url(#p9f76a1e9e4)" d="
M648 252
L648 28.8" style="fill:none;stroke:#000000;stroke-dasharray:1.000000,3.000000;stroke-dashoffset:0.0;stroke-width:0.5;"/>
     </g>
     <g id="line2d_17">
      <g>
       <use style="fill:#555555;stroke:#555555;stroke-width:0.5;" x="648.0" xlink:href="#m1d870bcb37" y="252.0"/>
      </g>
     </g>
     <g id="line2d_18">
      <g>
       <use style="fill:#555555;stroke:#555555;stroke-width:0.5;" x="648.0" xlink:href="#m1d870bcb37" y="28.8"/>
      </g>
     </g>
     <g id="text_6">
      <!-- 10 -->
      <defs>
       <path d="
M49.7031 0
L13.4844 0
L13.4844 6.98438
L28.0781 6.98438
L28.0781 60.5
L14.3125 53.6094
L14.3125 61.625
L29.2031 69.2812
L36.0781 69.2812
L36.0781 6.98438
L49.7031 6.98438
z
" id="AndaleMono-31"/>
      </defs>
      <g style="fill:#555555;" transform="translate(643.04375 264.8890625)scale(0.1 -0.1)">
       <use xlink:href="#AndaleMono-31"/>
       <use x="60.009765625" xlink:href="#AndaleMono-30"/>
      </g>
     </g>
    </g>
   </g>
   <g id="matplotlib.axis_2">
    <g id="ytick_1">
     <g id="line2d_19">
      <path clip-path="url(#p9f76a1e9e4)" d="
M90 227.2
L648 227.2" style="fill:none;stroke:#000000;stroke-dasharray:1.000000,3.000000;stroke-dashoffset:0.0;stroke-width:0.5;"/>
     </g>
     <g id="line2d_20">
      <g>
       <use style="fill:#555555;stroke:#555555;stroke-width:0.5;" x="90.0" xlink:href="#m1d870bcb37" y="227.2"/>
      </g>
     </g>
     <g id="line2d_21">
      <g>
       <use style="fill:#555555;stroke:#555555;stroke-width:0.5;" x="648.0" xlink:href="#m1d870bcb37" y="227.2"/>
      </g>
     </g>
     <g id="text_7">
      <!-- 國防部 -->
      <defs>
       <path d="
M29.2031 82.5
C28.2031 82.5 27.7031 82.0938 27.7031 81.4062
L27.7031 70
L7.40625 70
C6.59375 70 6.20312 69.5 6.20312 68.5
L6.20312 65.2969
C6.20312 64.2969 6.59375 63.7969 7.40625 63.7969
L53.9062 63.7969
C54.5938 63.7969 55 64.2969 55 65.2969
L55 68.5
C55 69.5 54.5938 70 53.9062 70
L34.7031 70
L34.7031 77.7969
C34.7031 79.0938 35 79.7969 35.7031 79.9062
C36.2969 79.9062 36.7031 80.4062 36.7031 81.4062
C36.7031 82.0938 34.2031 82.5 29.2031 82.5
M17.9062 61.7969
C14.2969 59.9062 12.5 58.7031 12.5 58.2969
C14 55.2031 15.2031 52.0938 16.2031 49.0938
C17 46.4062 17.5938 44.0938 17.9062 42.2969
C22.2969 43.2969 24.5938 44 24.5938 44.2969
C23.7969 47.0938 23 49.9062 22 52.5
C21 55.2969 19.5938 58.4062 17.9062 61.7969
M43.7031 62.5938
C43.4062 62.5938 43.2031 62.2031 43 61.4062
C42.4062 58.5938 41.4062 55.9062 40.0938 53.0938
C39.2031 51 37.9062 48.5938 36.2031 45.7969
C36 45.4062 35.9062 45.2031 35.9062 45
C35.9062 44.9062 36.0938 44.7969 36.7031 44.5938
C37.9062 44.0938 39.0938 43.5 40.5 42.9062
C41.0938 42.5 41.7031 42.2969 42.0938 42.2969
C42.2969 42.2969 42.7031 42.5938 43.2031 43.2969
C45 46.4062 47 50.7969 49 56.5
C49.0938 57.2031 49.5 57.5938 50.2969 57.5938
C50.7969 57.7969 51.0938 58.2031 51.0938 58.7031
C51.0938 59.2031 50.5938 59.7031 49.7031 60.2031
z

M5.40625 41.5
C4.59375 41.5 4.20312 41 4.20312 40
L4.20312 36.7969
C4.20312 35.7969 4.59375 35.2969 5.40625 35.2969
L56.2031 35.2969
C57 35.2969 57.4062 35.7969 57.4062 36.7969
L57.4062 40
C57.4062 41 57 41.5 56.2031 41.5
z

M11.7031 27.5
C10.5938 27.5 10.0938 26.9062 10.0938 25.9062
L10.0938 -7.29688
C10.0938 -8.09375 10.5938 -8.5 11.7031 -8.5
L15.5938 -8.5
C16.5938 -8.5 17.0938 -8.09375 17.0938 -7.29688
L17.0938 -2.59375
L43.7031 -2.59375
L43.7031 -7.29688
C43.7031 -8.09375 44.2031 -8.5 45.2969 -8.5
L49.2031 -8.5
C50.2031 -8.5 50.7031 -8.09375 50.7031 -7.29688
L50.7031 26.2969
C50.7031 27.0938 50.2031 27.5 49.2031 27.5
z

M17.0938 3.59375
L17.0938 21.2031
L43.7031 21.2031
L43.7031 3.59375
z

M68.7031 72.4062
L87.5 72.4062
L73.4062 45.9062
C73.0938 45.0938 73 44.5938 73 44.2969
C73 43.7969 73.2031 43.2969 73.7969 42.9062
C78.2969 38.2031 81.7031 33.2969 84 28.2969
C85.7969 23.7969 86.7031 19.7031 86.7031 16.0938
C86.7031 13.5 86 11.5 84.7031 9.90625
C83.4062 8 81.2031 7.09375 78.0938 7.09375
L73.4062 7.90625
C72.5938 7.90625 72.2031 7.5 72.2031 6.79688
C73 5.59375 73.5 3.79688 73.9062 1.40625
C73.9062 0.203125 74.7031 -0.296875 76.5 -0.296875
C80.7031 -0.296875 83.5938 0.203125 85.4062 1.40625
C88.0938 2.40625 90.2031 4.29688 91.7031 7
C93 9.59375 93.7031 12.7031 93.7031 16.0938
C93.7031 21.2031 92.5938 26.2969 90.4062 31.4062
C88.0938 36.2031 85.2969 40.4062 82 43.9062
C81.4062 44.4062 81.2031 44.9062 81.2031 45.4062
C81.2031 45.7969 81.2969 46.2969 81.5938 46.9062
L95.7031 75.0938
C95.7031 75.5 94.7969 76.4062 93.0938 77.7031
C92.5 78 91.7031 78.2031 90.5938 78.2031
L63.2031 78.2031
C62.2031 78.2031 61.7031 77.7969 61.7031 77.0938
L61.7031 -7.29688
C61.7031 -8.09375 62.2031 -8.5 63.2031 -8.5
L67.0938 -8.5
C68.0938 -8.5 68.7031 -8.09375 68.7031 -7.29688
z
" id="DFHeiStd-W5-90e8"/>
       <path d="
M14.7969 72.7969
L32.7031 72.7969
L21.2969 49.2031
C21.0938 48.5938 21 48.0938 21 47.7969
C21 47.4062 21.2031 47 21.7969 46.5938
C25.7031 42.5 28.7031 38.2969 30.7969 33.9062
C32.4062 29.9062 33.2031 26.4062 33.2031 23.2031
C33.2031 20 32.5 17.4062 31.0938 15.5938
C29.7031 13.2969 27.4062 12.2031 24.2031 12.2031
L19.9062 12.5938
C19.0938 12.5938 18.7031 12.2969 18.7031 11.7969
C19.4062 10.7031 19.9062 9 20.2031 6.79688
C20.2031 5.70312 21 5.20312 22.5938 5.20312
C26.7969 5.20312 29.7031 5.79688 31.5 7
C34.2031 8.20312 36.2969 10.2031 37.7969 13.2031
C39.0938 16 39.7969 19.4062 39.7969 23.2031
C39.7969 27.5938 38.7969 32.0938 36.9062 36.5938
C34.9062 40.7969 32.4062 44.5 29.5 47.5938
C29.0938 48.0938 28.9062 48.5 28.9062 48.9062
C28.9062 49.2969 29 49.7031 29.2031 50.2969
L40.2031 75.5
C40.2031 75.9062 39.4062 76.7969 37.7969 78.0938
C37.2969 78.4062 36.5 78.5938 35.5 78.5938
L9.29688 78.5938
C8.29688 78.5938 7.79688 78.2031 7.79688 77.5
L7.79688 -7.70312
C7.79688 -8.5 8.29688 -8.90625 9.29688 -8.90625
L13.2031 -8.90625
C14.2031 -8.90625 14.7969 -8.5 14.7969 -7.70312
z

M65.2031 81.4062
C64.0938 81.4062 63.5938 81 63.5938 80.2031
L63.5938 65.2969
L41 65.2969
C40.2031 65.2969 39.7969 64.7969 39.7969 63.7969
L39.7969 60.7031
C39.7969 59.5938 40.2031 59.0938 41 59.0938
L53.7031 59.0938
C53.7031 48.2969 53.2969 40 52.4062 34.2031
C51.4062 26.7969 49.5 20 46.7969 13.5938
C43.7969 6.90625 39.7031 1.5 34.5938 -2.70312
C34.0938 -3.09375 33.9062 -3.40625 33.9062 -3.79688
C33.9062 -4.20312 34.2031 -4.5 34.9062 -4.59375
C36.2031 -5.40625 37.5 -6.29688 38.9062 -7.09375
C39.2969 -7.20312 40 -7.29688 41 -7.29688
C45.5938 -2.70312 49.2969 2.40625 52.0938 8
C54.7031 13.2031 56.7969 19.9062 58.4062 28.0938
C58.9062 30.9062 59.2969 34.2031 59.7031 38
L84.0938 38
C83.7969 27.4062 83.2969 19.7031 82.7031 15.0938
C82 9 81.0938 4.90625 80.0938 2.79688
C79.0938 0.203125 77 -1.09375 73.7969 -1.09375
C70 -1.09375 65.7969 -0.296875 61.2969 1.29688
L61.2969 0.5
C63.2031 -2 64.4062 -4.20312 64.7969 -6
C65 -7.59375 68 -8.5 73.7969 -8.5
C80.0938 -8.5 84 -6.59375 85.5 -2.90625
C87 0.59375 88.2031 5.90625 89.2031 13.0938
C89.9062 19.0938 90.4062 28.9062 90.5938 42.7031
C90.5938 43.7031 90.2031 44.2969 89.4062 44.2969
L60.2031 44.2969
C60.4062 48.5 60.5938 53.2969 60.7031 58.7031
C60.7031 58.7969 60.7031 58.9062 60.7969 59.0938
L94.5 59.0938
C95.2969 59.0938 95.7031 59.5938 95.7031 60.7031
L95.7031 63.7969
C95.7031 64.7969 95.2969 65.2969 94.5 65.2969
L70.7031 65.2969
L70.7031 76.7031
C70.7031 77.9062 71 78.5938 71.5938 78.7031
C72.2031 78.7969 72.5938 79.2969 72.5938 80.2031
C72.5938 81 70.0938 81.4062 65.2031 81.4062" id="DFHeiStd-W5-9632"/>
       <path d="
M9.70312 78.5938
C8.70312 78.5938 8.20312 78.2031 8.20312 77.5
L8.20312 -7.70312
C8.20312 -8.5 8.70312 -8.90625 9.70312 -8.90625
L13.5938 -8.90625
C14.5938 -8.90625 15.2031 -8.5 15.2031 -7.70312
L15.2031 -4.59375
L83.9062 -4.59375
L83.9062 -7.70312
C83.9062 -8.5 84.4062 -8.90625 85.5 -8.90625
L89.4062 -8.90625
C90.4062 -8.90625 91 -8.5 91 -7.70312
L91 77.5
C91 78.2031 90.4062 78.5938 89.4062 78.5938
z

M15.2031 1.70312
L15.2031 72.7969
L83.9062 72.7969
L83.9062 1.70312
z

M21 61
C20.5 61 20.2969 60.5938 20.2969 59.9062
L20.2969 56.7969
C20.2969 55.7031 20.5 55.2031 21 55.2031
L53.9062 55.2031
C54.0938 50.7969 54.2969 47.0938 54.7031 44.0938
C55.2969 38.7969 56.2031 33.7031 57.4062 28.9062
C58.0938 26.0938 59 23.5 60 21.0938
C57.9062 18.5 55.5 16.2031 52.9062 14.4062
C51.2031 13 49.5 11.9062 47.7969 11.2031
C47.4062 11 47.2031 10.9062 47.2031 10.7031
C47.2031 10.0938 47.4062 9.59375 48 9.40625
C48.9062 8.59375 49.7031 7.70312 50.5 6.70312
C50.9062 5.90625 51.5 5.59375 52.2969 5.59375
C52.7031 5.59375 53.0938 5.70312 53.5 5.90625
C57.0938 8.40625 60.4062 11.2031 63.2031 14.2031
C64.5 12 65.7969 10.2031 67.2031 8.79688
C68.7031 7.09375 70.0938 5.90625 71.5 5.29688
C72.2969 4.90625 73 4.79688 73.7969 4.79688
C75.2031 4.79688 76.7969 6 78.5938 8.40625
C79.7031 10 81 12.2969 82.4062 15.2969
C82.4062 16.2031 82 16.9062 81.2031 17.4062
C80 18.4062 79.0938 19.5 78.4062 20.7031
C78 21.2969 77.5938 21.5938 77.2969 21.5938
C76.5 18.9062 75.7031 16.9062 75 15.5938
C74.2969 14.4062 73.7969 13.7969 73.4062 13.7969
C72.7969 13.7969 71.9062 14.2031 70.7969 15
C69.5938 16.2969 68.5938 17.9062 67.7031 19.7969
C69.2031 22 70.7031 24.4062 72.0938 27.0938
C74.0938 31.2969 75.9062 36 77.5 41.2031
C77.9062 41.9062 78.4062 42.2969 79.2031 42.2969
C80 42.5938 80.4062 43.0938 80.4062 43.9062
C80.4062 44.4062 77.7969 45.5938 72.5938 47.4062
C72 47.4062 71.7031 47.0938 71.5938 46.5
C70.7969 42.5 69.5938 38.7969 68.2031 35.4062
C67.0938 32.5 65.9062 29.9062 64.5 27.5
C64.0938 28.9062 63.5938 30.5938 63.2031 32.4062
C62.0938 36.4062 61.4062 40.7969 61 45.5938
C60.7969 48.2031 60.5938 51.4062 60.5938 55.2031
L80.7969 55.2031
C81.2969 55.2031 81.5938 55.7031 81.5938 56.7969
L81.5938 59.9062
C81.5938 60.5938 81.2969 61 80.7969 61
L74.0938 61
C74.4062 61.4062 75.2969 62.5938 76.7969 64.5938
C77.0938 65 77.2969 65.2031 77.2969 65.2969
C76.0938 66.2969 74.7969 67.2969 73.2969 68.5
C72 69.4062 70.2969 70.4062 68.2969 71.5938
C68.0938 71.5938 67.7969 71.4062 67.5 71
C65.7031 68.5938 64.7969 67.2031 64.7969 66.9062
C65.7969 66.5 67 65.7969 68.5 64.7969
C70.0938 63.5938 71.7969 62.4062 73.4062 61
L60.5 61
L60.5 63.4062
C60.5 64.9062 60.7031 65.7969 61.2969 66.0938
C61.7969 66.2969 62.0938 66.9062 62.0938 67.7031
C62.0938 68.0938 61.5 68.4062 60.4062 68.4062
L54.2031 68.9062
C53.7031 68.9062 53.5 68.5 53.5 67.7031
C53.5 65.2969 53.5938 63.0938 53.7031 61
z

M23.7969 48.9062
C22.7031 48.9062 22.2031 48.5 22.2031 47.7969
L22.2031 27.7969
C22.2031 27 22.7031 26.7031 23.7969 26.7031
L47.2031 26.7031
C48.2031 26.7031 48.7969 27 48.7969 27.7969
L48.7969 47.7969
C48.7969 48.5 48.2031 48.9062 47.2031 48.9062
z

M42.0938 32.5
L28.9062 32.5
L28.9062 43.0938
L42.0938 43.0938
z

M49.5938 22.4062
C49.4062 22.4062 49.2031 22.2969 49.0938 22.2031
C44.2031 20.5938 39 19.2031 33.5 17.9062
C28 16.5 23.2969 15.5938 19.5 15
C21.2969 9.70312 22.4062 7.09375 23 7.09375
C23.5938 7.09375 24.2969 8 25.2969 9.90625
C33.5938 11.7031 41.7969 13.7969 50 16.0938
C50.2031 16.4062 50.2969 18.0938 50.2969 21.2031
C50.2969 22 50 22.4062 49.5938 22.4062" id="DFHeiStd-W5-570b"/>
      </defs>
      <g style="fill:#555555;" transform="translate(55.25 230.5109375)scale(0.1 -0.1)">
       <use xlink:href="#DFHeiStd-W5-570b"/>
       <use x="99.99998474121094" xlink:href="#DFHeiStd-W5-9632"/>
       <use x="199.99996948242188" xlink:href="#DFHeiStd-W5-90e8"/>
      </g>
     </g>
    </g>
    <g id="ytick_2">
     <g id="line2d_22">
      <path clip-path="url(#p9f76a1e9e4)" d="
M90 202.4
L648 202.4" style="fill:none;stroke:#000000;stroke-dasharray:1.000000,3.000000;stroke-dashoffset:0.0;stroke-width:0.5;"/>
     </g>
     <g id="line2d_23">
      <g>
       <use style="fill:#555555;stroke:#555555;stroke-width:0.5;" x="90.0" xlink:href="#m1d870bcb37" y="202.4"/>
      </g>
     </g>
     <g id="line2d_24">
      <g>
       <use style="fill:#555555;stroke:#555555;stroke-width:0.5;" x="648.0" xlink:href="#m1d870bcb37" y="202.4"/>
      </g>
     </g>
     <g id="text_8">
      <!-- 教育部 -->
      <defs>
       <path d="
M8.90625 69.5938
C8.09375 69.5938 7.79688 69.0938 7.79688 68.0938
L7.79688 65
C7.79688 63.9062 8.09375 63.4062 8.90625 63.4062
L23.4062 63.4062
L23.4062 53.2031
L5.79688 53.2031
C5 53.2031 4.59375 52.7031 4.59375 51.7031
L4.59375 48.5
C4.59375 47.5 5 47 5.79688 47
L32.2031 47
C32.2031 47 32.0938 46.9062 32.0938 46.9062
C27.5938 43 22.5938 39.5938 17.2031 36.5938
C12.4062 34.0938 7.70312 32.0938 3.09375 30.5938
C4.40625 28.9062 5.5 27.2031 6.40625 25.5
C6.5 24.9062 7.09375 24.7031 8.20312 24.7031
C10.5938 25.5938 13.7031 27 17.4062 28.7969
C18.7031 29.4062 20.0938 30.2031 21.5 31
L36.9062 31
L30.2031 24.2031
L28.0938 25.0938
C27 25.0938 26.5 24.7031 26.5 23.9062
L26.5 15.7031
L26.2969 15.7031
C18 14.2969 10.9062 13.2031 5 12.5938
C7 7.09375 8.29688 4.40625 8.90625 4.40625
C9.5 4.40625 10.2969 5.29688 11.2969 7.09375
C16.2969 7.90625 21.4062 8.70312 26.5 9.70312
L26.5 -0.296875
C26.5 -2.59375 25.4062 -3.79688 23.4062 -3.79688
C21.2969 -3.79688 18.5938 -3.20312 15.2031 -2.20312
C14.9062 -2.20312 14.7969 -2.40625 14.7969 -3
C15.7969 -4.5 16.2969 -6 16.5 -7.59375
C16.5 -8.70312 16.7031 -9.29688 17.0938 -9.29688
L23.4062 -10
C30.0938 -10 33.5 -7.59375 33.5 -3
L33.5 11
C39.2031 12 44.9062 13 50.7031 14.2031
C50.9062 14.5 51.0938 16.2969 51.0938 19.5938
C51.0938 20.0938 50.7969 20.4062 50.2969 20.4062
C50.0938 20.4062 49.7969 20.2969 49.5938 20.2969
C44.5 19.0938 39.0938 18 33.5 17
L33.5 19.0938
C33.5938 19.0938 33.7031 19.0938 33.9062 19.2969
L48 34.0938
C48 34.7031 47.2969 35.5938 46.0938 36.7969
C45.9062 37 45.2969 37.2031 44.5 37.2031
L31.0938 37.2031
C31.7031 37.5938 32.4062 38 33.0938 38.5938
C36.2969 41 39.2031 43.7969 41.9062 47
L51.0938 47
C51.9062 47 52.2969 47.5 52.2969 48.5
L52.2969 51.7031
C52.2969 52.7031 51.9062 53.2031 51.0938 53.2031
L46.9062 53.2031
C49.7969 57 52.7969 62 55.7969 68.0938
C56.0938 68.7031 56.5938 69.0938 57.2969 69.0938
C58.0938 69.0938 58.5 69.2031 58.5 69.5938
C58.5 70.2031 58.0938 70.7031 57.4062 71.0938
L51.0938 73.9062
C50.9062 73.9062 50.7969 73.5938 50.7031 73.2031
C48.7031 68.2969 46.5 64 44 60.2031
C42.4062 57.7969 40.5938 55.4062 38.5938 53.2031
L30.4062 53.2031
L30.4062 63.4062
L42.9062 63.4062
C43.7031 63.4062 44.0938 63.9062 44.0938 65
L44.0938 68.0938
C44.0938 69.0938 43.7031 69.5938 42.9062 69.5938
L30.4062 69.5938
L30.4062 76.2969
C30.4062 77.5 30.7031 78.2031 31.4062 78.2969
C32 78.4062 32.4062 78.9062 32.4062 79.7969
C32.4062 80.5938 29.9062 81 25 81
C23.9062 81 23.4062 80.5938 23.4062 79.7969
L23.4062 69.5938
z

M66.7031 81
C66.5 81 66.2969 80.5938 66.0938 80
C65.0938 73.7031 64 68.5938 62.9062 64.5938
C61.9062 60.7969 60.7969 57.2031 59.5 53.7969
C57.2969 48 54.7031 43 51.9062 39
C51.5938 38.7969 51.5 38.4062 51.5 38
C51.5 37.7969 51.7031 37.5938 52.0938 37.4062
C53.4062 37 54.7031 36.5 56 36
C56.5938 35.7969 57.2969 35.7031 58.2031 35.7031
C58.7969 36.7031 59.5 37.7969 60.2969 39.0938
C60.7969 32.2969 61.7969 26.7969 63.4062 22.5
C65 17.7969 67 13.7969 69.2031 10.4062
C66.5 7.29688 63.2031 4.40625 59.2969 1.79688
C54.9062 -1.20312 51.0938 -3.20312 48 -4.20312
C49.2969 -5.70312 50.9062 -7.40625 52.7031 -9.29688
C58.7031 -6.70312 63.5938 -4 67.4062 -1
C69.5938 0.59375 71.7031 2.40625 73.7031 4.5
C75.4062 2.5 77.5 0.40625 80.0938 -1.59375
C83.5 -4.5 87 -7.09375 90.5938 -9.29688
C91.2031 -9.29688 91.7969 -9 92.2969 -8.59375
C93.7031 -7.5 95.0938 -6.5 96.2969 -5.59375
C96.9062 -5.29688 97.2031 -5 97.2031 -4.59375
C91.4062 -1.40625 86.5 2 82.4062 5.59375
C80.7969 7 79.4062 8.5 78.2031 10
C81.5938 15.2969 84.2031 22 86.0938 30
C87.5 35.7031 88.5 44.7031 88.9062 57.0938
L94.5 57.0938
C95.2969 57.0938 95.7031 57.5938 95.7031 58.7031
L95.7031 61.7969
C95.7031 62.7969 95.2969 63.4062 94.5 63.4062
L69.7969 63.4062
C70.5938 66.2969 71.4062 69.9062 72.4062 74.2969
C72.5938 75.2969 73 75.9062 73.7969 75.9062
C74.2969 76.0938 74.5938 76.5 74.5938 77.0938
C74.5938 77.4062 74.2031 77.7969 73.5 78.4062
z

M62.7031 43.5
C62.9062 43.9062 63.2031 44.2969 63.4062 44.7969
C65 48.5938 66.5 52.7031 68 57
L68 57.0938
L81.9062 57.0938
C81.5 45.7031 80.5 37.2031 79.0938 31.4062
C77.9062 26.0938 76 21.2031 73.5 16.5938
C71.7031 20 70.2031 23.5 69.0938 26.9062
C67.7969 30.5938 67 35.5938 66.7031 41.9062
C66.7031 42.9062 66 43.5 64.7969 43.5
z
" id="DFHeiStd-W5-6559"/>
       <path d="
M48.4062 82.9062
C47.2969 82.9062 46.7969 82.5 46.7969 81.7969
L46.7969 73.9062
L7.40625 73.9062
C6.59375 73.9062 6.20312 73.4062 6.20312 72.4062
L6.20312 69.2969
C6.20312 68.2031 6.59375 67.7031 7.40625 67.7031
L36.0938 67.7031
C35.7031 67.0938 35.2031 66.5 34.7969 65.9062
C31.5 61.5 27.7969 57.4062 23.7969 53.5
C18.7031 53.2031 13.5938 53 8.5 52.7969
C10.9062 47.2969 12.5 44.5938 13.2031 44.5938
C14 44.5938 14.5 45 14.7969 45.7969
C15.4062 46.4062 16.2969 46.7031 17.4062 46.7031
C40.4062 48.0938 61.2969 49.5938 80.2031 51.2031
C82.9062 48.5938 85.5938 45.7031 88.2031 42.7031
C88.2969 42.7031 89.2969 44.0938 91.2969 46.9062
C91.5 47.2969 91.7031 47.5938 91.7031 47.7969
C88.9062 50.9062 85.5938 54.4062 81.5938 58.2969
C78.5 61.0938 74.5938 64.2969 69.7969 67.7031
L92.9062 67.7031
C93.7031 67.7031 94.0938 68.2031 94.0938 69.2969
L94.0938 72.4062
C94.0938 73.4062 93.7031 73.9062 92.9062 73.9062
L53.9062 73.9062
L53.9062 78.2031
C53.9062 79.4062 54.2031 80.0938 54.7969 80.2969
C55.4062 80.2969 55.7969 80.7969 55.7969 81.7969
C55.7969 82.5 53.2969 82.9062 48.4062 82.9062
M73.9062 56.9062
C59.7969 55.5938 45.5938 54.5938 31.4062 53.9062
C32.7031 54.9062 34 56.0938 35.4062 57.4062
C39.5938 61.2031 43 64.5938 45.7031 67.7031
L67.7969 67.7031
C65.7969 65.0938 64.7969 63.7031 64.7969 63.4062
C67.2031 62 70.2969 59.9062 73.9062 56.9062
M23.7969 41.9062
C22.7031 41.9062 22.2031 41.5 22.2031 40.7031
L22.2031 -8.09375
C22.2031 -8.90625 22.7031 -9.29688 23.7969 -9.29688
L27.7031 -9.29688
C28.7031 -9.29688 29.2031 -8.90625 29.2031 -8.09375
L29.2031 6.79688
L71 6.79688
L71 1
C71 0.09375 70.4062 -0.5 69.2969 -0.90625
C68.2969 -1.29688 65 -1.5 59.5 -1.5
C58.7969 -1.5 58.5 -1.59375 58.5 -1.79688
C59.9062 -4.59375 60.5938 -6.70312 60.7969 -8.09375
C60.9062 -8.90625 61.2969 -9.29688 62.0938 -9.29688
C66.7031 -9 70.4062 -8.5 73.4062 -7.70312
C76.5 -6.59375 78.0938 -5.20312 78.0938 -3.40625
L78.0938 40.7031
C78.0938 41.5 77.4062 41.9062 76.0938 41.9062
z

M29.2031 12.5938
L29.2031 21.2031
L71 21.2031
L71 12.5938
z

M29.2031 27.0938
L29.2031 36
L71 36
L71 27.0938
z
" id="DFHeiStd-W5-80b2"/>
      </defs>
      <g style="fill:#555555;" transform="translate(54.7390625 205.7859375)scale(0.1 -0.1)">
       <use xlink:href="#DFHeiStd-W5-6559"/>
       <use x="99.99998474121094" xlink:href="#DFHeiStd-W5-80b2"/>
       <use x="199.99996948242188" xlink:href="#DFHeiStd-W5-90e8"/>
      </g>
     </g>
    </g>
    <g id="ytick_3">
     <g id="line2d_25">
      <path clip-path="url(#p9f76a1e9e4)" d="
M90 177.6
L648 177.6" style="fill:none;stroke:#000000;stroke-dasharray:1.000000,3.000000;stroke-dashoffset:0.0;stroke-width:0.5;"/>
     </g>
     <g id="line2d_26">
      <g>
       <use style="fill:#555555;stroke:#555555;stroke-width:0.5;" x="90.0" xlink:href="#m1d870bcb37" y="177.6"/>
      </g>
     </g>
     <g id="line2d_27">
      <g>
       <use style="fill:#555555;stroke:#555555;stroke-width:0.5;" x="648.0" xlink:href="#m1d870bcb37" y="177.6"/>
      </g>
     </g>
     <g id="text_9">
      <!-- 農委會 -->
      <defs>
       <path d="
M18.7031 75.0938
C17.5938 75.0938 17.0938 74.7031 17.0938 73.9062
L17.0938 47.7969
C17.0938 47 17.5938 46.5938 18.7031 46.5938
L83.9062 46.5938
C84.9062 46.5938 85.5 47 85.5 47.7969
L85.5 73.9062
C85.5 74.7031 84.9062 75.0938 83.9062 75.0938
L64 75.0938
L64 77.5
C64 78.7031 64.2969 79.4062 65 79.5
C65.5938 79.5938 66 80.0938 66 81
C66 81.7031 63.5 82.0938 58.5 82.0938
C57.5 82.0938 57 81.7031 57 81
L57 75.0938
L44.5 75.0938
L44.5 77.0938
C44.5 78.2969 44.7969 79 45.5 79.0938
C46.0938 79.2031 46.4062 79.7031 46.4062 80.5938
C46.4062 81.4062 43.9062 81.7969 39 81.7969
C38 81.7969 37.5 81.4062 37.5 80.5938
L37.5 75.0938
z

M78.5 52.0938
L64 52.0938
L64 58.2969
L78.5 58.2969
z

M57 52.0938
L44.5 52.0938
L44.5 58.2969
L57 58.2969
z

M37.5 52.0938
L24.2031 52.0938
L24.2031 58.2969
L37.5 58.2969
z

M24.2031 63.4062
L24.2031 69.5938
L37.5 69.5938
L37.5 63.4062
z

M44.5 69.5938
L57 69.5938
L57 63.4062
L44.5 63.4062
z

M64 69.5938
L78.5 69.5938
L78.5 63.4062
L64 63.4062
z

M18.7031 36
L89 36
C89.5 36 89.7969 36.4062 89.7969 37.2031
L89.7969 40.2969
C89.7969 41.0938 89.5 41.5 89 41.5
L13.2031 41.5
C12.2031 41.5 11.7031 41.0938 11.7031 40.2969
L11.7031 24.7031
C11.7031 19.5 11.2969 15 10.7031 11.4062
C10.0938 7.90625 9.09375 4.59375 7.79688 1.40625
C6.40625 -1.59375 4.79688 -3.90625 3.09375 -5.70312
C3.09375 -6.29688 3.20312 -6.70312 3.5 -7.09375
C4.79688 -7.90625 6 -8.79688 7.09375 -9.79688
C7.29688 -9.90625 7.70312 -10 8.20312 -10
C10.2031 -8 11.7031 -5.90625 12.7969 -3.79688
C14.9062 -0.09375 16.2969 3.5 17 7.09375
C18.0938 11.4062 18.7031 17.2969 18.7031 24.7031
z

M32 31.4062
C31.4062 31.4062 31.2031 31 31.2031 30.2031
L31.2031 27.0938
C31.2031 26.2969 31.4062 25.9062 32 25.9062
L81.2031 25.9062
C81.7031 25.9062 82 26.2969 82 27.0938
L82 30.2031
C82 31 81.7031 31.4062 81.2031 31.4062
z

M23 20.4062
C22.4062 20.4062 22.2031 20 22.2031 19.2969
L22.2031 16.0938
C22.2031 15.2969 22.4062 15 23 15
L34.2969 15
L34.2969 -2.29688
C29.9062 -2.90625 26 -3.40625 22.5938 -3.79688
C24.4062 -9 25.5 -11.5938 26.0938 -11.5938
C26.7031 -11.5938 27.5 -10.7031 28.5 -8.90625
C38.5938 -7.5 48.5938 -5.90625 58.5 -4.20312
C58.7031 -3.79688 58.9062 -2.09375 58.9062 0.90625
C58.9062 1.70312 58.5938 2.09375 58.2031 2.09375
C58 2.09375 57.7969 2 57.5938 2
C52.4062 0.796875 47 -0.09375 41.4062 -1.09375
L41.4062 15
L54.5938 15
C56.7969 11.2031 59 8 61.2031 5.5
C63.2031 3.20312 65.5 1.09375 68.2031 -0.90625
C70.2031 -2.29688 72.7969 -3.90625 76.0938 -5.5
C79.7031 -7.29688 83.7969 -8.79688 88.5938 -10
C89.2031 -10 89.7969 -9.70312 90.2969 -9.20312
C91.2031 -8 92.2031 -6.79688 93.2031 -5.59375
C93.7969 -5.20312 94.0938 -4.70312 94.0938 -4.20312
C94.0938 -3.90625 93.7969 -3.79688 93.2969 -3.79688
C91.2969 -3.40625 89.5938 -3 88.2031 -2.70312
C85.0938 -1.70312 82.4062 -0.796875 80.0938 0.203125
C79.5 0.40625 79 0.703125 78.5 1
C81.0938 2.40625 83.7031 4.20312 86.2969 6.40625
C86.4062 6.70312 87.0938 6.90625 88.2969 6.90625
C89 6.90625 89.4062 7.09375 89.4062 7.5
C89.4062 7.90625 87.5 9.59375 83.9062 12.5938
C83.7031 12.5938 83.5 12.5 83.2031 12.2969
C81 10.0938 78.9062 8.29688 76.7969 7
C75.5 6.09375 74 5.29688 72.4062 4.5
C69.7969 6.09375 67.7031 8 65.9062 10.0938
C64.7031 11.2969 63.5 12.9062 62.2031 15
L88.5938 15
C89.0938 15 89.4062 15.2969 89.4062 16.0938
L89.4062 19.2969
C89.4062 20 89.0938 20.4062 88.5938 20.4062
z
" id="DFHeiStd-W5-8fb2"/>
       <path d="
M80.7969 75.9062
L83.5 74.7031
C84.2969 74.7031 84.7031 75.0938 84.7031 75.9062
C84.7031 76.7031 82.7969 78.7031 79 82
C78.5938 82.2969 78.0938 82.5 77.2969 82.5
C77 82.5 76.5938 82.4062 76 82.2969
C71.7031 81.2031 66.4062 80.2969 60.2031 79.7031
C54.7031 79 49.2969 78.5938 43.9062 78.4062
C37.9062 78 30.7969 77.7969 22.5938 77.7969
L16.7031 77.7969
C15.9062 77.7969 15.5938 77.4062 15.5938 76.7031
C16.5938 75.2031 17.5938 73.7969 18.5938 72.5938
C18.7969 71.5938 19.5 71.2031 20.7031 71.2031
C26.9062 71.2031 33.7031 71.4062 41.2969 71.7969
C42.9062 71.7969 44.5938 71.9062 46.4062 72.0938
L46.4062 63.4062
L10.0938 63.4062
C9.29688 63.4062 8.90625 62.7969 8.90625 61.7969
L8.90625 58.7031
C8.90625 57.5938 9.29688 57.0938 10.0938 57.0938
L42.4062 57.0938
C39.4062 54.7031 36.7969 52.7969 34.7031 51.5938
C29.9062 49.0938 25.2031 47.0938 20.5938 45.5
C15.7969 43.9062 10.0938 42.5 3.5 41.0938
C3.5 40.7969 3.70312 40.4062 4.29688 39.9062
C5.5 38.5 6.59375 37.2969 7.59375 36.2031
C8 35.2969 8.5 34.9062 8.90625 34.9062
C9.79688 34.9062 13.2969 35.9062 19.4062 38
C24.4062 39.7031 28.9062 41.5938 33 43.7031
C36.5938 45.5938 40.0938 47.7969 43.5 50.4062
C44.5 51 45.4062 51.7031 46.4062 52.5
L46.4062 40.7031
C46.4062 39.9062 46.9062 39.5938 48 39.5938
L51.9062 39.5938
C53.2031 39.5938 53.9062 39.9062 53.9062 40.7031
L53.9062 52.0938
C58.7969 48.2969 62.9062 45.7031 66.0938 44.0938
C73.7031 39.7031 81.7031 36.5 90.2031 34.5
C90.9062 34.5 91.4062 34.7031 91.5938 35.0938
C92.5 36.0938 94 37.5 96 39.2031
C96.5 39.4062 96.7969 39.7969 96.7969 40.2969
C91.7969 40.9062 86.7969 42.2969 81.7031 44.2969
C77.2031 45.9062 72.5938 48 67.9062 50.5938
C65 52.2031 61.7031 54.2969 58 57.0938
L89.7969 57.0938
C90.5938 57.0938 91 57.5938 91 58.7031
L91 61.7969
C91 62.7969 90.5938 63.4062 89.7969 63.4062
L53.9062 63.4062
L53.9062 72.7031
C56.4062 72.9062 59.0938 73.0938 62 73.5
C68.2031 74.0938 73.5938 74.7969 78.2031 75.5938
C79.2031 75.7969 80.0938 75.9062 80.7969 75.9062
M6.59375 27.7969
C5.79688 27.7969 5.40625 27.2969 5.40625 26.2969
L5.40625 23.2031
C5.40625 22.0938 5.79688 21.5938 6.59375 21.5938
L33.4062 21.5938
C33.2031 21.2969 32.9062 21 32.7031 20.7969
C29.7031 17.4062 25.4062 13.2969 19.9062 8.29688
C19.9062 7.70312 20 7.40625 20.2969 7.29688
C21.7031 6.90625 22.9062 6.29688 24.0938 5.70312
C24.2969 5.29688 24.7031 5.20312 25.2969 5.20312
C26.5 6.20312 27.7031 7.20312 28.9062 8.29688
C35.7031 6.79688 41.7969 5.29688 47.0938 3.90625
C45.4062 3.09375 43.5938 2.5 41.5938 1.90625
C34.2031 -0.59375 25.7969 -2 16.4062 -2.20312
L10.5 -1.79688
C10.5 -2.09375 10.5938 -2.5 10.7969 -2.90625
C12.0938 -4.70312 13.2031 -6.29688 14.0938 -7.79688
C14.2969 -8.79688 14.7969 -9.29688 15.5938 -9.29688
C19.5938 -9.29688 24.7031 -8.70312 30.9062 -7.70312
C36.4062 -6.5 41.7031 -5 46.7969 -3.29688
C50 -2 53 -0.5 56 1.20312
C58.4062 0.40625 61.0938 -0.5 64 -1.59375
C68.5938 -3.29688 74.4062 -5.79688 81.4062 -9
C82 -9.20312 82.4062 -9.29688 82.7969 -9.29688
C83.2031 -9.29688 84.5938 -7.90625 86.9062 -5.20312
C87.2969 -4.70312 87.5 -4.20312 87.5 -3.79688
C81.5 -1 75.2969 1.5 69 3.79688
C66.9062 4.59375 64.7969 5.29688 62.7969 6
C65.0938 8 67.5 10.5 70 13.7031
C71.7969 15.9062 73.5 18.5938 75.2031 21.5938
L93.2969 21.5938
C94.0938 21.5938 94.5 22.0938 94.5 23.2031
L94.5 26.2969
C94.5 27.2969 94.0938 27.7969 93.2969 27.7969
L48.2031 27.7969
C49.2031 29 50.0938 30.2031 51.0938 31.4062
C51.2969 31.7969 52.2969 32.0938 54.2031 32.2969
C55 32.2969 55.4062 32.7031 55.4062 33.2969
C55.4062 33.4062 55.2031 33.7031 54.9062 34.2969
L46.7969 39.2031
C46.5938 39.2031 46.5 38.9062 46.4062 38.4062
C45.7969 37.0938 44.7969 35.4062 43.2969 33.4062
C42 31.5938 40.5 29.7031 38.9062 27.7969
z

M55.4062 8.40625
C53.5 8.90625 51.5938 9.40625 49.7969 10
C45.2031 11.2969 40.2031 12.5 34.7969 13.7031
C37.2031 15.9062 39.4062 18 41.2031 19.9062
C41.5938 20.4062 42.0938 21 42.7031 21.5938
L67.2031 21.5938
C63.2031 15.5938 59.5938 11.5 56.5938 9.29688
C56.2031 9 55.7969 8.70312 55.4062 8.40625" id="DFHeiStd-W5-59d4"/>
       <path d="
M50.2969 84.0938
C49.7969 84.0938 49.2031 83.7969 48.5 83.2969
C46.5 80.9062 44.2031 78.7969 41.7969 76.7969
C39.5938 74.9062 36.7031 73 33.2969 71
C28.0938 68 23 65.5 17.7969 63.5
C14.0938 62 9.40625 60.5 3.79688 59.0938
C3.29688 59 3.09375 58.9062 3.09375 58.7031
C3.09375 58.4062 3.40625 58 4.09375 57.5938
C5.29688 56.5938 6.40625 55.2969 7.29688 53.7969
C7.70312 53.0938 8.29688 52.7969 8.90625 52.7969
C11.2969 53.5 14.5938 54.7031 18.7031 56.4062
C22.2969 57.9062 25.9062 59.5938 29.5938 61.5
L29.5938 58.2969
C29.5938 57.2969 29.7969 56.7969 30.4062 56.7969
L70.2969 56.7969
C70.7031 56.7969 71 57.2969 71 58.2969
L71 61
C77.2031 57.5938 83.7031 55 90.5938 53.2031
C91.2031 53.2031 91.7031 53.4062 92 53.7969
C92.7969 54.7969 94.0938 56 96.0938 57.5938
C96.5 57.7969 96.7969 58.2031 96.7969 58.7031
C91.7031 59.4062 86.5 60.9062 81.2031 63.0938
C76.5 64.9062 71.7031 67.2969 66.9062 70.2031
C63.7031 72 60.2031 74.5 56.2031 77.7969
L57 77.7969
C58.2031 77.7969 58.9062 78.2031 58.9062 79
C58.9062 79.4062 58.5938 79.7969 58 80.2969
z

M31.7969 62.5938
C35.2031 64.4062 38.2031 66.2969 40.7969 68.0938
C43.7969 70 47 72.2969 50.4062 75.0938
C56.7969 69.7031 61.9062 65.9062 65.7969 63.9062
C66.5 63.4062 67.2969 63 68.0938 62.5938
z

M16.4062 51.7031
C15.2969 51.7031 14.7969 51.2969 14.7969 50.5
L14.7969 29.4062
C14.7969 28.5938 15.2969 28.2031 16.4062 28.2031
L84.2969 28.2031
C85.2969 28.2031 85.9062 28.5938 85.9062 29.4062
L85.9062 50.5
C85.9062 51.2969 85.2969 51.7031 84.2969 51.7031
z

M78.9062 34.0938
L69.9062 34.0938
C70.7031 36.0938 71.5 38.5 72.2969 41.2969
C72.4062 41.9062 72.7031 42.2031 73.2031 42.2031
C73.5938 42.4062 73.7969 42.7031 73.7969 43.0938
C73.7969 43.5938 73.2969 44 72.5 44.4062
L69.0938 45.7969
L78.9062 45.7969
z

M62.4062 34.0938
L53.5 34.0938
L53.5 45.7969
L66.5938 45.7969
L66.5938 45.5938
C66.2031 43.4062 65.5 41.2031 64.5938 39
C64 37.5938 63.2969 35.9062 62.4062 34.0938
M46.4062 34.0938
L38.5 34.0938
C38 35.7969 37.4062 37.5 36.7969 39.0938
C36 41.0938 34.9062 43.2969 33.5938 45.7969
L46.4062 45.7969
z

M31.9062 34.0938
L21.7969 34.0938
L21.7969 45.7969
L31.5938 45.7969
C29.2031 44.5938 28.0938 43.7969 28.0938 43.5
C29.4062 41 30.5 38.5 31.2969 36
C31.5 35.4062 31.7031 34.7031 31.9062 34.0938
M23.4062 24.2969
C22.2969 24.2969 21.7969 23.9062 21.7969 23.2031
L21.7969 -8.09375
C21.7969 -8.90625 22.2969 -9.29688 23.4062 -9.29688
L27.2969 -9.29688
C28.2969 -9.29688 28.9062 -8.90625 28.9062 -8.09375
L28.9062 -6.09375
L71.7969 -6.09375
L71.7969 -8.09375
C71.7969 -8.90625 72.2969 -9.29688 73.4062 -9.29688
L77.2969 -9.29688
C78.2969 -9.29688 78.9062 -8.90625 78.9062 -8.09375
L78.9062 23.2031
C78.9062 23.9062 78.2969 24.2969 77.2969 24.2969
z

M28.9062 -0.296875
L28.9062 6.40625
L71.7969 6.40625
L71.7969 -0.296875
z

M28.9062 11.4062
L28.9062 18.5
L71.7969 18.5
L71.7969 11.4062
z
" id="DFHeiStd-W5-6703"/>
      </defs>
      <g style="fill:#555555;" transform="translate(54.6296875 181.125)scale(0.1 -0.1)">
       <use xlink:href="#DFHeiStd-W5-8fb2"/>
       <use x="99.99998474121094" xlink:href="#DFHeiStd-W5-59d4"/>
       <use x="199.99996948242188" xlink:href="#DFHeiStd-W5-6703"/>
      </g>
     </g>
    </g>
    <g id="ytick_4">
     <g id="line2d_28">
      <path clip-path="url(#p9f76a1e9e4)" d="
M90 152.8
L648 152.8" style="fill:none;stroke:#000000;stroke-dasharray:1.000000,3.000000;stroke-dashoffset:0.0;stroke-width:0.5;"/>
     </g>
     <g id="line2d_29">
      <g>
       <use style="fill:#555555;stroke:#555555;stroke-width:0.5;" x="90.0" xlink:href="#m1d870bcb37" y="152.8"/>
      </g>
     </g>
     <g id="line2d_30">
      <g>
       <use style="fill:#555555;stroke:#555555;stroke-width:0.5;" x="648.0" xlink:href="#m1d870bcb37" y="152.8"/>
      </g>
     </g>
     <g id="text_10">
      <!-- 原能會 -->
      <defs>
       <path d="
M19.5 72.7969
L54.7031 72.7969
C54.5938 72.7969 54.5 72.5938 54.5 72.4062
C53 69.4062 51.2969 66.9062 49.5 64.9062
C48.9062 64.2031 48.0938 63.4062 47.0938 62.5938
L29.2031 62.5938
C28.2031 62.5938 27.7031 62 27.7031 61
L27.7031 22.7969
C27.7031 22 28.2031 21.5938 29.2031 21.5938
L33.2031 21.5938
C34.2031 21.5938 34.7031 22 34.7031 22.7969
L34.7031 25.5
L53.9062 25.5
L53.9062 0.09375
C53.9062 -2.20312 52 -3.40625 48.4062 -3.40625
C46.7031 -3.40625 45 -3.09375 43.2969 -2.59375
L43.2969 -3
C44.2969 -5 44.7969 -6.70312 45 -8.20312
C45 -9.40625 45.2031 -10 45.7031 -10
L48.7969 -10
C56.7969 -10 60.9062 -7.5 60.9062 -2.59375
L60.9062 25.5
L78.0938 25.5
L78.0938 22.7969
C78.0938 22 78.5938 21.5938 79.5938 21.5938
L83.5 21.5938
C84.5 21.5938 85.0938 22 85.0938 22.7969
L85.0938 61.4062
C85.0938 62.2031 84.5 62.5938 83.5 62.5938
L56.4062 62.5938
C57.7031 64 58.9062 65.4062 60 66.7969
C60.5938 67.5 61.5 67.9062 62.7969 68.0938
C63.7969 68.4062 64.4062 68.7969 64.4062 69.2969
C64.4062 69.5 61.7031 70.5938 56.4062 72.7969
L93.7031 72.7969
C94.5 72.7969 94.9062 73.2969 94.9062 74.2969
L94.9062 77.5
C94.9062 78.5 94.5 79 93.7031 79
L14 79
C13 79 12.5 78.5 12.5 77.5
L12.5 50.5
C12.5 41 12.0938 33 11.4062 26.4062
C10.7969 20.0938 9.70312 14.0938 8.29688 8.40625
C6.90625 2.90625 5.29688 -1.40625 3.5 -4.59375
C3.5 -5.09375 3.59375 -5.5 3.90625 -5.90625
C5.20312 -6.70312 6.40625 -7.59375 7.5 -8.70312
C7.70312 -8.79688 8.09375 -8.90625 8.5 -8.90625
C10.5938 -5.40625 12.2031 -1.79688 13.4062 1.79688
C15.5 8 17 14.2031 17.7969 20.4062
C18.9062 27.7969 19.5 37.7969 19.5 50.5
z

M34.7031 31.7969
L34.7031 41.0938
L78.0938 41.0938
L78.0938 31.7969
z

M34.7031 47.4062
L34.7031 56.4062
L78.0938 56.4062
L78.0938 47.4062
z

M40.2031 17.2969
C39.7969 17.2969 39.4062 17 39.0938 16.5938
C37.5 14.2031 35.7031 11.9062 33.7031 9.90625
C31.5938 7.70312 29.2031 5.79688 26.5 4
C24.0938 2.29688 21.0938 0.796875 17.5 -0.59375
C17.2031 -0.703125 17.0938 -0.90625 17.0938 -1.09375
C17.0938 -1.40625 17.4062 -1.70312 18 -2
C18.7969 -3 19.7969 -4 20.7969 -5.20312
C21.0938 -5.79688 21.7031 -6.09375 22.5938 -6.09375
C25.5938 -4.59375 27.9062 -3.29688 29.7031 -2.09375
C32.5938 -0.203125 35.2969 2 37.9062 4.59375
C40.2031 7 42 8.90625 43.2969 10.4062
C43.7031 11 44.2969 11.4062 44.9062 11.4062
C45.9062 11.4062 46.4062 11.5938 46.4062 12.2031
C46.4062 12.7031 44.2969 14.4062 40.2031 17.2969
M75.7031 17.2969
C75.2969 17.2969 74.9062 17 74.5 16.5
C72.0938 13.7031 71 12.2031 71 11.7969
C71 11.5 71.2031 11.2031 71.7969 10.9062
C77.4062 6.79688 83.2031 1.40625 89.4062 -5.20312
C89.7031 -5.5 90.0938 -5.70312 90.5938 -5.70312
C91.0938 -5.70312 92.5938 -4.5 95 -2.20312
C95.4062 -2 95.7031 -1.70312 95.7031 -1.5
C95.7031 -0.90625 95.4062 -0.40625 94.7969 -0.09375
C89 6.09375 82.5938 11.9062 75.7031 17.2969" id="DFHeiStd-W5-539f"/>
       <path d="
M23 82.5
C22.5938 82.5 22.4062 82.2969 22.4062 82.0938
C21.5938 79.5938 20.7031 77 19.5 74.4062
C17.0938 69.4062 14.5 64.7031 11.5938 60.0938
C9 59.9062 6.5 59.7031 3.90625 59.5
C6.5 53.5 8.09375 50.5 8.90625 50.5
C9.70312 50.5 10.2031 51 10.5 52.0938
C10.7969 52.7031 11.2969 53 11.9062 53
C23.7031 54.2031 34.5 55.5938 44.2969 57.2031
C45.0938 54.2969 45.7031 51.7969 46 49.7031
C50.2031 50.7031 52.2969 51.4062 52.2969 51.7031
C51.2969 55.5938 50.2031 59.2969 49 62.9062
C47.5938 66.7031 45.9062 70.9062 43.7031 75.5
C40.2969 73.7969 38.5938 72.7969 38.5938 72.4062
C40 69.5 41.2031 66.5938 42.2969 63.7031
C34.7031 62.5 27 61.5 19.4062 60.7969
C20.4062 62 21.4062 63.4062 22.4062 65
C25.2969 69.2969 27.7031 73.2031 29.5938 76.7031
C29.5938 77.2969 30 77.5938 31 77.5938
C31.9062 77.5938 32.4062 77.9062 32.4062 78.5938
C32.4062 79.2031 29.2031 80.5 23 82.5
M12.0938 47
C11 47 10.5 46.4062 10.5 45.4062
L10.5 -7.70312
C10.5 -8.5 11 -8.90625 12.0938 -8.90625
L16 -8.90625
C17 -8.90625 17.5 -8.5 17.5 -7.70312
L17.5 8.70312
L40.5938 8.70312
L40.5938 2.09375
C40.5938 1.09375 40.0938 0.40625 39.0938 0
C38.2969 -0.40625 35.5938 -0.703125 31.2031 -0.703125
C30.5938 -0.703125 30.4062 -0.796875 30.4062 -1.09375
C31.7969 -3.79688 32.5 -5.90625 32.7031 -7.29688
C32.7969 -8.09375 33.2031 -8.5 33.9062 -8.5
C37.9062 -8.09375 41.0938 -7.59375 43.7031 -6.79688
C46.2969 -5.59375 47.5938 -4.09375 47.5938 -2.09375
L47.5938 45.4062
C47.5938 46.4062 46.9062 47 45.7031 47
z

M17.5 15
L17.5 24.7031
L40.5938 24.7031
L40.5938 15
z

M17.5 31
L17.5 40.7031
L40.5938 40.7031
L40.5938 31
z

M91 68.9062
L93.2969 68.5
C93.7969 68.5 94.0938 68.7031 94.0938 69.2969
C94.0938 69.5 92.5938 71.4062 89.7031 75
C89.2969 75.5938 89 75.9062 88.5938 75.9062
C88.4062 75.9062 88.2969 75.7969 88.2031 75.7969
C86.4062 74.2031 84.4062 72.7031 82.2031 71.5
C79.2031 69.7031 76.0938 68.2031 72.7969 67.0938
C70.2031 66.2031 67.4062 65.4062 64.4062 64.7031
L64.4062 78.2031
C64.4062 78.9062 64.7031 79.2969 65.2969 79.4062
C65.7031 79.5 66 79.9062 66 80.5938
C66 80.9062 65.5938 81.0938 64.7969 81.2969
L58.2031 82.0938
C57.5938 82.0938 57.4062 81.7031 57.4062 81
L57.4062 47.4062
C57.4062 42.5938 61.2969 40.2969 69.0938 40.2969
L85.5 40.2969
C88.7031 40.2969 90.7969 40.9062 91.7969 42.2969
C92.7969 42.9062 94.2031 46 96 51.7031
C96 52.2969 95.5 52.7031 94.7031 53.0938
C92.7969 54.2031 91.4062 55.4062 90.5938 56.7969
C89.2031 51.7969 88.0938 49 87.2031 48.4062
C86.4062 47.4062 84.2031 47 80.4062 47
L69.9062 47
C66.2031 47 64.4062 48.4062 64.4062 51.2969
L64.4062 58.2969
C68 59.0938 71.0938 60 73.5938 60.7969
C77.0938 61.9062 80.4062 63.2031 83.5938 64.7031
C86.0938 65.9062 88.4062 67.2969 90.5 68.7031
C90.5938 68.7969 90.7969 68.9062 91 68.9062
M92.0938 22
L94.5 21.5938
C95 21.5938 95.2969 21.7969 95.2969 22.4062
C95.2969 22.5938 93.7969 24.5 90.9062 28.0938
C90.5 28.7031 90.0938 29 89.7969 29
L89.2969 29
C87.5 27.4062 85.4062 25.9062 83.2031 24.7031
C80.0938 23 76.7969 21.5938 73.2969 20.5
C70.5938 19.7031 67.5938 18.9062 64.4062 18.2031
L64.4062 32.0938
C64.4062 32.7969 64.7031 33.2031 65.2969 33.2969
C65.7031 33.4062 66 33.7969 66 34.5
C66 34.7969 65.5938 35 64.7969 35.2031
L58.2031 36
C57.5938 36 57.4062 35.5938 57.4062 34.9062
L57.4062 -0.703125
C57.4062 -5.29688 61.2969 -7.70312 69.0938 -7.70312
L85.5 -7.70312
C88.7031 -7.70312 90.7969 -7 91.7969 -5.59375
C92.7969 -5 94.2031 -1.59375 96 4.40625
C96 5 95.5 5.40625 94.7031 5.79688
C92.7969 6.90625 91.4062 8.09375 90.5938 9.5
C89.2031 4.20312 88.0938 1.20312 87.2031 0.40625
C86.4062 -0.59375 84.2031 -1.09375 80.4062 -1.09375
L69.9062 -1.09375
C66.2031 -1.09375 64.4062 0.296875 64.4062 3.20312
L64.4062 11.7969
C68.2031 12.5938 71.4062 13.4062 74 14.2031
C77.7031 15.2031 81.2031 16.5 84.5 18
C87.0938 19.2031 89.4062 20.4062 91.5938 21.7969
C91.7969 21.9062 91.9062 22 92.0938 22" id="DFHeiStd-W5-80fd"/>
      </defs>
      <g style="fill:#555555;" transform="translate(54.6703125 156.2453125)scale(0.1 -0.1)">
       <use xlink:href="#DFHeiStd-W5-539f"/>
       <use x="99.99998474121094" xlink:href="#DFHeiStd-W5-80fd"/>
       <use x="199.99996948242188" xlink:href="#DFHeiStd-W5-6703"/>
      </g>
     </g>
    </g>
    <g id="ytick_5">
     <g id="line2d_31">
      <path clip-path="url(#p9f76a1e9e4)" d="
M90 128
L648 128" style="fill:none;stroke:#000000;stroke-dasharray:1.000000,3.000000;stroke-dashoffset:0.0;stroke-width:0.5;"/>
     </g>
     <g id="line2d_32">
      <g>
       <use style="fill:#555555;stroke:#555555;stroke-width:0.5;" x="90.0" xlink:href="#m1d870bcb37" y="128.0"/>
      </g>
     </g>
     <g id="line2d_33">
      <g>
       <use style="fill:#555555;stroke:#555555;stroke-width:0.5;" x="648.0" xlink:href="#m1d870bcb37" y="128.0"/>
      </g>
     </g>
     <g id="text_11">
      <!-- 外交部 -->
      <defs>
       <path d="
M47.5938 81
C46.5 81 46 80.5938 46 79.7969
L46 69.2969
L7 69.2969
C6.20312 69.2969 5.79688 68.7031 5.79688 67.7031
L5.79688 64.5938
C5.79688 63.5 6.20312 63 7 63
L92.9062 63
C93.7031 63 94.0938 63.5 94.0938 64.5938
L94.0938 67.7031
C94.0938 68.7031 93.7031 69.2969 92.9062 69.2969
L53.5 69.2969
L53.5 76.2969
C53.5 77.5 53.7969 78.2031 54.4062 78.2969
C55 78.4062 55.4062 78.9062 55.4062 79.7969
C55.4062 80.5938 52.7969 81 47.5938 81
M32.7969 59.0938
C32.4062 59.0938 32.0938 58.7969 31.9062 58.2969
C29.0938 54.7969 26.5938 51.9062 24.2031 49.7031
C21.4062 46.9062 18.2031 44.4062 14.5 42.2031
C12.7031 40.9062 10.5938 39.9062 8 39.0938
C7.59375 38.7969 7.40625 38.5938 7.40625 38.4062
C7.40625 38 7.59375 37.7969 8.20312 37.5938
C9.20312 36.5938 10.4062 35.5938 11.9062 34.5938
C12.0938 34 12.7031 33.7031 13.5938 33.7031
C19.2031 36.7031 23.7969 39.7969 27.4062 42.9062
C30.4062 45.5 33.2031 48.4062 35.9062 51.7031
C36.5 52.0938 37.2969 52.5 38.4062 52.7031
C39 52.7031 39.4062 52.7969 39.4062 53.2031
C39.4062 53.5938 39.0938 54.0938 38.5938 54.7031
z

M64.7969 58.7031
C64.5938 58.7031 64.2031 58.4062 63.7969 57.7969
C61.2969 55 60.0938 53.5938 60.0938 53.5938
C69.2969 45.2031 78.5938 38.5 87.7969 33.2969
C88.0938 33.2969 89.2031 34.7969 91.0938 37.9062
C91.5 38.4062 91.7031 38.7969 91.7031 39.2031
C82.4062 44.2031 73.4062 50.7031 64.7969 58.7031
M65.5938 40.2969
C63.7969 35.5 62 31.2969 60 27.7031
C58.2031 24.5 55.9062 21.4062 53.2969 18.5
C51.9062 16.7031 50.2969 15.0938 48.4062 13.7031
C47.7969 14.0938 47.0938 14.5938 46.5 15.2031
C42.5 18.4062 39.4062 21.7969 37.2031 25.2969
C34.7031 28.7969 32.5938 33.4062 30.7969 39.2031
C26.4062 37.7969 24.2031 37 24.2031 36.7969
C27.5938 28.4062 30.7969 22.2031 33.9062 18.2969
C36.2031 15.2969 39 12.4062 42.2031 9.70312
C39.7031 8.09375 36.4062 6.5 32.4062 4.79688
C27.4062 2.90625 22.9062 1.40625 18.7969 0.40625
C14.5938 -0.796875 10.5 -1.5 6.59375 -1.5
C6.59375 -1.90625 6.90625 -2.29688 7.40625 -2.79688
C8.79688 -4.40625 9.90625 -6 10.7031 -7.40625
C11 -8.09375 11.5 -8.5 12.0938 -8.5
C18.4062 -7.29688 24.2031 -5.70312 29.4062 -3.90625
C34.9062 -1.90625 39.5938 0 43.5938 1.90625
C45.4062 2.90625 47.0938 3.90625 48.7031 4.90625
C51.5938 3 54.7969 1.29688 58.2031 -0.203125
C62.5938 -2.20312 67.5938 -3.90625 73.0938 -5.29688
C77.9062 -6.40625 83.5938 -7.29688 90.2031 -8.09375
C90.5 -8.09375 90.7031 -7.70312 90.9062 -6.90625
C91.5 -5.29688 92.0938 -3.59375 92.9062 -2
C93.4062 -1.29688 93.7031 -0.703125 93.7031 -0.296875
C88.4062 -0.296875 83.5 0.203125 79 1.29688
C72.4062 2.5 66.2969 4.20312 60.7031 6.5
C58.5938 7.29688 56.5938 8.29688 54.5938 9.5
C57.2031 11.9062 59.7031 14.5938 61.9062 17.7031
C64.5 21.0938 67.4062 26.2031 70.7031 32.9062
C71 34.2031 71.7031 34.9062 72.7031 35
C73.7031 35.0938 74.2031 35.4062 74.2031 36
C74.2031 36.2031 71.2969 37.7031 65.5938 40.2969" id="DFHeiStd-W5-4ea4"/>
       <path d="
M29.2031 82.0938
C28.7969 82.0938 28.4062 81.7031 28.0938 81
C26.4062 74 24.7031 68.2031 22.9062 63.7969
C21.2969 59.5 19.2969 55.5 17.0938 51.7969
C13.4062 45.2031 9.20312 39.7031 4.40625 35.2969
C4 35 3.90625 34.5938 3.90625 34.0938
C3.90625 33.9062 4.09375 33.5938 4.5 33.4062
C5.90625 32.9062 7.20312 32.4062 8.59375 31.7969
C9.20312 31.5 10 31.4062 10.9062 31.4062
C13.9062 34.4062 16.7031 37.9062 19.4062 41.7031
C22 46 24.5 50.5938 26.9062 55.4062
C27.5 56.5938 28.0938 58.0938 28.7969 59.9062
L47.7031 59.9062
C46.5 53.5 45.2969 48.4062 44.0938 44.5938
C42.5 38.5938 40.5 33.2969 38.2969 28.5938
C38.2031 28.4062 38.0938 28.2031 38 28
C34.0938 31.2969 29.9062 34.5 25.2969 37.5938
C24.9062 37.5938 24.5 37.2969 24.0938 36.7969
C21.7969 34 20.7031 32.5 20.7031 32.0938
C20.7031 31.9062 20.7969 31.7969 21.2031 31.5938
C25.4062 29.0938 29.7031 25.7969 34.2031 21.7969
C32.7031 19.4062 31 17.2031 29.0938 15
C25.5 10.5938 21.0938 6.90625 15.7031 4
C12.7031 2.40625 9.79688 1 6.79688 0
C6.40625 -0.09375 6.20312 -0.5 6.20312 -1.09375
C6.20312 -1.29688 6.40625 -1.70312 6.79688 -2.09375
C7.59375 -3.20312 8.40625 -4.40625 9.20312 -5.59375
C9.59375 -6.20312 10.2969 -6.5 11.2969 -6.5
C16.0938 -4.70312 20.0938 -2.59375 23.0938 -0.296875
C27.5938 2.70312 31.7031 6.40625 35.4062 11
C38.7969 15 41.5938 19.2031 43.7969 23.5
C46 27.7969 48.0938 33.2969 50.2031 40
C51.9062 45.0938 53.7969 52.5 55.7969 62.2031
C55.7969 62.5938 55.0938 63.7031 53.7031 65.5
C53.2031 65.9062 52.5938 66.0938 51.9062 66.0938
L31.0938 66.0938
C32 68.7031 33 71.5938 34.0938 74.9062
C34.2969 76.0938 35.0938 76.7031 36.2969 76.7031
C37.0938 76.9062 37.5 77.4062 37.5 78.2031
C37.5 78.5938 37.0938 79 36.2969 79.5938
z

M70.2969 81.4062
C69.2031 81.4062 68.7031 81 68.7031 80.2031
L68.7031 -8.09375
C68.7031 -8.90625 69.2031 -9.29688 70.2969 -9.29688
L74.2031 -9.29688
C75.2031 -9.29688 75.7031 -8.90625 75.7031 -8.09375
L75.7031 41.4062
C80.2969 36.7969 85 31.2031 90 24.7031
C90.4062 24.0938 90.9062 23.9062 91.4062 23.9062
C91.7969 23.9062 93.2969 25.0938 95.7969 27.5
C96.2031 27.7031 96.4062 27.9062 96.4062 28.2031
C96.4062 28.9062 96.0938 29.5 95.5 30
C89.5 37.7031 82.9062 44.9062 75.7031 51.7031
L75.7031 76.7031
C75.7031 77.9062 76 78.5938 76.7031 78.7031
C77.2969 78.7969 77.7031 79.2969 77.7031 80.2031
C77.7031 81 75.2031 81.4062 70.2969 81.4062" id="DFHeiStd-W5-5916"/>
      </defs>
      <g style="fill:#555555;" transform="translate(54.8203125 131.33046875)scale(0.1 -0.1)">
       <use xlink:href="#DFHeiStd-W5-5916"/>
       <use x="99.99998474121094" xlink:href="#DFHeiStd-W5-4ea4"/>
       <use x="199.99996948242188" xlink:href="#DFHeiStd-W5-90e8"/>
      </g>
     </g>
    </g>
    <g id="ytick_6">
     <g id="line2d_34">
      <path clip-path="url(#p9f76a1e9e4)" d="
M90 103.2
L648 103.2" style="fill:none;stroke:#000000;stroke-dasharray:1.000000,3.000000;stroke-dashoffset:0.0;stroke-width:0.5;"/>
     </g>
     <g id="line2d_35">
      <g>
       <use style="fill:#555555;stroke:#555555;stroke-width:0.5;" x="90.0" xlink:href="#m1d870bcb37" y="103.2"/>
      </g>
     </g>
     <g id="line2d_36">
      <g>
       <use style="fill:#555555;stroke:#555555;stroke-width:0.5;" x="648.0" xlink:href="#m1d870bcb37" y="103.2"/>
      </g>
     </g>
     <g id="text_12">
      <!-- 法務部 -->
      <defs>
       <path d="
M13.5938 79.7969
C13.4062 79.7969 13.0938 79.5 12.7969 79.0938
C10.7031 76.5 9.70312 75.0938 9.70312 74.7031
C11.7031 73.9062 14.2031 72.7031 17.2031 71
C20.9062 68.7969 24.4062 66.4062 27.7031 63.7969
C27.7031 63.7969 28.7031 65.2031 30.7031 68
C31 68.4062 31.2031 68.7031 31.2031 68.9062
C29 70.5 26.5 72.4062 23.5 74.4062
C20.9062 76 17.5938 77.7969 13.5938 79.7969
M8.5 57.0938
C8.29688 57.0938 8 56.9062 7.70312 56.5
C5.59375 53.9062 4.59375 52.4062 4.59375 52.0938
C6.70312 51.2969 9.29688 50.2031 12.5 48.5938
C16.2969 46.5938 20 44.2969 23.4062 41.9062
C23.4062 41.9062 24.4062 43.2969 26.4062 46.2031
C26.7031 46.5938 26.9062 46.7969 26.9062 47
C24.7031 48.5 22 50.2031 18.7969 52.2031
C16.0938 53.7031 12.7031 55.2969 8.5 57.0938
M25.7031 35.2969
C25.5 35.2969 25.2031 35 25 34.4062
C23.2969 30.5938 21.2969 26.4062 19 21.7969
C16.2969 16.5 13.5938 11.7969 10.7969 7.59375
C8.79688 4.5 6.70312 2 4.70312 0
C4.29688 -0.40625 4.20312 -0.90625 4.20312 -1.5
C4.29688 -2 4.5 -2.40625 4.90625 -2.59375
C8.59375 -6.79688 10.7031 -8.90625 11.2969 -8.90625
C11.7969 -8.90625 12.0938 -8.5 12.0938 -7.70312
C12.0938 -6.09375 12.2969 -4.90625 12.7031 -4
C15.0938 -0.203125 17.0938 3.29688 18.7031 6.5
C21.7031 12.0938 24.9062 19 28.2969 27.0938
C28.7031 27.5 28.9062 28 28.9062 28.5938
C28.9062 28.7969 28 30.7969 26.4062 34.4062
C26.2031 35 26 35.2969 25.7031 35.2969
M37.5 64.5938
C36.7031 64.5938 36.2969 64 36.2969 63
L36.2969 59.9062
C36.2969 58.7969 36.7031 58.2969 37.5 58.2969
L60.0938 58.2969
L60.0938 40.2969
L33.9062 40.2969
C33.0938 40.2969 32.7969 39.7969 32.7969 38.7969
L32.7969 35.7031
C32.7969 34.5938 33.0938 34.0938 33.9062 34.0938
L94.0938 34.0938
C94.9062 34.0938 95.2969 34.5938 95.2969 35.7031
L95.2969 38.7969
C95.2969 39.7969 94.9062 40.2969 94.0938 40.2969
L67.0938 40.2969
L67.0938 58.2969
L91.4062 58.2969
C92.0938 58.2969 92.5 58.7969 92.5 59.9062
L92.5 63
C92.5 64 92.0938 64.5938 91.4062 64.5938
L67.0938 64.5938
L67.0938 77.5
C67.0938 78.7031 67.4062 79.4062 68.0938 79.5
C68.7031 79.5938 69.0938 80.0938 69.0938 81
C69.0938 81.7031 66.5938 82.0938 61.7031 82.0938
C60.5938 82.0938 60.0938 81.7031 60.0938 81
L60.0938 64.5938
z

M57.7969 33.2969
C57.2031 33.2969 56.7031 33 56.5 32.5
C55.0938 28.5 53.2969 24.4062 51.2031 20.2969
C49.7031 17.5 46.2969 11.7031 41 3
C37.2969 2.70312 34 2.5 31.2031 2.5
C32.5938 -4.79688 33.7031 -8.5 34.7031 -8.5
C35.5 -8.5 36 -7.90625 36.2969 -6.90625
C36.5 -6.09375 37.0938 -5.70312 37.9062 -5.70312
C45.2031 -4.79688 61 -2.40625 85.2969 1.5
C87.0938 -2.59375 88.4062 -6.20312 89 -9.29688
C93.5938 -8 96 -7.20312 96 -6.90625
C94.2969 -1.5 92.2031 3.5 89.7031 8.29688
C87.0938 13.5 83.7969 19.2969 79.5938 25.5
C75.7031 23.5938 73.7969 22.4062 73.7969 22
C77.2969 17.0938 80.2969 12.0938 82.7031 7.09375
C69.5 5.5 58.0938 4.40625 48.7031 3.59375
C55.0938 13.2969 60.0938 20.9062 63.7031 26.2969
C64 27 64.7969 27.4062 66 27.5
C66.7031 27.5 67.0938 27.7031 67.0938 28.2031
C67.0938 28.7969 64.4062 30.4062 59.2031 33
C58.7031 33.2031 58.2031 33.2969 57.7969 33.2969" id="DFHeiStd-W5-6cd5"/>
       <path d="
M8.5 77.5
C7.70312 77.5 7.40625 76.9062 7.40625 75.9062
L7.40625 72.7969
C7.40625 71.7031 7.70312 71.2031 8.5 71.2031
L34.5 71.2031
L25.2969 59.2969
C22.5938 61.0938 19.2031 63.0938 15.2031 65.2969
C14.9062 65.2969 14.5938 65.0938 14.4062 64.7031
C12.2969 62.0938 11.2969 60.5938 11.2969 60.2969
C13.5 59.2969 16.2031 57.7969 19.5938 55.5938
C23 53.2031 26.4062 50.5938 29.7969 47.7969
L6.59375 47.7969
C5.79688 47.7969 5.40625 47.2031 5.40625 46.2031
L5.40625 43.0938
C5.40625 42 5.79688 41.5 6.59375 41.5
L23.5938 41.5
C22.0938 36.7031 20.7969 33.2031 19.5938 31
C18.0938 27.5 16.0938 23.9062 13.5 20.2969
C10.9062 16.2969 7.40625 12.2969 3.09375 8.29688
C3.09375 7.90625 3.40625 7.79688 4 7.79688
C5.40625 7.09375 6.90625 6.40625 8.40625 5.70312
C8.70312 5.29688 9.29688 5.20312 10.0938 5.20312
C13.2969 8.40625 16.0938 11.7969 18.5 15.5
C20.9062 19 23.0938 23 25.2969 27.4062
L25.2969 1.70312
C25.2969 -0.59375 23.5 -1.79688 19.9062 -1.79688
C17.9062 -1.79688 15.7969 -1.40625 13.5938 -0.703125
L13.5938 -1.09375
C14.5938 -3 15.0938 -4.70312 15.2969 -6.20312
C15.2969 -7.40625 15.5 -8.09375 16 -8.09375
L20.2969 -8.5
C28.2969 -8.5 32.4062 -6 32.4062 -1.09375
L32.4062 41.5
L41.2031 41.5
L36.2969 29.4062
C36.2969 28.5938 38.0938 27.7031 41.7031 26.7031
C41.9062 26.7031 42.0938 26.7969 42.2969 27.2031
L49.2031 44.5938
C49.2031 45.2031 48.5 46.0938 47.0938 47.2969
C46.7969 47.5938 46.2031 47.7969 45.2969 47.7969
L32.0938 47.7969
C32.5 48.4062 33.2031 49.4062 34.2031 50.7969
C34.5 51.2031 34.7031 51.5 34.7031 51.7031
C33.4062 52.7031 32 53.9062 30.5 55.2969
L44.9062 74.2969
C44.9062 74.9062 44.2031 75.7969 42.7969 77
C42.5 77.2969 41.9062 77.5 41 77.5
z

M60.0938 82.9062
C59.5 82.9062 59.0938 82.2031 58.7031 80.9062
C57.2969 76.5 55.2969 72 52.5938 67.5938
C50.7969 64.2031 48 60.2031 44.2969 55.7031
C43.9062 55.0938 43.7031 54.7031 43.7031 54.4062
C43.7031 54.2969 43.9062 54.2031 44.4062 54
C45.5 53.4062 46.7031 52.9062 48 52.2969
C48.5938 51.9062 49.0938 51.7031 49.5938 51.7031
C50 51.7031 50.7031 52.2031 51.5938 53.4062
C53.2031 55.7969 54.9062 58.5938 56.5938 62
C57.5 59.5 58.5 57.2969 59.7031 55.5
C60.7969 52.7031 62.5938 50.0938 65.0938 47.5938
C65.5 47.2031 65.9062 46.7031 66.4062 46.2969
C65.4062 45.5 64.4062 44.7031 63.2969 44.0938
C61.5 42.9062 59.5 41.9062 57.4062 41
C55.2031 40.0938 52.7031 39.4062 50 38.9062
C49.7031 38.7031 49.5938 38.5 49.5938 38.4062
C49.5938 38.0938 49.7031 37.7969 50.0938 37.4062
C51.2031 36.2031 52.2969 34.9062 53.2969 33.5938
C53.7031 33.0938 54.0938 32.9062 54.5938 32.9062
C57 33.5938 59.4062 34.5 61.5938 35.5
C63.9062 36.5 66.2969 37.9062 68.9062 39.7031
C69.9062 40.2969 70.7969 41.0938 71.7969 41.9062
C72.2031 41.5938 72.5938 41.2969 73 41.0938
C75.7969 39.2969 79 37.5938 82.5938 36.2031
C85.4062 35.0938 88.0938 34.2031 90.5 33.5
C91.2969 33.0938 91.9062 32.9062 92.0938 32.9062
C92.2969 32.9062 92.7031 33.2031 93.2031 33.7969
C94.4062 35.0938 95.5 36.2969 96.7031 37.2969
C97 37.5938 97.2031 38 97.2031 38.4062
C97.2031 38.5 96.9062 38.7031 96.2969 38.9062
C91.2969 39.9062 87.2031 41.2031 84 42.7031
C81.0938 43.7969 78.5938 45.0938 76.4062 46.7031
C78.0938 48.5938 79.5 50.5938 80.7031 52.5938
C82.0938 54.9062 83.4062 57.5938 84.4062 60.7969
C84.7969 62.2969 85.2969 63.9062 85.7969 65.7031
L92.9062 65.7031
C93.7031 65.7031 94.0938 66.2031 94.0938 67.2969
L94.0938 70.4062
C94.0938 71.4062 93.7031 72 92.9062 72
L61.2031 72
C61.5938 73.0938 62.0938 74.2969 62.5938 75.5938
C63 76.9062 63.7969 77.5938 65.2031 77.5938
C66.2031 77.9062 66.7031 78.5 66.7031 79.4062
C66.7031 79.9062 66.2031 80.2969 65.4062 80.7031
z

M62.2031 65.7031
L79.5 65.7031
C79.0938 64.2969 78.5938 63.0938 78.2031 62
C77.4062 59.9062 76.2969 58 75.0938 56.2031
C73.9062 54.2031 72.5938 52.4062 71.2031 50.7969
C70.4062 51.4062 69.7031 52.0938 69.0938 52.9062
C67 55.2969 65.2969 57.9062 64.0938 60.7969
C63.2969 62.2031 62.7031 63.7969 62.2031 65.7031
M48 26.7031
C47.2031 26.7031 46.7969 26.2969 46.7969 25.5
L46.7969 21.5938
C46.7969 20.5 47.2031 20 48 20
L63.2969 20
C62.5938 17.2031 61.7031 14.7031 60.7031 12.7031
C59.0938 9.09375 56.9062 6 54.0938 3.5
C51.5938 0.90625 47.9062 -1.5 43.0938 -3.90625
C42.0938 -4.09375 41.7031 -4.5 41.7031 -5
C41.7031 -5.29688 42 -5.70312 42.7031 -6.20312
C43.9062 -6.79688 44.9062 -7.59375 45.7969 -8.40625
C46 -8.70312 46.5 -8.90625 47.2031 -8.90625
C52.4062 -6.70312 56.7969 -3.79688 60.4062 0
C63.5938 3.20312 66.2031 7.5 68.2969 13.0938
C69 15 69.5938 17.2969 70.0938 20
L83.7031 20
C83.4062 15 83.0938 11.2031 82.7031 8.79688
C82.2031 5.09375 81.5938 2.59375 80.7969 1.29688
C80 -0.296875 78.5 -1.09375 76.0938 -1.09375
C73.5 -1.09375 70.5938 -0.703125 67.5 0.09375
L67.5 -0.703125
C68.7969 -2.79688 69.5938 -4.70312 70 -6.29688
C70.0938 -7.70312 72.0938 -8.5 76.0938 -8.5
C81.4062 -8.5 84.7031 -7.20312 85.9062 -4.79688
C87.2031 -2.5 88.2031 0.90625 89 5.70312
C89.5938 9.59375 90 16.0938 90.2031 25.0938
C90.2031 26.0938 89.7969 26.7031 89 26.7031
L71 26.7031
C71.0938 28.0938 71.2031 29.5938 71.4062 31.4062
C71.4062 32.5938 71.7969 33.2031 72.7969 33.2969
C73.7031 33.5 74.2031 34.0938 74.2031 35.2969
C74.2031 36 73.5938 36.4062 72.4062 36.4062
L66.4062 36.7969
C65.2969 36.7969 64.7969 36.2031 64.7969 35.2031
C64.7969 32.2031 64.5938 29.2969 64.4062 26.7031
z
" id="DFHeiStd-W5-52d9"/>
      </defs>
      <g style="fill:#555555;" transform="translate(54.85 106.55078125)scale(0.1 -0.1)">
       <use xlink:href="#DFHeiStd-W5-6cd5"/>
       <use x="99.99998474121094" xlink:href="#DFHeiStd-W5-52d9"/>
       <use x="199.99996948242188" xlink:href="#DFHeiStd-W5-90e8"/>
      </g>
     </g>
    </g>
    <g id="ytick_7">
     <g id="line2d_37">
      <path clip-path="url(#p9f76a1e9e4)" d="
M90 78.4
L648 78.4" style="fill:none;stroke:#000000;stroke-dasharray:1.000000,3.000000;stroke-dashoffset:0.0;stroke-width:0.5;"/>
     </g>
     <g id="line2d_38">
      <g>
       <use style="fill:#555555;stroke:#555555;stroke-width:0.5;" x="90.0" xlink:href="#m1d870bcb37" y="78.4"/>
      </g>
     </g>
     <g id="line2d_39">
      <g>
       <use style="fill:#555555;stroke:#555555;stroke-width:0.5;" x="648.0" xlink:href="#m1d870bcb37" y="78.4"/>
      </g>
     </g>
     <g id="text_13">
      <!-- 陸委會 -->
      <defs>
       <path d="
M8.20312 78.5938
C7.09375 78.5938 6.59375 78.2031 6.59375 77.5
L6.59375 -7.29688
C6.59375 -8.09375 7.09375 -8.5 8.20312 -8.5
L12.0938 -8.5
C13.0938 -8.5 13.5938 -8.09375 13.5938 -7.29688
L13.5938 72.7969
L29.2031 72.7969
L17.7969 49.2031
C17.5938 48.5938 17.5 48.0938 17.5 47.7969
C17.5 47.4062 17.7031 47 18.2031 46.5938
C21.7969 42.5938 24.5 38.4062 26.2969 34.0938
C27.7031 30.2031 28.5 26.7031 28.5 23.5
C28.5 20.2969 28 17.7969 27 16
C25.9062 13.7031 24.2031 12.5938 21.7969 12.5938
L17.0938 13.4062
C16.2969 13.4062 16 13 16 12.2031
C16.7031 11 17.2969 9.29688 17.7031 6.90625
C17.7031 5.70312 18.5 5.20312 20.2969 5.20312
C23.9062 5.20312 26.5938 5.79688 28.2031 7.09375
C30.5938 8.29688 32.4062 10.4062 33.7031 13.4062
C34.9062 16.2969 35.5 19.7031 35.5 23.5
C35.5 27.9062 34.5938 32.4062 32.9062 36.7969
C31.0938 41 28.9062 44.5938 26.2969 47.5938
C25.9062 48.0938 25.7031 48.5 25.7031 48.9062
C25.7031 49.2969 25.7969 49.7031 26.0938 50.2969
L37.0938 75.5
C37.0938 75.9062 36.2031 76.7969 34.5 78.0938
C33.9062 78.4062 33.0938 78.5938 32 78.5938
z

M41.4062 71.5938
C40.5938 71.5938 40.2031 71 40.2031 70
L40.2031 66.9062
C40.2031 65.7969 40.5938 65.2969 41.4062 65.2969
L61.7031 65.2969
L61.7031 53.5938
L37.7969 53.5938
C37 53.5938 36.7031 53.0938 36.7031 52.0938
L36.7031 48.9062
C36.7031 47.9062 37 47.4062 37.7969 47.4062
L52.2969 47.4062
C51.9062 44.4062 51.2031 41.9062 50.0938 40.0938
C49.0938 38.2969 47.7969 36.7969 46.0938 35.5938
C44.5 34.2969 42.2969 33.0938 39.4062 31.9062
C38.7969 31.7031 38.5938 31.5938 38.5938 31.4062
C38.5938 31 38.9062 30.5938 39.5 30.0938
C40.7031 29.4062 41.7969 28.7031 42.7031 27.9062
C42.9062 27.5938 43.4062 27.5 44.0938 27.5
C47.2031 28.5 49.7969 29.9062 51.9062 31.7031
C53.7969 33.2031 55.4062 35.2969 56.5938 38
C57.5938 39.9062 58.2031 42.7969 58.5 46.5938
C58.5 46.7969 58.5 47.0938 58.5938 47.4062
L69.9062 47.4062
L69.9062 34.0938
C69.9062 30.9062 71.5938 29.4062 75 29.4062
L87.7969 29.4062
C90.9062 29.4062 93.5 32.5938 95.7031 39.2031
L89.4062 43.0938
C88.2031 38.2969 87.0938 36 85.9062 36
L77.7031 36
C77.0938 36 76.9062 36.5 76.9062 37.5938
L76.9062 47.4062
L92.9062 47.4062
C93.7031 47.4062 94.0938 47.9062 94.0938 48.9062
L94.0938 52.0938
C94.0938 53.0938 93.7031 53.5938 92.9062 53.5938
L68.7031 53.5938
L68.7031 65.2969
L89 65.2969
C89.7969 65.2969 90.2031 65.7969 90.2031 66.9062
L90.2031 70
C90.2031 71 89.7969 71.5938 89 71.5938
L68.7031 71.5938
L68.7031 77.0938
C68.7031 78.2969 69 79 69.7031 79.0938
C70.2969 79.2031 70.7031 79.7031 70.7031 80.5938
C70.7031 81.4062 68.2031 81.7969 63.2031 81.7969
C62.2031 81.7969 61.7031 81.4062 61.7031 80.5938
L61.7031 71.5938
z

M41.4062 18.9062
C40.5938 18.9062 40.2031 18.2969 40.2031 17.2969
L40.2031 14.2031
C40.2031 13.0938 40.5938 12.5938 41.4062 12.5938
L61.2969 12.5938
L61.2969 -0.296875
L37.0938 -0.296875
C36.2969 -0.296875 35.9062 -0.796875 35.9062 -1.79688
L35.9062 -5
C35.9062 -6 36.2969 -6.5 37.0938 -6.5
L93.2969 -6.5
C94.0938 -6.5 94.5 -6 94.5 -5
L94.5 -1.79688
C94.5 -0.796875 94.0938 -0.296875 93.2969 -0.296875
L68.2969 -0.296875
L68.2969 12.5938
L88.5938 12.5938
C89.4062 12.5938 89.7969 13.0938 89.7969 14.2031
L89.7969 17.2969
C89.7969 18.2969 89.4062 18.9062 88.5938 18.9062
L68.2969 18.9062
L68.2969 26.7031
C68.2969 27.9062 68.5938 28.5938 69.2969 28.7031
C69.9062 28.7969 70.2969 29.2969 70.2969 30.2031
C70.2969 31 67.7969 31.4062 62.7969 31.4062
C61.7969 31.4062 61.2969 31 61.2969 30.2031
L61.2969 18.9062
z
" id="DFHeiStd-W5-9678"/>
      </defs>
      <g style="fill:#555555;" transform="translate(54.9796875 81.81015625)scale(0.1 -0.1)">
       <use xlink:href="#DFHeiStd-W5-9678"/>
       <use x="99.99998474121094" xlink:href="#DFHeiStd-W5-59d4"/>
       <use x="199.99996948242188" xlink:href="#DFHeiStd-W5-6703"/>
      </g>
     </g>
    </g>
    <g id="ytick_8">
     <g id="line2d_40">
      <path clip-path="url(#p9f76a1e9e4)" d="
M90 53.6
L648 53.6" style="fill:none;stroke:#000000;stroke-dasharray:1.000000,3.000000;stroke-dashoffset:0.0;stroke-width:0.5;"/>
     </g>
     <g id="line2d_41">
      <g>
       <use style="fill:#555555;stroke:#555555;stroke-width:0.5;" x="90.0" xlink:href="#m1d870bcb37" y="53.6"/>
      </g>
     </g>
     <g id="line2d_42">
      <g>
       <use style="fill:#555555;stroke:#555555;stroke-width:0.5;" x="648.0" xlink:href="#m1d870bcb37" y="53.6"/>
      </g>
     </g>
     <g id="text_14">
      <!-- 原民會 -->
      <defs>
       <path d="
M23 72.4062
L78.9062 72.4062
L78.9062 56
L23 56
z

M23 49.7031
L52.7969 49.7031
C53 43.0938 53.4062 37.5 54.2031 32.9062
L23 32.9062
z

M59.7969 49.7031
L84.2969 49.7031
C85.2969 49.7031 85.9062 50.2031 85.9062 51.2969
L85.9062 77.5
C85.9062 78.2031 85.2969 78.5938 84.2969 78.5938
L17.5 78.5938
C16.5 78.5938 16 78.0938 16 77.0938
L16 0.40625
C12 -0.5 8.29688 -1.20312 5 -1.79688
C7 -7.5 8.29688 -10.4062 8.90625 -10.4062
C9.59375 -10.4062 10.5 -9.5 11.7031 -7.70312
C25.2969 -4.40625 38.7031 -0.796875 51.9062 3.20312
C52.0938 3.59375 52.2969 5.5 52.2969 9.09375
C52.2969 9.90625 52 10.2969 51.5 10.2969
C51.2031 10.2969 51 10.2031 50.7969 10
C43.2031 7.40625 35.2031 5.09375 26.7969 3
C25.5 2.59375 24.2031 2.29688 23 2
L23 26.7031
L55.5 26.7031
C56 24.5 56.7031 22.2031 57.5 19.7969
C58.2969 17.5 59.5938 14.5938 61.4062 11
C63.2031 8 65.4062 5.09375 67.7969 2.29688
C71 -0.90625 73.9062 -3.29688 76.2969 -5
C77.9062 -6.20312 79.5938 -7.20312 81.4062 -7.90625
C82.9062 -8.5 84.2969 -8.90625 85.5 -8.90625
C87.7969 -8.90625 89.9062 -6.90625 91.7031 -3
C93 0.203125 94.2031 4.59375 95.2969 10.2969
C95.2969 10.5 94.7969 10.9062 94 11.4062
C93 11.7969 91.9062 12.2969 90.9062 12.9062
C90.5938 13.2031 90.2031 13.4062 89.7969 13.4062
C89.4062 13.4062 89.0938 13 88.9062 12.2969
C88.2031 7.59375 87.2969 4.09375 86.2031 1.90625
C85.2031 0.09375 84.2969 -0.703125 83.5 -0.703125
C82.0938 -0.703125 80.2031 0.296875 77.5938 2.5
C75.2031 4.29688 73.0938 6.29688 71.4062 8.70312
C68.7969 11.5 66.7969 14.5 65.2969 17.7969
C64 20.4062 62.9062 23.4062 62.0938 26.7031
L90.2031 26.7031
C91 26.7031 91.4062 27.2031 91.4062 28.2031
L91.4062 31.4062
C91.4062 32.4062 91 32.9062 90.2031 32.9062
L60.7969 32.9062
C60.2031 36.7969 59.9062 42.0938 59.7031 48.9062
C59.7031 49.0938 59.7031 49.2969 59.7969 49.7031" id="DFHeiStd-W5-6c11"/>
      </defs>
      <g style="fill:#555555;" transform="translate(54.6703125 57.065625)scale(0.1 -0.1)">
       <use xlink:href="#DFHeiStd-W5-539f"/>
       <use x="99.99998474121094" xlink:href="#DFHeiStd-W5-6c11"/>
       <use x="199.99996948242188" xlink:href="#DFHeiStd-W5-6703"/>
      </g>
     </g>
    </g>
   </g>
   <g id="patch_3">
    <path clip-path="url(#p9f76a1e9e4)" d="
M90 237.12
L92.1056 237.12
L92.1056 217.28
L90 217.28
z
" style="fill:#008000;opacity:0.7;stroke:#eeeeee;stroke-width:0.5;"/>
   </g>
   <g id="patch_4">
    <path clip-path="url(#p9f76a1e9e4)" d="
M90 212.32
L96.7699 212.32
L96.7699 192.48
L90 192.48
z
" style="fill:#008000;opacity:0.7;stroke:#eeeeee;stroke-width:0.5;"/>
   </g>
   <g id="patch_5">
    <path clip-path="url(#p9f76a1e9e4)" d="
M90 187.52
L102.215 187.52
L102.215 167.68
L90 167.68
z
" style="fill:#008000;opacity:0.7;stroke:#eeeeee;stroke-width:0.5;"/>
   </g>
   <g id="patch_6">
    <path clip-path="url(#p9f76a1e9e4)" d="
M90 162.72
L111.7 162.72
L111.7 142.88
L90 142.88
z
" style="fill:#008000;opacity:0.7;stroke:#eeeeee;stroke-width:0.5;"/>
   </g>
   <g id="patch_7">
    <path clip-path="url(#p9f76a1e9e4)" d="
M90 137.92
L148.317 137.92
L148.317 118.08
L90 118.08
z
" style="fill:#008000;opacity:0.7;stroke:#eeeeee;stroke-width:0.5;"/>
   </g>
   <g id="patch_8">
    <path clip-path="url(#p9f76a1e9e4)" d="
M90 113.12
L210.366 113.12
L210.366 93.28
L90 93.28
z
" style="fill:#008000;opacity:0.7;stroke:#eeeeee;stroke-width:0.5;"/>
   </g>
   <g id="patch_9">
    <path clip-path="url(#p9f76a1e9e4)" d="
M90 88.32
L480.986 88.32
L480.986 68.48
L90 68.48
z
" style="fill:#008000;opacity:0.7;stroke:#eeeeee;stroke-width:0.5;"/>
   </g>
   <g id="patch_10">
    <path clip-path="url(#p9f76a1e9e4)" d="
M90 63.52
L609.236 63.52
L609.236 43.68
L90 43.68
z
" style="fill:#008000;opacity:0.7;stroke:#eeeeee;stroke-width:0.5;"/>
   </g>
   <g id="patch_11">
    <path d="
M90 252
L90 28.8" style="fill:none;stroke:#bcbcbc;"/>
   </g>
   <g id="patch_12">
    <path d="
M90 252
L648 252" style="fill:none;stroke:#bcbcbc;"/>
   </g>
   <g id="patch_13">
    <path d="
M90 28.8
L648 28.8" style="fill:none;stroke:#bcbcbc;"/>
   </g>
   <g id="patch_14">
    <path d="
M648 252
L648 28.8" style="fill:none;stroke:#bcbcbc;"/>
   </g>
   <g id="text_15">
    <!-- 行政部會廣告占決算比例(%) -->
    <defs>
     <path d="
M78.2969 17.5938
C78.2969 22.7969 77 27 74.4062 30.4062
C71.5938 33.9062 67.7969 35.7031 63.0938 35.7031
C58.2969 35.7031 54.5938 34 52 30.5938
C49.2031 27.0938 47.9062 22.7969 47.9062 17.5938
C47.9062 12.0938 49.2031 7.79688 52 4.79688
C54.5938 1.79688 58.2969 0.296875 63.0938 0.296875
C67.5 0.296875 71.2031 1.79688 74 4.90625
C76.7969 7.90625 78.2969 12.2031 78.2969 17.5938
M71.2031 17.5938
C71.2031 10.5938 68.5 7.20312 63.0938 7.20312
C60.5938 7.20312 58.5938 8.09375 57.2031 10
C55.5938 11.7969 54.9062 14.2969 54.9062 17.5938
C54.9062 21 55.5938 23.7969 57.2031 25.7969
C58.7031 27.7969 60.7031 28.7969 63.0938 28.7969
C68.5 28.7969 71.2031 25 71.2031 17.5938
M75.0938 63.5938
L70.7031 68.0938
L7.20312 4.70312
L11.7031 0.296875
z

M34.5 49.2969
C34.5 54.5 33.0938 58.7969 30.4062 62.2031
C27.5938 65.5938 23.9062 67.4062 19.2031 67.4062
C14.5 67.4062 10.7969 65.5938 8.09375 62.2031
C5.29688 58.7969 4 54.5 4 49.2969
C4 43.7969 5.29688 39.5938 8 36.5938
C10.7031 33.5 14.4062 32 19.2031 32
C23.7031 32 27.4062 33.5 30.2031 36.5938
C33 39.5938 34.5 43.9062 34.5 49.2969
M27.4062 49.2969
C27.4062 42.2969 24.5938 38.9062 19.2031 38.9062
C16.7969 38.9062 14.7969 39.7969 13.2969 41.7031
C11.7031 43.5 11 46.0938 11 49.2969
C11 52.7031 11.7969 55.5 13.4062 57.5
C14.9062 59.5 16.7969 60.5 19.2031 60.5
C24.5938 60.5 27.4062 56.7031 27.4062 49.2969" id="DFHeiStd-W5-25"/>
     <path d="
M8.20312 72
C7.40625 72 7 71.4062 7 70.4062
L7 67.2969
C7 66.2031 7.40625 65.7031 8.20312 65.7031
L27.2969 65.7031
L27.2969 6.40625
C26.5938 6.20312 25.9062 5.90625 25.0938 5.70312
C22.7969 5 20.5 4.29688 18.2969 3.70312
L18.2969 46.5938
C18.2969 47.7969 18.5938 48.5 19.2969 48.5938
C19.9062 48.7031 20.2969 49.2031 20.2969 50.0938
C20.2969 50.9062 17.7969 51.2969 12.7969 51.2969
C11.7969 51.2969 11.2969 50.9062 11.2969 50.0938
L11.2969 1.79688
C8.59375 1.09375 6.09375 0.5 3.90625 0.09375
C5.79688 -5.29688 7.09375 -8.09375 7.79688 -8.09375
C8.40625 -8.09375 9.09375 -7.20312 10.0938 -5.40625
C23.4062 -1.40625 36.5938 3 49.5938 7.90625
C49.7969 8.20312 50 10 50 13.4062
C50 13.9062 49.7031 14.2031 49.2031 14.2031
C48.9062 14.2031 48.5938 14.0938 48.4062 13.9062
C43.9062 12.0938 39.2031 10.2969 34.2969 8.70312
L34.2969 35.2969
L46 35.2969
C46.7969 35.2969 47.2031 35.7969 47.2031 36.7969
L47.2031 40
C47.2031 41 46.7969 41.5 46 41.5
L34.2969 41.5
L34.2969 65.7031
L47.5938 65.7031
C48.4062 65.7031 48.7969 66.2031 48.7969 67.2969
L48.7969 70.4062
C48.7969 71.4062 48.4062 72 47.5938 72
z

M60.9062 81.7969
C60.7031 81.7969 60.5 81.5 60.5 81
C59.7031 77.2031 58.5 73.2969 57 69.2969
C55.2031 64.7031 53.2031 60.5938 51 56.9062
C49.2031 54.0938 47.4062 51.4062 45.7031 48.9062
C45.7031 48.5 45.9062 48.0938 46.2969 47.7969
C47.2031 47 48.0938 46.2031 49 45.5
C49.5 44.9062 50.0938 44.5938 50.7031 44.5938
C54.0938 49.5938 56.5 53.5 57.9062 56.0938
C58.7031 57.5 59.5938 59.2969 60.5 61.4062
L81.9062 61.4062
C81.5 49.2031 80.5 40 79 33.9062
C77.5938 27.5 75.4062 21.7031 72.4062 16.4062
C71.5 17.7969 70.7031 19.5 69.9062 21.2969
C68.2031 25.2031 66.9062 29.4062 65.9062 33.9062
C64.9062 38.4062 64.4062 43.7031 64.4062 49.7031
L58.2031 49.7031
C58.2031 43.2031 58.7031 37.5 59.7031 32.5938
C60.9062 26.7969 62.4062 22 64.2969 18
C65.4062 15.4062 66.7031 12.9062 68.2969 10.5
C65.7969 7.5 62.7031 4.79688 59 2.20312
C54.5938 -1 50.7969 -3.09375 47.5938 -4.20312
C48.9062 -5.70312 50.5 -7.40625 52.2969 -9.29688
C58.4062 -6.59375 63.4062 -3.59375 67.2031 -0.40625
C69 1 70.7969 2.59375 72.5938 4.40625
C74.2969 2 76.2969 0 78.7031 -1.70312
C80.5 -3.5 84.5938 -6.20312 91 -9.70312
C91.2031 -9.70312 91.5938 -9.40625 92.2031 -8.79688
C93.2031 -7.5 94.2969 -6.29688 95.5 -5.09375
C96.0938 -4.70312 96.4062 -4.29688 96.4062 -3.79688
C91.7031 -2.09375 87.5938 0.09375 84.0938 2.90625
C81.7031 4.70312 79.2969 7 77.0938 9.79688
C77.4062 10.2031 77.7031 10.5938 78.0938 11.2031
C81.5 16.7969 84.2031 23.9062 86.0938 32.5
C87.5 38.5938 88.5 48.2031 88.9062 61.4062
L93.7031 61.4062
C94.5 61.4062 94.9062 61.9062 94.9062 63
L94.9062 66.0938
C94.9062 67.0938 94.5 67.7031 93.7031 67.7031
L63 67.7031
C63.7969 69.9062 64.7031 72.5 65.5938 75.5
C65.7969 76.0938 66.4062 76.4062 67.2969 76.5938
C67.7031 76.5938 67.9062 76.9062 67.9062 77.5
C67.9062 77.9062 65.5 79.2969 60.9062 81.7969" id="DFHeiStd-W5-653f"/>
     <path d="
M18.2969 77.5
C17.2031 77.5 16.7031 77.0938 16.7031 76.2969
L16.7031 3.09375
C11.9062 2.09375 7.70312 1.40625 3.90625 0.90625
C5.79688 -4.79688 7.09375 -7.70312 7.79688 -7.70312
C8.40625 -7.70312 9.29688 -6.79688 10.5 -5
C23.7969 -2.40625 37 0.40625 50 3.59375
C50.2031 4 50.2969 5.90625 50.2969 9.5
C50.2969 10.2969 50 10.7031 49.5938 10.7031
C49.2969 10.7031 49 10.5938 48.7969 10.5
C41.4062 8.40625 33.5 6.5 25.2031 4.79688
C24.9062 4.70312 24.5938 4.59375 24.2031 4.59375
L24.2031 43.5
L48.7969 43.5
C49.5938 43.5 50 44 50 45
L50 48.9062
C50 49.7031 49.5938 50.0938 48.7969 50.0938
L24.2031 50.0938
L24.2031 72.7969
C24.2031 74 24.5 74.7031 25.0938 74.7969
C25.7031 74.9062 26.0938 75.4062 26.0938 76.2969
C26.0938 77.0938 23.5 77.5 18.2969 77.5
M57 82.0938
C56.7031 82.0938 56.5938 81.7031 56.5938 81
L56.5938 0.5
C56.5938 -4.40625 60.5938 -6.90625 68.7031 -6.90625
L85.0938 -6.90625
C89 -6.90625 91.5938 -6 92.7969 -4.20312
C94 -3.40625 95.7031 1 98 9.09375
C98 9.70312 97.5 10.2031 96.5 10.5938
C94.5 11.7969 93.0938 13.0938 92.0938 14.5938
C90.5 7.29688 89.0938 3.09375 88 2.09375
C87 0.703125 84.2031 0.09375 79.5938 0.09375
L69.5 0.09375
C65.7969 0.09375 64 1.59375 64 4.79688
L64 38.2031
C67.5938 39.2031 70.7031 40.0938 73.2031 41.0938
C76.9062 42.4062 80.4062 44 83.7031 45.7969
C86.2969 47.2969 88.7031 48.9062 90.9062 50.7031
C91 50.7969 91.2031 50.9062 91.4062 50.9062
L93.7031 50.5
C94.2031 50.5 94.5 50.9062 94.5 51.7031
C94.5 51.9062 93 54 90.0938 57.7969
C89.7031 58.4062 89.2969 58.7031 89 58.7031
C88.7969 58.7031 88.7031 58.5938 88.5 58.5938
C86.7031 56.5938 84.5938 54.7969 82.4062 53.2969
C79.2969 51.0938 76 49.2969 72.5 48
C69.9062 46.9062 67 45.9062 64 45.0938
L64 78.2031
C64 78.9062 64.2969 79.2969 64.9062 79.4062
C65.2969 79.5 65.5938 79.9062 65.5938 80.5938
C65.5938 80.9062 65.0938 81.0938 64.2969 81.2969
z
" id="DFHeiStd-W5-6bd4"/>
     <path d="
M43.2969 81
C42.2031 81 41.7031 80.5938 41.7031 79.7969
L41.7031 36.7969
L16 36.7969
C14.9062 36.7969 14.4062 36.2969 14.4062 35.2969
L14.4062 -7.70312
C14.4062 -8.5 14.9062 -8.90625 16 -8.90625
L19.9062 -8.90625
C20.9062 -8.90625 21.4062 -8.5 21.4062 -7.70312
L21.4062 -3
L76.5 -3
L76.5 -7.70312
C76.5 -8.5 77 -8.90625 78.0938 -8.90625
L82 -8.90625
C83 -8.90625 83.5 -8.5 83.5 -7.70312
L83.5 35.7031
C83.5 36.4062 83 36.7969 82 36.7969
L48.7969 36.7969
L48.7969 56.7969
L89 56.7969
C89.7969 56.7969 90.2031 57.2969 90.2031 58.2969
L90.2031 61.4062
C90.2031 62.4062 89.7969 63 89 63
L48.7969 63
L48.7969 76.2969
C48.7969 77.5 49.0938 78.2031 49.7969 78.2969
C50.4062 78.4062 50.7031 78.9062 50.7031 79.7969
C50.7031 80.5938 48.2031 81 43.2969 81
M21.4062 3.20312
L21.4062 30.5938
L76.5 30.5938
L76.5 3.20312
z
" id="DFHeiStd-W5-5360"/>
     <path d="
M28.5 -4.40625
C24.0938 -0.40625 20.5 4.20312 17.5 9.5
C13.0938 17.2031 11 25.2969 11 33.7031
C11 42.0938 13.0938 50.0938 17.5 57.9062
C20.5 63.0938 24.0938 67.7969 28.5 71.7969
L24.2969 76.4062
C19.5 72 15.4062 66.7969 12.0938 61
C7.20312 52.2969 4.79688 43.2031 4.79688 33.7031
C4.79688 24.0938 7.20312 15 12.0938 6.40625
C15.4062 0.5 19.5 -4.59375 24.2969 -9
z
" id="DFHeiStd-W5-28"/>
     <path d="
M15.2031 81
C14.9062 81 14.5938 80.7031 14.4062 80.2969
C12.2969 77.7031 11.2969 76.2031 11.2969 75.9062
C13.2969 75.2031 15.7031 74.0938 18.7031 72.5938
C22.4062 70.5938 25.9062 68.4062 29.2031 66.0938
C29.2969 66.0938 30.2969 67.5 32.2969 70.4062
C32.5938 70.7969 32.7969 71.0938 32.7969 71.2031
C30.5938 72.7031 28 74.4062 25 76.2031
C22.4062 77.5938 19.2031 79.2031 15.2031 81
M8.90625 59.0938
C8.70312 59.0938 8.40625 58.7969 8.09375 58.4062
C6 55.7969 5 54.4062 5 54
C7.09375 53.2969 9.70312 52.2031 12.7969 50.7031
C16.7031 48.7031 20.4062 46.5938 23.7969 44.2969
C23.7969 44.2969 24.7969 45.7031 26.7969 48.5
C27.0938 48.9062 27.2969 49.2031 27.2969 49.2969
C25.0938 50.7969 22.4062 52.5 19.2031 54.2969
C16.5 55.7031 13.0938 57.2969 8.90625 59.0938
M26.9062 31.7969
C26.5938 31.7969 26.4062 31.5 26.2031 31
C24.4062 27.5938 22.2031 23.7969 19.7969 19.7031
C17 15 14.0938 10.7969 11.0938 7
C9 4.20312 6.90625 2 4.70312 0.296875
C4.29688 -0.09375 4.20312 -0.5 4.20312 -1.09375
C4.29688 -1.59375 4.5 -2 4.90625 -2.20312
C8.59375 -6.40625 10.7031 -8.5 11.2969 -8.5
C11.7969 -8.5 12.0938 -8.09375 12.0938 -7.29688
C12.0938 -5.90625 12.2969 -4.79688 12.7031 -4
C15.2969 -0.59375 17.4062 2.5 19.2031 5.40625
C22.4062 10.4062 25.7969 16.5 29.4062 23.7031
C29.7969 24.0938 30 24.5938 30 25.0938
C30 25.2969 29.0938 27.2969 27.5 30.9062
C27.4062 31.5 27.2031 31.7969 26.9062 31.7969
M38.5938 66.5
C37.7969 66.5 37.5 66 37.5 65
L37.5 61.7969
C37.5 60.7969 37.7969 60.2969 38.5938 60.2969
L57.7031 60.2969
L57.4062 49.7031
C57.4062 43.9062 57.0938 39.0938 56.5938 35.2969
L35.5 35.2969
C34.7031 35.2969 34.2969 34.7031 34.2969 33.7031
L34.2969 30.5938
C34.2969 29.5 34.7031 29 35.5 29
L55.5938 29
C55 26.2031 54.2031 23.5 53 21.0938
C51.4062 16.9062 49.2031 13.2969 46.5 10.2969
C44.0938 7.09375 41.0938 4.29688 37.5938 2
C34.7969 0 31.2969 -1.40625 27 -2.59375
C26.5938 -2.59375 26.5 -2.79688 26.5 -3.40625
C26.5 -3.40625 26.7031 -3.59375 27.2031 -3.90625
C28.2031 -5.09375 29.0938 -6.59375 30 -8.29688
C30.2031 -8.90625 30.5938 -9.29688 31.2031 -9.29688
C32.4062 -9.29688 34.5938 -8.29688 37.7969 -6.5
C43 -3.40625 47.5 0.5 51.4062 5.5
C54.5938 9.5 57.0938 13.5 58.9062 17.5
C59.7031 19.0938 60.4062 20.7969 61 22.7969
C62.2969 19.4062 63.7031 16.5 65.0938 14.0938
C67 10.7031 69.2969 7.5 71.9062 4.59375
C73.7969 2.40625 76.2969 0.203125 79.4062 -2.20312
C82.7969 -4.79688 86.7969 -7 91.4062 -8.90625
C92 -8.90625 92.5938 -8.59375 93 -8
C94 -6.79688 94.9062 -5.70312 95.9062 -4.5
C96.5 -4 96.7969 -3.5 96.7969 -3
C96.7969 -2.59375 96.5 -2.40625 96 -2.40625
C94.0938 -1.79688 92.5 -1.20312 91.2031 -0.796875
C88.2031 0.59375 85.7031 2.09375 83.5 3.70312
C80.2031 6.09375 77.7969 8.29688 76.2969 10.2031
C73.7031 12.7969 71.5938 15.7969 69.9062 19
C68.5 21.2969 66.9062 24.5938 65.2969 29
L93.7031 29
C94.5 29 94.9062 29.5 94.9062 30.5938
L94.9062 33.7031
C94.9062 34.7031 94.5 35.2969 93.7031 35.2969
L88.5938 35.2969
L88.5938 65.2969
C88.5938 66.0938 88.0938 66.5 87.0938 66.5
L64.2969 66.5
L64.4062 77.5
C64.4062 78.4062 64.7969 79 65.7031 79.4062
C66.2969 79.5938 66.7031 80 66.7031 80.5938
C66.7031 80.7969 66.2031 81.0938 65.2031 81.2969
L58.5 81.7969
C58 81.7969 57.7969 81.4062 57.7969 80.5938
C58 79.2969 58.2031 77.2969 58.2031 74.7031
L57.9062 66.5
z

M64.2031 60.2969
L81.5938 60.2969
L81.5938 35.2969
L63.4062 35.2969
C63.7969 38.9062 64 43.7031 64 49.7031
z
" id="DFHeiStd-W5-6c7a"/>
     <path d="
M24.2031 82.9062
C24 82.9062 23.7031 82.7031 23.4062 82.2969
C22.5938 80.4062 21.7969 78.7031 20.9062 77.0938
C20.0938 75.5938 19 74.0938 17.7031 72.5
C15.7031 70 13.7031 68 11.7969 66.4062
C10.4062 65.2031 8.59375 64.0938 6.40625 63
C6.20312 62.7969 6.20312 62.7031 6.20312 62.5938
C6.20312 62.2969 6.5 62 7.20312 61.5938
C8.29688 60.5938 9.29688 59.4062 10.2031 58.0938
C10.5 57.4062 11 57.0938 11.7031 57.0938
C12.5938 57.7031 13.9062 58.5938 15.5 60
C17 61.2969 18.5938 62.7969 20.2031 64.5
C21.7031 66.0938 23 67.7031 24.0938 69.2969
L34.0938 69.2969
C35.5 66.5938 37 63.2031 38.5938 59.0938
C39.7969 59.0938 41.5938 59.7969 43.7969 61.4062
C44.2031 61.5 44.5 62 44.5 63
C43.4062 65.0938 42.2031 67.2031 41 69.2969
L50.7031 69.2969
C51.2031 69.2969 51.5 69.7969 51.5 70.7969
L51.5 73.9062
C51.5 74.7031 51.2031 75.0938 50.7031 75.0938
L28 75.0938
C28.2031 75.4062 28.4062 75.7969 28.7031 76.2031
C29 76.7969 29.5938 77.0938 30.4062 77.0938
C31.7031 77.0938 32.4062 77.4062 32.4062 78.2031
C32.4062 78.5938 32 79 31.4062 79.5
z

M62.0938 82.9062
C61.9062 82.9062 61.7031 82.5938 61.7031 82.0938
C60.9062 79.9062 60 77.7969 58.7969 75.5938
C57.4062 73 55.7031 70.7031 53.9062 68.7031
C52.4062 67.0938 51 65.5938 49.5938 64.2031
C49.5938 63.7031 49.7969 63.2969 50.2031 63.0938
C51.2031 62.2969 52.2031 61.5 53.0938 60.7969
C53.7031 60.2031 54.2969 59.9062 55 59.9062
C57.7969 62.5 59.7031 64.5938 60.9062 66
C61.7031 66.7969 62.5 67.9062 63.4062 69.2969
L72.0938 69.2969
C73.9062 66.5938 75.9062 63.2031 78.0938 59.0938
C79.2969 59.0938 81.0938 59.7969 83.2969 61.4062
C83.7031 61.5 83.9062 62 83.9062 63
C82.5 65.0938 81.0938 67.2031 79.5938 69.2969
L94.5 69.2969
C95 69.2969 95.2969 69.7969 95.2969 70.7969
L95.2969 73.9062
C95.2969 74.7031 95 75.0938 94.5 75.0938
L66.5 75.0938
C66.7031 75.4062 66.9062 75.7969 67.0938 76.2969
C67.4062 76.9062 68.0938 77.2031 69.2031 77.4062
C69.5938 77.4062 69.9062 77.5938 69.9062 78.2031
C69.9062 78.7031 67.2969 80.2969 62.0938 82.9062
M21.7969 58.7031
C20.7969 58.7031 20.2969 58.2969 20.2969 57.5
L20.2969 17.2969
C20.2969 16.5 20.7969 16.0938 21.7969 16.0938
L32.4062 16.0938
C32.2969 13.2969 32.0938 11.2031 31.9062 9.79688
C31.7969 9.5 31.7031 9.29688 31.7031 9.09375
L6.20312 9.09375
C5.59375 9.09375 5.40625 8.70312 5.40625 7.90625
L5.40625 4.79688
C5.40625 3.70312 5.59375 3.20312 6.20312 3.20312
L28.9062 3.20312
C28.4062 2.59375 27.7969 2 27.2031 1.59375
C25.9062 0.40625 24.2969 -0.5 22.4062 -1.29688
C19.9062 -2.09375 16.5938 -2.79688 12.5 -3.40625
C12.5 -3.70312 12.5938 -4.09375 12.7969 -4.5
C13.5938 -6.09375 14.5938 -7.59375 15.5938 -8.90625
C15.7031 -9.59375 16.0938 -10 16.7031 -10
C19.7031 -9.20312 22.5 -8.5 25 -7.70312
C28 -6.5 30.5 -5 32.5 -3.29688
C34.5 -1.5 35.9062 0.296875 36.9062 2.29688
C37 2.5 37.0938 2.79688 37.2969 3.20312
L62.7969 3.20312
L62.7969 -7.70312
C62.7969 -8.5 63.2969 -8.90625 64.4062 -8.90625
L68.2969 -8.90625
C69.2969 -8.90625 69.9062 -8.5 69.9062 -7.70312
L69.9062 3.20312
L93.7031 3.20312
C94.2031 3.20312 94.5 3.70312 94.5 4.79688
L94.5 7.90625
C94.5 8.70312 94.2031 9.09375 93.7031 9.09375
L69.9062 9.09375
L69.9062 16.0938
L79.2031 16.0938
C80.2031 16.0938 80.7969 16.5 80.7969 17.2969
L80.7969 57.5
C80.7969 58.2969 80.2031 58.7031 79.2031 58.7031
z

M62.7969 9.09375
L39 9.09375
C39.2031 10.9062 39.2969 13.2969 39.4062 16.0938
L62.7969 16.0938
z

M73.7969 21.5938
L27.2969 21.5938
L27.2969 28.2031
L73.7969 28.2031
z

M27.2969 33.7031
L27.2969 40.7031
L73.7969 40.7031
L73.7969 33.7031
z

M27.2969 46.2031
L27.2969 53.2031
L73.7969 53.2031
L73.7969 46.2031
z
" id="DFHeiStd-W5-7b97"/>
     <path d="
M28.5 33.7031
C28.5 43.2031 26 52.2969 21.2031 61
C17.7969 66.7969 13.7969 72 9 76.4062
L4.79688 71.7969
C9.09375 67.7969 12.7969 63.0938 15.7969 57.9062
C20.0938 50.0938 22.2969 42.0938 22.2969 33.7031
C22.2969 25.2969 20.0938 17.2031 15.7969 9.5
C12.7969 4.20312 9.09375 -0.40625 4.79688 -4.40625
L9 -9
C13.7969 -4.59375 17.7969 0.5 21.2031 6.40625
C26 15 28.5 24.0938 28.5 33.7031" id="DFHeiStd-W5-29"/>
     <path d="
M23.4062 81.4062
C23 81.4062 22.7969 81.0938 22.5938 80.5938
C21.5 75.5938 20 70.4062 18 65.2031
C15.7031 59.4062 13.0938 54 10.0938 49.2031
C7.70312 45.5 5.29688 42 3.09375 38.7969
C3.09375 38.2969 3.29688 37.9062 3.79688 37.5938
C4.79688 36.7031 5.90625 35.7969 6.90625 35
C7.5 34.4062 8.09375 34.0938 8.90625 34.0938
C11.7031 38.2969 14.0938 41.9062 16 44.9062
L16 -7.70312
C16 -8.5 16.5 -8.90625 17.5 -8.90625
L21.4062 -8.90625
C22.4062 -8.90625 23 -8.5 23 -7.70312
L23 58.5938
C24.7969 62.9062 26.5938 68.0938 28.5 74.2969
C28.9062 74.9062 29.5938 75.2969 30.7969 75.4062
C31.2969 75.4062 31.5938 75.7031 31.5938 76.2969
C31.5938 76.7969 28.7969 78.5 23.4062 81.4062
M33.9062 77.5
C33.0938 77.5 32.7969 76.9062 32.7969 75.9062
L32.7969 72.7969
C32.7969 71.7031 33.0938 71.2031 33.9062 71.2031
L43.2969 71.2031
C42.0938 64.5938 41.2031 59.7031 40.4062 56.5938
C39.2969 51.9062 37.9062 47.0938 36.0938 42.2031
C34.2031 37 31.7969 31.7031 28.9062 26.2969
C28.9062 25.9062 29.0938 25.7969 29.7031 25.7969
C31.0938 25 32.5 24.2969 33.9062 23.7031
C34.2031 23.2969 34.7031 23.2031 35.5 23.2031
C37.7031 27.4062 39.7031 32 41.4062 36.9062
C42.5938 40.4062 43.7969 44.2969 45 48.5
L60.5 48.5
C59.5938 42 58.7031 36.7969 57.9062 32.7969
C57.2031 30.2031 56.4062 27.7031 55.5938 25.2031
C54.5938 25.9062 53.4062 26.7031 52 27.5938
C49.7969 28.7969 47.0938 30.2031 43.7031 31.7969
C43.5 31.7969 43.2031 31.5 42.9062 31.0938
C40.7969 28.5 39.7969 27 39.7969 26.7031
C41.4062 26.0938 43.5 25.0938 46.0938 23.7031
C48.5 22.2969 50.9062 20.7969 53.2969 19.2031
C52.0938 16.5938 50.5938 14 48.7969 11.2969
C46.9062 8.29688 44.5938 5.59375 42 3.29688
C39.5938 1 36.5 -1.09375 32.7969 -3.09375
C32.5 -3.20312 32.4062 -3.40625 32.4062 -3.79688
C32.4062 -3.90625 32.5938 -4.20312 33 -4.59375
C34.4062 -5.5 35.7031 -6.5 37.0938 -7.59375
C37.5 -8.20312 38 -8.5 38.5938 -8.5
C42.0938 -6.09375 44.7969 -3.90625 46.7031 -2.09375
C49.0938 0.296875 51.0938 2.59375 52.5938 4.79688
C54.7031 7.79688 56.5 10.9062 58 14.2031
C59.5 17.5938 60.7031 20.7031 61.5 23.5
C62.9062 27.7031 64.0938 32 65 36.5
C65.7031 40.5 66.4062 45.7031 67.0938 52.0938
C67.0938 52.5 66.5 53.2031 65.4062 54.2031
C64.7969 54.5938 64.2031 54.7969 63.5938 54.7969
L46.5938 54.7969
C47.5938 59.5938 48.7031 65.0938 49.7031 71.2031
L67.0938 71.2031
C67.9062 71.2031 68.2969 71.7031 68.2969 72.7969
L68.2969 75.9062
C68.2969 76.9062 67.9062 77.5 67.0938 77.5
z

M71.7969 67.2969
C70.7969 67.2969 70.2969 66.9062 70.2969 66.0938
L70.2969 12.2031
C70.2969 11.4062 70.7969 11 71.7969 11
L75.7031 11
C76.7031 11 77.2969 11.4062 77.2969 12.2031
L77.2969 62.5938
C77.2969 63.7969 77.5938 64.5 78.2969 64.7031
C78.9062 64.7031 79.2031 65.2031 79.2031 66.0938
C79.2031 66.9062 76.7031 67.2969 71.7969 67.2969
M86.2969 80.5938
C84.9062 80.5938 84.2969 80.2969 84.2969 79.7969
C84.2969 79.2969 84.4062 78.7031 84.7031 77.9062
C84.9062 76.9062 85.0938 75.4062 85.0938 73.5
L85.0938 0.90625
C85.0938 -1.40625 83.5938 -2.59375 80.7969 -2.59375
C78.9062 -2.59375 76.7969 -2.29688 74.5938 -1.79688
C74 -1.79688 73.7969 -2 73.7969 -2.59375
C74.7969 -4.40625 75.4062 -5.90625 75.7031 -7.20312
C75.7031 -8.29688 75.9062 -8.90625 76.5 -8.90625
L81.5938 -8.90625
C88.5938 -8.90625 92.0938 -6.5 92.0938 -1.79688
L92.0938 73.2031
C92.0938 75.7031 92.7031 77.2031 94.0938 77.7031
C94.9062 77.7031 95.2969 78 95.2969 78.5938
C95.2969 78.7969 94.9062 79.2031 94.0938 79.5938
z
" id="DFHeiStd-W5-4f8b"/>
     <path d="
M53.9062 82.9062
C52.7969 82.9062 52.2969 82.5 52.2969 81.7969
L52.2969 77.7969
L13.2031 77.7969
C12.2031 77.7969 11.7031 77.4062 11.7031 76.7031
L11.7031 41.9062
C11.7031 33.7969 11.4062 27 10.7969 21.4062
C10.2969 16 9.5 10.7969 8.29688 6
C7.09375 1.40625 5.70312 -2.20312 4.20312 -5
C4.20312 -5.5 4.29688 -5.90625 4.70312 -6.29688
C6 -7.09375 7.20312 -8 8.29688 -9.09375
C8.5 -9.20312 8.79688 -9.29688 9.29688 -9.29688
C11.0938 -6.29688 12.5 -3.20312 13.5 0
C15.2969 5.29688 16.5938 10.5938 17.2031 15.9062
C18.2031 22.2969 18.7031 31 18.7031 41.9062
L18.7031 72
L93.7031 72
C94.2031 72 94.5 72.5 94.5 73.5
L94.5 76.7031
C94.5 77.4062 94.2031 77.7969 93.7031 77.7969
L59.2969 77.7969
L59.2969 78.2031
C59.2969 79.4062 59.5938 80.0938 60.2969 80.2969
C60.9062 80.2969 61.2969 80.7969 61.2969 81.7969
C61.2969 82.5 58.7969 82.9062 53.9062 82.9062
M23 63.4062
C22.4062 63.4062 22.2031 63 22.2031 62.2031
L22.2031 59.0938
C22.2031 58.2969 22.4062 57.9062 23 57.9062
L39.4062 57.9062
L39.4062 47.7969
C39.4062 47 39.9062 46.5938 41 46.5938
L73.7969 46.5938
C74.7969 46.5938 75.2969 47 75.2969 47.7969
L75.2969 57.9062
L92.5 57.9062
C93 57.9062 93.2969 58.2969 93.2969 59.0938
L93.2969 62.2031
C93.2969 63 93 63.4062 92.5 63.4062
L75.2969 63.4062
L75.2969 65
C75.2969 66.2031 75.5938 66.9062 76.2969 67
C76.9062 67.0938 77.2969 67.5938 77.2969 68.5
C77.2969 69.2031 74.7969 69.5938 69.9062 69.5938
C68.7969 69.5938 68.2969 69.2031 68.2969 68.5
L68.2969 63.4062
L46.4062 63.4062
L46.4062 65
C46.4062 66.2031 46.7031 66.9062 47.4062 67
C48 67.0938 48.4062 67.5938 48.4062 68.5
C48.4062 69.2031 45.9062 69.5938 41 69.5938
C39.9062 69.5938 39.4062 69.2031 39.4062 68.5
L39.4062 63.4062
z

M68.2969 52.0938
L46.4062 52.0938
L46.4062 57.9062
L68.2969 57.9062
z

M22.2031 42.2969
C21.5938 42.2969 21.4062 41.9062 21.4062 41.0938
L21.4062 38
C21.4062 36.9062 21.5938 36.4062 22.2031 36.4062
L93.7031 36.4062
C94.2031 36.4062 94.5 36.9062 94.5 38
L94.5 41.0938
C94.5 41.9062 94.2031 42.2969 93.7031 42.2969
z

M30.4062 31.4062
C29.4062 31.4062 28.9062 31 28.9062 30.2031
L28.9062 4.40625
C28.9062 3.59375 29.4062 3.20312 30.4062 3.20312
L43 3.20312
C39.4062 1.20312 35.7969 -0.40625 32.2031 -1.70312
C29.2969 -2.79688 25.9062 -3.79688 21.9062 -4.79688
C21.2969 -4.79688 21 -5 21 -5.40625
C21 -5.59375 21.2031 -6 21.7031 -6.5
C22.7031 -7.20312 23.4062 -8 23.7969 -8.79688
C24.0938 -9.40625 24.5938 -9.70312 25.2969 -9.70312
C32.7969 -7.79688 40 -5.40625 46.7969 -2.59375
C46.9062 -2.20312 47.5938 -2.09375 48.9062 -2.09375
C49.5938 -2.09375 50 -1.90625 50 -1.5
C50 -1 48.2969 0.5 45 3.20312
L84.7031 3.20312
C85.7031 3.20312 86.2969 3.59375 86.2969 4.40625
L86.2969 30.2031
C86.2969 31 85.7031 31.4062 84.7031 31.4062
z

M79.2031 8.70312
L60.5 8.70312
L60.5 14.5938
L79.2031 14.5938
z

M53.5 8.70312
L35.9062 8.70312
L35.9062 14.5938
L53.5 14.5938
z

M35.9062 20
L35.9062 25.9062
L53.5 25.9062
L53.5 20
z

M60.5 25.9062
L79.2031 25.9062
L79.2031 20
L60.5 20
z

M69.5 2.79688
C69.2031 2.79688 68.9062 2.59375 68.7031 2.20312
C66.5938 -0.40625 65.5938 -1.79688 65.5938 -2.20312
C68.2031 -2.70312 71.5 -3.59375 75.5 -4.79688
C80.4062 -6.20312 85 -7.90625 89.4062 -9.70312
C89.4062 -9.70312 90.4062 -8.20312 92.4062 -5.40625
C92.7031 -4.90625 92.9062 -4.59375 92.9062 -4.59375
C90.0938 -3.40625 86.7031 -2.20312 82.7031 -0.796875
C79.2031 0.296875 74.7969 1.5 69.5 2.79688" id="DFHeiStd-W5-5ee3"/>
     <path d="
M26.5 80.5938
C25.9062 80.5938 25.4062 79.9062 25 78.5
C23.7031 73.7969 21.7031 69.2031 18.9062 64.5938
C17 61 14.2031 56.7969 10.4062 52.2031
C9.90625 51.5938 9.70312 51.2031 9.70312 50.9062
C9.70312 50.7031 9.90625 50.5938 10.5 50.4062
C11.7969 49.7969 13.0938 49.0938 14.5 48.5
C15.2031 48 15.7969 47.7969 16.4062 47.7969
C16.7969 47.7969 17.5 48.4062 18.4062 49.5938
C20.5 52.5938 22.5938 56.4062 24.7031 61
L48.4062 61
L48.4062 43.0938
L7 43.0938
C6.20312 43.0938 5.79688 42.7031 5.79688 41.9062
L5.79688 38
C5.79688 36.9062 6.20312 36.4062 7 36.4062
L92.9062 36.4062
C93.7031 36.4062 94.0938 36.9062 94.0938 38
L94.0938 41.9062
C94.0938 42.7031 93.7031 43.0938 92.9062 43.0938
L55.7969 43.0938
L55.7969 61
L83.9062 61
C84.7031 61 85.0938 61.5 85.0938 62.5938
L85.0938 65.7031
C85.0938 66.7031 84.7031 67.2969 83.9062 67.2969
L55.7969 67.2969
L55.7969 76.2969
C55.7969 77.5 56.0938 78.2031 56.7969 78.2969
C57.4062 78.4062 57.7969 78.9062 57.7969 79.7969
C57.7969 80.5938 55.2031 81 50 81
C48.9062 81 48.4062 80.5938 48.4062 79.7969
L48.4062 67.2969
L27.5 67.2969
C28.2031 69 28.9062 70.7969 29.7031 72.7969
C30.0938 74.0938 30.9062 74.7969 32.2969 74.7969
C33.2969 75.2031 33.9062 75.7969 33.9062 76.7031
C33.9062 77.2031 33.4062 77.7031 32.5 78.0938
z

M22.2031 28.2031
C21.2031 28.2031 20.7031 27.7031 20.7031 26.7031
L20.7031 -7.29688
C20.7031 -8.09375 21.2031 -8.5 22.2031 -8.5
L26.0938 -8.5
C27.0938 -8.5 27.7031 -8.09375 27.7031 -7.29688
L27.7031 -3.40625
L73.7969 -3.40625
L73.7969 -7.29688
C73.7969 -8.09375 74.2969 -8.5 75.2969 -8.5
L79.2031 -8.5
C80.2031 -8.5 80.7969 -8.09375 80.7969 -7.29688
L80.7969 27.0938
C80.7969 27.7969 80.2031 28.2031 79.2031 28.2031
z

M27.7031 2.79688
L27.7031 22
L73.7969 22
L73.7969 2.79688
z
" id="DFHeiStd-W5-544a"/>
     <path d="
M31.2031 81
C30.9062 81 30.5 80.5938 30.0938 80
C28.2031 77.2969 26 74.7031 23.4062 72.2969
C20.5 69.7031 17.4062 67.5 14 65.5938
C11.5938 63.9062 9.20312 62.5938 6.79688 61.7031
C6.40625 61.5 6.20312 61.2969 6.20312 61
C6.20312 60.7969 6.40625 60.4062 6.90625 60
C7.79688 59.2031 8.79688 58.2969 9.79688 57.0938
C10.2031 56.5938 10.7031 56.4062 11.2969 56.4062
C18.2031 59.9062 25.7031 65.4062 33.7969 72.9062
C34.4062 73.5 35.5 73.9062 37.0938 73.9062
C38.0938 73.9062 38.5938 74.0938 38.5938 74.7031
C38.5938 75.5 38.0938 76.0938 37.2969 76.7031
z

M36.7031 60.2969
C36.2969 60.2969 35.9062 60.0938 35.5938 59.7031
C31.5 54.7031 27.2969 50.4062 23 46.7969
C17.4062 41.9062 10.9062 37.7031 3.59375 34.2969
C3.20312 34.0938 3.09375 33.9062 3.09375 33.7031
C3.09375 33.5 3.29688 33.0938 3.79688 32.5
C4.79688 31.7031 6.29688 30.2031 8.20312 28.2031
C13.4062 31.2031 17.7969 34 21.4062 36.5938
L21.4062 -7.70312
C21.4062 -8.5 21.9062 -8.90625 23 -8.90625
L26.9062 -8.90625
C27.9062 -8.90625 28.5 -8.5 28.5 -7.70312
L28.5 41.7969
C32.2969 44.7031 35.9062 48.0938 39.4062 52.0938
C39.7031 52.5 40.5 52.9062 41.7031 53.2031
C42.7031 53.5 43.2969 54.2031 43.2969 55.2031
C39.2969 58.5938 37.0938 60.2969 36.7031 60.2969
M49.2031 76.2969
C48.4062 76.2969 48 75.7031 48 74.7031
L48 71.5938
C48 70.5 48.4062 70 49.2031 70
L87.7969 70
C88.5938 70 89 70.5 89 71.5938
L89 74.7031
C89 75.7031 88.5938 76.2969 87.7969 76.2969
z

M44.0938 49.7031
C43.2969 49.7031 42.9062 49.2031 42.9062 48.2031
L42.9062 45
C42.9062 44 43.2969 43.5 44.0938 43.5
L71.4062 43.5
L71.4062 0.90625
C71.4062 -1.40625 69.5938 -2.59375 66 -2.59375
C62.7031 -2.59375 59.2969 -2.20312 55.7969 -1.5
L55.7969 -1.79688
C56.7969 -3.79688 57.2969 -5.5 57.5 -7
C57.5 -8.20312 57.7031 -8.90625 58.2031 -8.90625
L66.4062 -9.29688
C74.4062 -9.29688 78.5 -6.79688 78.5 -1.79688
L78.5 43.5
L93.2969 43.5
C94.0938 43.5 94.5 44 94.5 45
L94.5 48.2031
C94.5 49.2031 94.0938 49.7031 93.2969 49.7031
z
" id="DFHeiStd-W5-884c"/>
    </defs>
    <g transform="translate(306.95 23.8)scale(0.1 -0.1)">
     <use xlink:href="#DFHeiStd-W5-884c"/>
     <use x="99.99998474121094" xlink:href="#DFHeiStd-W5-653f"/>
     <use x="199.99996948242188" xlink:href="#DFHeiStd-W5-90e8"/>
     <use x="299.9999542236328" xlink:href="#DFHeiStd-W5-6703"/>
     <use x="399.99993896484375" xlink:href="#DFHeiStd-W5-5ee3"/>
     <use x="499.9999237060547" xlink:href="#DFHeiStd-W5-544a"/>
     <use x="599.9999084472656" xlink:href="#DFHeiStd-W5-5360"/>
     <use x="699.9998931884766" xlink:href="#DFHeiStd-W5-6c7a"/>
     <use x="799.9998779296875" xlink:href="#DFHeiStd-W5-7b97"/>
     <use x="899.9998626708984" xlink:href="#DFHeiStd-W5-6bd4"/>
     <use x="999.9998474121094" xlink:href="#DFHeiStd-W5-4f8b"/>
     <use x="1099.9998321533203" xlink:href="#DFHeiStd-W5-28"/>
     <use x="1133.299819946289" xlink:href="#DFHeiStd-W5-25"/>
     <use x="1215.5998077392578" xlink:href="#DFHeiStd-W5-29"/>
    </g>
   </g>
  </g>
 </g>
 <defs>
  <clipPath id="p9f76a1e9e4">
   <rect height="223.2" width="558.0" x="90.0" y="28.8"/>
  </clipPath>
 </defs>
</svg>
