<?xml version="1.0" encoding="utf-8" standalone="no"?>
<!DOCTYPE svg PUBLIC "-//W3C//DTD SVG 1.1//EN"
  "http://www.w3.org/Graphics/SVG/1.1/DTD/svg11.dtd">
<!-- Created with matplotlib (http://matplotlib.org/) -->
<svg height="288pt" version="1.1" viewBox="0 0 432 288" width="432pt" xmlns="http://www.w3.org/2000/svg" xmlns:xlink="http://www.w3.org/1999/xlink">
 <defs>
  <style type="text/css">
*{stroke-linecap:butt;stroke-linejoin:round;}
  </style>
 </defs>
 <g id="figure_1">
  <g id="patch_1">
   <path d="
M0 288
L432 288
L432 0
L0 0
z
" style="fill:#ffffff;"/>
  </g>
  <g id="axes_1">
   <g id="patch_2">
    <path d="
M54 252
L388.8 252
L388.8 28.8
L54 28.8
z
" style="fill:#eeeeee;"/>
   </g>
   <g id="matplotlib.axis_1">
    <g id="xtick_1">
     <g id="line2d_1">
      <path clip-path="url(#p124b8dd147)" d="
M54 252
L54 28.8" style="fill:none;stroke:#000000;stroke-dasharray:1.000000,3.000000;stroke-dashoffset:0.0;stroke-width:0.5;"/>
     </g>
     <g id="line2d_2">
      <defs>
       <path d="
M0 0
L0 0" id="m1d870bcb37" style="stroke:#555555;stroke-width:0.5;"/>
      </defs>
      <g>
       <use style="fill:#555555;stroke:#555555;stroke-width:0.5;" x="54.0" xlink:href="#m1d870bcb37" y="252.0"/>
      </g>
     </g>
     <g id="line2d_3">
      <g>
       <use style="fill:#555555;stroke:#555555;stroke-width:0.5;" x="54.0" xlink:href="#m1d870bcb37" y="28.8"/>
      </g>
     </g>
     <g id="text_1">
      <!-- 0.0 -->
      <defs>
       <path d="
M29.8906 70.2188
Q40.8281 70.2188 46.7031 60.8125
Q52.5938 51.4219 52.5938 34.4219
Q52.5938 17.9688 46.875 8.32812
Q41.1562 -1.3125 29.8906 -1.3125
Q19 -1.3125 13.0781 8.0625
Q7.17188 17.4375 7.17188 34.4219
Q7.17188 50.9219 12.9062 60.5625
Q18.6562 70.2188 29.8906 70.2188
M29.8906 5.71875
Q37.1094 5.71875 40.5938 12.5781
Q44.0938 19.4375 44.0938 34.4219
Q44.0938 49.4688 40.5938 56.2812
Q37.1094 63.0938 29.8906 63.0938
Q22.75 63.0938 19.2344 56.1094
Q15.7188 49.125 15.7188 34.4219
Q15.7188 19.5312 19.2031 12.625
Q22.7031 5.71875 29.8906 5.71875
M29.6875 41.75
Q32.7656 41.75 34.8906 39.625
Q37.0156 37.5 37.0156 34.4219
Q37.0156 31.25 34.8594 28.9688
Q32.7188 26.7031 29.6875 26.7031
Q26.7031 26.7031 24.5781 28.9688
Q22.4688 31.25 22.4688 34.4219
Q22.4688 37.5469 24.5312 39.6406
Q26.6094 41.75 29.6875 41.75" id="AndaleMono-30"/>
       <path d="
M29.6875 11.1875
Q32.2812 11.1875 34.0312 9.42188
Q35.7969 7.67188 35.7969 5.07812
Q35.7969 2.4375 34.0156 0.5625
Q32.2344 -1.3125 29.6875 -1.3125
Q27.2031 -1.3125 25.4375 0.5625
Q23.6875 2.4375 23.6875 5.07812
Q23.6875 7.71875 25.4219 9.45312
Q27.1562 11.1875 29.6875 11.1875" id="AndaleMono-2e"/>
      </defs>
      <g style="fill:#555555;" transform="translate(45.72734375 264.8890625)scale(0.1 -0.1)">
       <use xlink:href="#AndaleMono-30"/>
       <use x="60.009765625" xlink:href="#AndaleMono-2e"/>
       <use x="120.01953125" xlink:href="#AndaleMono-30"/>
      </g>
     </g>
    </g>
    <g id="xtick_2">
     <g id="line2d_4">
      <path clip-path="url(#p124b8dd147)" d="
M95.85 252
L95.85 28.8" style="fill:none;stroke:#000000;stroke-dasharray:1.000000,3.000000;stroke-dashoffset:0.0;stroke-width:0.5;"/>
     </g>
     <g id="line2d_5">
      <g>
       <use style="fill:#555555;stroke:#555555;stroke-width:0.5;" x="95.85" xlink:href="#m1d870bcb37" y="252.0"/>
      </g>
     </g>
     <g id="line2d_6">
      <g>
       <use style="fill:#555555;stroke:#555555;stroke-width:0.5;" x="95.85" xlink:href="#m1d870bcb37" y="28.8"/>
      </g>
     </g>
     <g id="text_2">
      <!-- 0.5 -->
      <defs>
       <path d="
M21.1875 41.1094
Q24.5156 42 27.6875 42
Q37.4531 42 43.1094 36.0156
Q48.7812 30.0312 48.7812 21.0938
Q48.7812 11.7188 42.1875 5.20312
Q35.5938 -1.3125 26.125 -1.3125
Q17.0938 -1.3125 10.9844 1.70312
L12.5938 8.5
Q19.2344 5.71875 26.3125 5.71875
Q32.625 5.71875 36.5 9.76562
Q40.375 13.8125 40.375 21.0938
Q40.375 27.9844 36.7188 31.6875
Q33.0625 35.4062 27.2969 35.4062
Q23.0938 35.4062 19 33.7969
L14.2031 35.9844
L14.2031 68.8906
L45.7031 68.8906
L45.7031 61.9219
L21.1875 61.9219
z
" id="AndaleMono-35"/>
      </defs>
      <g style="fill:#555555;" transform="translate(87.76796875 264.8890625)scale(0.1 -0.1)">
       <use xlink:href="#AndaleMono-30"/>
       <use x="60.009765625" xlink:href="#AndaleMono-2e"/>
       <use x="120.01953125" xlink:href="#AndaleMono-35"/>
      </g>
     </g>
    </g>
    <g id="xtick_3">
     <g id="line2d_7">
      <path clip-path="url(#p124b8dd147)" d="
M137.7 252
L137.7 28.8" style="fill:none;stroke:#000000;stroke-dasharray:1.000000,3.000000;stroke-dashoffset:0.0;stroke-width:0.5;"/>
     </g>
     <g id="line2d_8">
      <g>
       <use style="fill:#555555;stroke:#555555;stroke-width:0.5;" x="137.7" xlink:href="#m1d870bcb37" y="252.0"/>
      </g>
     </g>
     <g id="line2d_9">
      <g>
       <use style="fill:#555555;stroke:#555555;stroke-width:0.5;" x="137.7" xlink:href="#m1d870bcb37" y="28.8"/>
      </g>
     </g>
     <g id="text_3">
      <!-- 1.0 -->
      <defs>
       <path d="
M49.7031 0
L13.4844 0
L13.4844 6.98438
L28.0781 6.98438
L28.0781 60.5
L14.3125 53.6094
L14.3125 61.625
L29.2031 69.2812
L36.0781 69.2812
L36.0781 6.98438
L49.7031 6.98438
z
" id="AndaleMono-31"/>
      </defs>
      <g style="fill:#555555;" transform="translate(129.74296875 264.8890625)scale(0.1 -0.1)">
       <use xlink:href="#AndaleMono-31"/>
       <use x="60.009765625" xlink:href="#AndaleMono-2e"/>
       <use x="120.01953125" xlink:href="#AndaleMono-30"/>
      </g>
     </g>
    </g>
    <g id="xtick_4">
     <g id="line2d_10">
      <path clip-path="url(#p124b8dd147)" d="
M179.55 252
L179.55 28.8" style="fill:none;stroke:#000000;stroke-dasharray:1.000000,3.000000;stroke-dashoffset:0.0;stroke-width:0.5;"/>
     </g>
     <g id="line2d_11">
      <g>
       <use style="fill:#555555;stroke:#555555;stroke-width:0.5;" x="179.55" xlink:href="#m1d870bcb37" y="252.0"/>
      </g>
     </g>
     <g id="line2d_12">
      <g>
       <use style="fill:#555555;stroke:#555555;stroke-width:0.5;" x="179.55" xlink:href="#m1d870bcb37" y="28.8"/>
      </g>
     </g>
     <g id="text_4">
      <!-- 1.5 -->
      <g style="fill:#555555;" transform="translate(171.78359375 264.8890625)scale(0.1 -0.1)">
       <use xlink:href="#AndaleMono-31"/>
       <use x="60.009765625" xlink:href="#AndaleMono-2e"/>
       <use x="120.01953125" xlink:href="#AndaleMono-35"/>
      </g>
     </g>
    </g>
    <g id="xtick_5">
     <g id="line2d_13">
      <path clip-path="url(#p124b8dd147)" d="
M221.4 252
L221.4 28.8" style="fill:none;stroke:#000000;stroke-dasharray:1.000000,3.000000;stroke-dashoffset:0.0;stroke-width:0.5;"/>
     </g>
     <g id="line2d_14">
      <g>
       <use style="fill:#555555;stroke:#555555;stroke-width:0.5;" x="221.4" xlink:href="#m1d870bcb37" y="252.0"/>
      </g>
     </g>
     <g id="line2d_15">
      <g>
       <use style="fill:#555555;stroke:#555555;stroke-width:0.5;" x="221.4" xlink:href="#m1d870bcb37" y="28.8"/>
      </g>
     </g>
     <g id="text_5">
      <!-- 2.0 -->
      <defs>
       <path d="
M47.9062 0
L10.0156 0
L10.0156 5.8125
Q24.4219 21.875 28.7188 27.3438
Q33.0156 32.8125 35.6875 38.8125
Q38.375 44.8281 38.375 50.7812
Q38.375 56.5469 34.875 59.8594
Q31.3906 63.1875 25.0938 63.1875
Q20.2656 63.1875 12.1094 60.2031
L10.9844 67.0938
Q18.3594 70.2188 26.4219 70.2188
Q35.6406 70.2188 41.2812 65.0156
Q46.9219 59.8125 46.9219 51.125
Q46.9219 44.9219 44.0156 38.8125
Q41.1094 32.7188 36.5625 27.0938
Q32.0312 21.4844 18.8906 6.98438
L47.9062 6.98438
z
" id="AndaleMono-32"/>
      </defs>
      <g style="fill:#555555;" transform="translate(213.26953125 264.8890625)scale(0.1 -0.1)">
       <use xlink:href="#AndaleMono-32"/>
       <use x="60.009765625" xlink:href="#AndaleMono-2e"/>
       <use x="120.01953125" xlink:href="#AndaleMono-30"/>
      </g>
     </g>
    </g>
    <g id="xtick_6">
     <g id="line2d_16">
      <path clip-path="url(#p124b8dd147)" d="
M263.25 252
L263.25 28.8" style="fill:none;stroke:#000000;stroke-dasharray:1.000000,3.000000;stroke-dashoffset:0.0;stroke-width:0.5;"/>
     </g>
     <g id="line2d_17">
      <g>
       <use style="fill:#555555;stroke:#555555;stroke-width:0.5;" x="263.25" xlink:href="#m1d870bcb37" y="252.0"/>
      </g>
     </g>
     <g id="line2d_18">
      <g>
       <use style="fill:#555555;stroke:#555555;stroke-width:0.5;" x="263.25" xlink:href="#m1d870bcb37" y="28.8"/>
      </g>
     </g>
     <g id="text_6">
      <!-- 2.5 -->
      <g style="fill:#555555;" transform="translate(255.31015625 264.8890625)scale(0.1 -0.1)">
       <use xlink:href="#AndaleMono-32"/>
       <use x="60.009765625" xlink:href="#AndaleMono-2e"/>
       <use x="120.01953125" xlink:href="#AndaleMono-35"/>
      </g>
     </g>
    </g>
    <g id="xtick_7">
     <g id="line2d_19">
      <path clip-path="url(#p124b8dd147)" d="
M305.1 252
L305.1 28.8" style="fill:none;stroke:#000000;stroke-dasharray:1.000000,3.000000;stroke-dashoffset:0.0;stroke-width:0.5;"/>
     </g>
     <g id="line2d_20">
      <g>
       <use style="fill:#555555;stroke:#555555;stroke-width:0.5;" x="305.1" xlink:href="#m1d870bcb37" y="252.0"/>
      </g>
     </g>
     <g id="line2d_21">
      <g>
       <use style="fill:#555555;stroke:#555555;stroke-width:0.5;" x="305.1" xlink:href="#m1d870bcb37" y="28.8"/>
      </g>
     </g>
     <g id="text_7">
      <!-- 3.0 -->
      <defs>
       <path d="
M34.2812 37.0156
Q40.5781 35.25 44.375 30.5781
Q48.1875 25.9219 48.1875 20.125
Q48.1875 11.0312 41.1094 4.85938
Q34.0312 -1.3125 24.4219 -1.3125
Q16.2188 -1.3125 9.71875 2.29688
L11.2812 8.89062
Q18.0625 5.71875 24.7031 5.71875
Q30.9531 5.71875 35.375 9.59375
Q39.7969 13.4844 39.7969 19.5781
Q39.7969 25.5938 35.0625 29.3438
Q30.3281 33.1094 22.5156 33.1094
L20.4062 33.1094
L20.4062 39.7031
L21 39.7031
Q28.5156 39.7031 33.3906 43.2344
Q38.2812 46.7812 38.2812 52.7812
Q38.2812 57.6719 34.7656 60.4219
Q31.25 63.1875 25.0938 63.1875
Q19.7812 63.1875 13.1875 60.2969
L12.1094 67.1875
Q18.75 70.2188 25.4844 70.2188
Q34.7188 70.2188 40.7031 65.3594
Q46.6875 60.5 46.6875 52.875
Q46.6875 47.6094 43.0469 43.0469
Q39.4062 38.4844 34.2812 37.3125
z
" id="AndaleMono-33"/>
      </defs>
      <g style="fill:#555555;" transform="translate(296.9546875 264.8890625)scale(0.1 -0.1)">
       <use xlink:href="#AndaleMono-33"/>
       <use x="60.009765625" xlink:href="#AndaleMono-2e"/>
       <use x="120.01953125" xlink:href="#AndaleMono-30"/>
      </g>
     </g>
    </g>
    <g id="xtick_8">
     <g id="line2d_22">
      <path clip-path="url(#p124b8dd147)" d="
M346.95 252
L346.95 28.8" style="fill:none;stroke:#000000;stroke-dasharray:1.000000,3.000000;stroke-dashoffset:0.0;stroke-width:0.5;"/>
     </g>
     <g id="line2d_23">
      <g>
       <use style="fill:#555555;stroke:#555555;stroke-width:0.5;" x="346.95" xlink:href="#m1d870bcb37" y="252.0"/>
      </g>
     </g>
     <g id="line2d_24">
      <g>
       <use style="fill:#555555;stroke:#555555;stroke-width:0.5;" x="346.95" xlink:href="#m1d870bcb37" y="28.8"/>
      </g>
     </g>
     <g id="text_8">
      <!-- 3.5 -->
      <g style="fill:#555555;" transform="translate(338.9953125 264.8890625)scale(0.1 -0.1)">
       <use xlink:href="#AndaleMono-33"/>
       <use x="60.009765625" xlink:href="#AndaleMono-2e"/>
       <use x="120.01953125" xlink:href="#AndaleMono-35"/>
      </g>
     </g>
    </g>
    <g id="xtick_9">
     <g id="line2d_25">
      <path clip-path="url(#p124b8dd147)" d="
M388.8 252
L388.8 28.8" style="fill:none;stroke:#000000;stroke-dasharray:1.000000,3.000000;stroke-dashoffset:0.0;stroke-width:0.5;"/>
     </g>
     <g id="line2d_26">
      <g>
       <use style="fill:#555555;stroke:#555555;stroke-width:0.5;" x="388.8" xlink:href="#m1d870bcb37" y="252.0"/>
      </g>
     </g>
     <g id="line2d_27">
      <g>
       <use style="fill:#555555;stroke:#555555;stroke-width:0.5;" x="388.8" xlink:href="#m1d870bcb37" y="28.8"/>
      </g>
     </g>
     <g id="text_9">
      <!-- 4.0 -->
      <defs>
       <path d="
M52.3906 15.9219
L43.8906 15.9219
L43.8906 0
L35.8906 0
L35.8906 15.9219
L5.90625 15.9219
L5.90625 22.0156
L33.1094 68.8906
L43.8906 68.8906
L43.8906 22.9062
L52.3906 22.9062
z

M35.8906 22.9062
L35.8906 60.9844
L14.0156 22.9062
z
" id="AndaleMono-34"/>
      </defs>
      <g style="fill:#555555;" transform="translate(380.4640625 264.8890625)scale(0.1 -0.1)">
       <use xlink:href="#AndaleMono-34"/>
       <use x="60.009765625" xlink:href="#AndaleMono-2e"/>
       <use x="120.01953125" xlink:href="#AndaleMono-30"/>
      </g>
     </g>
    </g>
    <g id="text_10">
     <!-- 違反法令項數 / 實施檢查廠次 -->
     <defs>
      <path d="
M6.20312 60.2969
C5.40625 60.2969 5 59.7031 5 58.7031
L5 55.5938
C5 54.5 5.40625 54 6.20312 54
L16.2969 54
C15.2969 49.5 14.5 46.2031 13.9062 44
C12.9062 40.5938 11.7031 37.0938 10.2031 33.5938
C8.59375 29.7969 6.5 25.9062 3.90625 22
C3.90625 21.5938 4.09375 21.5 4.70312 21.5
C6.09375 20.7031 7.5 20 8.90625 19.4062
C9.20312 19 9.70312 18.9062 10.5 18.9062
C12.4062 21.9062 14.0938 25.2969 15.5938 29
C16.0938 30.2031 16.5938 31.4062 17.0938 32.7969
L17.0938 -7.29688
C17.0938 -8.09375 17.5938 -8.5 18.7031 -8.5
L22.5938 -8.5
C23.5938 -8.5 24.2031 -8.09375 24.2031 -7.29688
L24.2031 40.9062
C24.2969 40.5 24.4062 40.0938 24.5938 39.7031
C26.0938 35.7031 27.9062 32.0938 29.9062 28.9062
C30.2969 28.4062 30.5938 28.2031 30.7969 28.2031
C31 28.2031 31.4062 28.4062 31.7969 29
C32.9062 30 33.7969 30.9062 34.4062 31.7969
C34.7969 32 35.0938 32.2969 35.0938 32.5
C35.0938 32.9062 34.9062 33.2031 34.5938 33.5
C31.5938 37.7031 29.5938 41.5 28.4062 44.7969
C27.4062 47 26.4062 50.0938 25.4062 54
L34.2969 54
C35.0938 54 35.5 54.5 35.5 55.5938
L35.5 58.7031
C35.5 59.7031 35.0938 60.2969 34.2969 60.2969
L24.2031 60.2969
L24.2031 77.0938
C24.2031 78.2969 24.5 79 25.0938 79.0938
C25.7031 79.2031 26.0938 79.7031 26.0938 80.5938
C26.0938 81.4062 23.5938 81.7969 18.7031 81.7969
C17.5938 81.7969 17.0938 81.4062 17.0938 80.5938
L17.0938 60.2969
z

M64.4062 82.0938
C64 82.0938 63.5938 81.7969 63.2031 81.2031
C62 78.2031 60.5938 75.5 59.0938 73.0938
C57.7031 70.7969 56 68.4062 53.9062 66
C50.5938 62.2031 47.4062 59.2031 44.2031 56.7969
C41.9062 55 39 53.2031 35.5 51.4062
C35.2031 51.2031 35.0938 51 35.0938 50.9062
C35.0938 50.5938 35.4062 50.2969 36 50
C37 49 38 47.9062 38.7969 46.7031
C39.0938 46.0938 39.5938 45.7969 40.2031 45.7969
C41.7031 46.7031 43.7031 48.2031 46.2969 50.2031
C47.2969 51.0938 48.5 52.0938 49.7031 53.2969
C49.5938 53.0938 49.5938 52.7969 49.5938 52.5
L49.5938 49.2969
C49.5938 48.2969 49.7969 47.7969 50.2969 47.7969
L79.5938 47.7969
C80.0938 47.7969 80.4062 48.2969 80.4062 49.2969
L80.4062 52.5
C80.4062 53.2031 80.0938 53.5938 79.5938 53.5938
L50.2969 53.5938
C50.2031 53.5938 50.0938 53.5 50.0938 53.5
C51.2969 54.5938 52.5 55.7969 53.7969 57.2031
C56.2969 59.7031 58.4062 62.2031 60.2031 64.7031
C61.5938 66.5 63.2031 68.7031 64.7969 71.0938
C67.4062 67.0938 69.7031 63.9062 71.9062 61.5
C75 57.9062 78.4062 54.7969 82.0938 52.4062
C84.7031 50.4062 88.0938 48.5938 92.0938 47
C92.4062 47 92.7031 47.2031 93 47.7031
C94.0938 48.7031 95.2969 49.7969 96.7031 50.9062
C97 51.2031 97.2031 51.5938 97.2031 52.0938
C97.2031 52.2969 96.7969 52.5 96.2031 52.7031
C90.9062 54.5938 86.4062 57.0938 82.5938 60.2031
C79.7969 62.0938 77.0938 64.5938 74.4062 67.7969
C72.4062 70.2031 70.5 73.0938 68.5 76.2969
C68.9062 76.5 69.5 76.7031 70.2969 76.7031
C71.2969 76.7031 71.7969 77 71.7969 77.7969
C71.7969 78.0938 71.5 78.5 70.9062 79
z

M41 41.0938
C39.9062 41.0938 39.4062 40.7031 39.4062 40
L39.4062 20.4062
C39.4062 19.5938 39.9062 19.2969 41 19.2969
L61.2969 19.2969
C62.2969 19.2969 62.7969 19.5938 62.7969 20.4062
L62.7969 40
C62.7969 40.7031 62.2969 41.0938 61.2969 41.0938
z

M56.2031 25.0938
L46 25.0938
L46 35.2969
L56.2031 35.2969
z

M69.9062 41.0938
C68.7969 41.0938 68.2969 40.7031 68.2969 40
L68.2969 20.4062
C68.2969 19.5938 68.7969 19.2969 69.9062 19.2969
L89.7969 19.2969
C90.7969 19.2969 91.4062 19.5938 91.4062 20.4062
L91.4062 40
C91.4062 40.7031 90.7969 41.0938 89.7969 41.0938
z

M84.7031 25.0938
L75 25.0938
L75 35.2969
L84.7031 35.2969
z

M48.7969 18.5
C48.5 18.5 48.2031 18.2969 48 17.9062
C46.9062 14.2031 45.7969 11.2031 44.7031 8.79688
C43.5938 6.5 42.2969 4.40625 40.9062 2.40625
C38.5 -1 35.7969 -3.90625 32.7031 -6.29688
C32.5 -6.40625 32.4062 -6.59375 32.4062 -6.90625
C32.4062 -7.09375 32.5938 -7.29688 33 -7.5
C34.2031 -7.90625 35.4062 -8.29688 36.5938 -8.90625
C37.2031 -9.09375 37.7969 -9.29688 38.5938 -9.29688
C40.5938 -7.70312 42.4062 -5.90625 44.0938 -4
C45.7969 -1.79688 47.4062 0.5 48.9062 3
C49.0938 3.29688 49.2969 3.70312 49.5938 4.20312
C52.7969 1.70312 56.2031 -1.20312 59.7031 -4.79688
C60.0938 -5.40625 60.5 -5.70312 60.9062 -5.70312
C61.2969 -5.70312 61.9062 -5.5 62.5 -5.20312
L64.5 -2.40625
C64.7031 -2.09375 64.7969 -1.79688 64.7969 -1.5
C64.7969 -0.90625 64.5938 -0.40625 64.2031 -0.09375
C60.2031 3.90625 56.2031 7.40625 52.4062 10.2031
C52.7969 11 53.2031 11.9062 53.5938 12.9062
C53.7969 13.5 54.2031 13.7969 55 13.7969
C55.5 14 55.7969 14.4062 55.7969 15
C55.7969 15.2031 55.4062 15.5938 54.7969 16.2031
z

M78.9062 18.5
C78.5938 18.5 78.4062 18.2969 78.2031 17.9062
C77.2031 14.2031 76.2031 11.2031 75.2031 8.79688
C74.2969 6.5 73.2031 4.40625 71.9062 2.40625
C69.7969 -1 67.4062 -3.90625 64.7031 -6.29688
C64.5 -6.40625 64.4062 -6.59375 64.4062 -6.90625
C64.4062 -7.09375 64.5938 -7.29688 65 -7.5
C66.2031 -7.90625 67.4062 -8.29688 68.7031 -8.90625
C69.2031 -9.09375 69.9062 -9.29688 70.7031 -9.29688
C72.2969 -7.70312 73.9062 -5.90625 75.5 -4
C76.9062 -1.79688 78.2031 0.40625 79.5938 2.79688
C83.0938 0 86.7031 -3.29688 90.5 -7.40625
C91 -8.09375 91.4062 -8.5 91.7031 -8.5
C92.2031 -8.5 92.7969 -8.29688 93.4062 -7.90625
L95.2969 -5.09375
C95.5 -4.90625 95.7031 -4.59375 95.7031 -4.20312
C95.7031 -3.59375 95.4062 -3.09375 95 -2.70312
C90.7031 1.90625 86.5 5.79688 82.4062 9
C82.7969 10.0938 83.2031 11.4062 83.7969 12.9062
C84 13.5 84.4062 13.7969 85.0938 13.7969
C85.5938 14 85.9062 14.4062 85.9062 15
C85.9062 15.2031 85.5 15.5938 84.9062 16.2031
z
" id="DFHeiStd-W5-6aa2"/>
      <path d="
M48.7969 81.7969
C47.7031 81.7969 47.2031 81.4062 47.2031 80.5938
L47.2031 74.7031
L8.90625 74.7031
C7.90625 74.7031 7.40625 74.2969 7.40625 73.5
L7.40625 59.5
C7.40625 58.7031 7.90625 58.2969 8.90625 58.2969
L12.7969 58.2969
C13.7969 58.2969 14.4062 58.7031 14.4062 59.5
L14.4062 69.2969
L85.5 69.2969
L85.5 59.5
C85.5 58.7031 86 58.2969 87.0938 58.2969
L91 58.2969
C92 58.2969 92.5 58.7031 92.5 59.5
L92.5 73.5
C92.5 74.2969 92 74.7031 91 74.7031
L54.2031 74.7031
L54.2031 77.0938
C54.2031 78.2969 54.5 79 55.2031 79.0938
C55.7969 79.2031 56.2031 79.7031 56.2031 80.5938
C56.2031 81.4062 53.7031 81.7969 48.7969 81.7969
M25.2969 64.5938
C24.2969 64.5938 23.7969 64.2031 23.7969 63.4062
L23.7969 54
L6.20312 54
C5.59375 54 5.40625 53.5938 5.40625 52.7969
L5.40625 50.5
C5.40625 49.4062 5.59375 48.9062 6.20312 48.9062
L23.7969 48.9062
L23.7969 39.5938
C23.7969 38.7969 24.2969 38.4062 25.2969 38.4062
L76.5 38.4062
C77.5 38.4062 78.0938 38.7969 78.0938 39.5938
L78.0938 48.9062
L93.7031 48.9062
C94.2031 48.9062 94.5 49.4062 94.5 50.5
L94.5 52.7969
C94.5 53.5938 94.2031 54 93.7031 54
L78.0938 54
L78.0938 63.4062
C78.0938 64.2031 77.5 64.5938 76.5 64.5938
z

M71.4062 43.0938
L53.5 43.0938
L53.5 48.9062
L71.4062 48.9062
z

M46.7969 43.0938
L30.4062 43.0938
L30.4062 48.9062
L46.7969 48.9062
z

M30.4062 54
L30.4062 59.9062
L46.7969 59.9062
L46.7969 54
z

M53.5 59.9062
L71.4062 59.9062
L71.4062 54
L53.5 54
z

M23.7969 33.7031
C22.7031 33.7031 22.2031 33.2969 22.2031 32.5
L22.2031 2.79688
C22.2031 2 22.7031 1.70312 23.7969 1.70312
L36.2031 1.70312
C32 -0.09375 27.9062 -1.70312 23.9062 -2.90625
C20.5938 -3.79688 16.7031 -4.70312 12.2969 -5.59375
C11.5938 -5.59375 11.2969 -5.79688 11.2969 -6.09375
C11.2969 -6.40625 11.4062 -6.79688 11.7969 -7.20312
C12.7031 -7.79688 13.4062 -8.5 13.7969 -9.29688
C14 -9.70312 14.5 -10 15.2031 -10
C23.7031 -8.40625 31.9062 -6.40625 39.7969 -3.79688
C39.7969 -3.40625 40.4062 -3.29688 41.5938 -3.29688
C42.2031 -3.29688 42.5 -3 42.5 -2.59375
C42.5 -2.20312 41.0938 -0.703125 38.2969 1.70312
L61.9062 1.70312
C61.9062 1.70312 61.7969 1.59375 61.5938 1.40625
C59.5 -1.20312 58.5 -2.59375 58.5 -3
C61.2969 -3.40625 64.7969 -4.20312 69 -5.40625
C74.0938 -6.79688 78.9062 -8.29688 83.5 -10
C83.5938 -10 84.5938 -8.59375 86.5938 -5.79688
C86.9062 -5.29688 87.0938 -5 87.0938 -5
C84.0938 -3.90625 80.5 -2.70312 76.2969 -1.40625
C73.0938 -0.40625 69 0.5 64.2031 1.70312
L76.9062 1.70312
C77.9062 1.70312 78.5 2 78.5 2.79688
L78.5 32.5
C78.5 33.2969 77.9062 33.7031 76.9062 33.7031
z

M71.4062 6.40625
L29.2031 6.40625
L29.2031 10.7031
L71.4062 10.7031
z

M29.2031 15
L29.2031 20
L71.4062 20
L71.4062 15
z

M29.2031 24.2969
L29.2031 29
L71.4062 29
L71.4062 24.2969
z
" id="DFHeiStd-W5-5be6"/>
      <path d="
M8.20312 70.7969
C7.40625 70.7969 7 70.2969 7 69.2969
L7 66.0938
C7 65.0938 7.40625 64.5938 8.20312 64.5938
L43.9062 64.5938
C38.5938 59 34.4062 55.0938 31.2969 52.7031
C26 48.5 20.9062 45.2031 16 42.7969
C12.5938 41 8.29688 39.2031 3.09375 37.2031
C3.09375 37 3.20312 36.5938 3.40625 36.2031
C4.59375 35.0938 5.90625 34 7.20312 32.7969
C7.59375 32.2969 8.09375 32.0938 8.90625 32.0938
C14.4062 34.4062 19.9062 37.2031 25.5 40.5938
C30.2969 43.5938 34.7031 47 38.9062 50.5938
C41.2969 52.5938 44 55.2969 47.2031 58.5938
L47.2031 41.5
L28.5 41.5
C27.4062 41.5 26.9062 41.0938 26.9062 40.2969
L26.9062 7.5
C26.9062 6.70312 27.4062 6.40625 28.5 6.40625
L74.2031 6.40625
C75.2031 6.40625 75.7031 6.70312 75.7031 7.5
L75.7031 39.5
C76.0938 39.2031 76.5938 38.9062 77.0938 38.7031
C80.9062 36.4062 85.5938 34.2969 91.4062 32.5
C91.5938 32.5 91.9062 32.7031 92.2969 33.2969
C93.5 34.5 94.7969 35.5938 96.2969 36.7969
C96.5938 37.0938 96.7969 37.5 96.7969 38
C96.7969 38.2969 96.2969 38.5 95.5 38.7031
C87.9062 40.9062 81.5 43.7031 76.2031 47.2031
C72.2969 49.4062 68.4062 52.2969 64.5 55.9062
C61.9062 58.2969 59.2969 61.2031 56.7969 64.5938
L91.7031 64.5938
C92.5 64.5938 92.9062 65.0938 92.9062 66.0938
L92.9062 69.2969
C92.9062 70.2969 92.5 70.7969 91.7031 70.7969
L54.2031 70.7969
L54.2031 77.0938
C54.2031 78.2969 54.5 79 55.2031 79.0938
C55.7969 79.2031 56.2031 79.7031 56.2031 80.5938
C56.2031 81.4062 53.7031 81.7969 48.7969 81.7969
C47.7031 81.7969 47.2031 81.4062 47.2031 80.5938
L47.2031 70.7969
z

M54.2031 41.5
L54.2031 58.0938
C57.2031 54.5 60 51.5 62.5938 49.0938
C65.5938 46.2969 68.7969 43.7031 72.4062 41.5
z

M68.7031 12.5938
L33.9062 12.5938
L33.9062 20.7969
L68.7031 20.7969
z

M33.9062 27.0938
L33.9062 35.2969
L68.7031 35.2969
L68.7031 27.0938
z

M7 0.5
C6.20312 0.5 5.79688 0 5.79688 -1.09375
L5.79688 -4.20312
C5.79688 -5.20312 6.20312 -5.70312 7 -5.70312
L93.2969 -5.70312
C94.0938 -5.70312 94.5 -5.20312 94.5 -4.20312
L94.5 -1.09375
C94.5 0 94.0938 0.5 93.2969 0.5
z
" id="DFHeiStd-W5-67e5"/>
      <path d="
M27 70.9062
L21.5938 72.5
L0.796875 -6.79688
L6.40625 -8.29688
z
" id="DFHeiStd-W5-2f"/>
      <path d="
M13.5938 79.7969
C13.4062 79.7969 13.0938 79.5 12.7969 79.0938
C10.7031 76.5 9.70312 75.0938 9.70312 74.7031
C11.7031 73.9062 14.2031 72.7031 17.2031 71
C20.9062 68.7969 24.4062 66.4062 27.7031 63.7969
C27.7031 63.7969 28.7031 65.2031 30.7031 68
C31 68.4062 31.2031 68.7031 31.2031 68.9062
C29 70.5 26.5 72.4062 23.5 74.4062
C20.9062 76 17.5938 77.7969 13.5938 79.7969
M8.5 57.0938
C8.29688 57.0938 8 56.9062 7.70312 56.5
C5.59375 53.9062 4.59375 52.4062 4.59375 52.0938
C6.70312 51.2969 9.29688 50.2031 12.5 48.5938
C16.2969 46.5938 20 44.2969 23.4062 41.9062
C23.4062 41.9062 24.4062 43.2969 26.4062 46.2031
C26.7031 46.5938 26.9062 46.7969 26.9062 47
C24.7031 48.5 22 50.2031 18.7969 52.2031
C16.0938 53.7031 12.7031 55.2969 8.5 57.0938
M25.7031 35.2969
C25.5 35.2969 25.2031 35 25 34.4062
C23.2969 30.5938 21.2969 26.4062 19 21.7969
C16.2969 16.5 13.5938 11.7969 10.7969 7.59375
C8.79688 4.5 6.70312 2 4.70312 0
C4.29688 -0.40625 4.20312 -0.90625 4.20312 -1.5
C4.29688 -2 4.5 -2.40625 4.90625 -2.59375
C8.59375 -6.79688 10.7031 -8.90625 11.2969 -8.90625
C11.7969 -8.90625 12.0938 -8.5 12.0938 -7.70312
C12.0938 -6.09375 12.2969 -4.90625 12.7031 -4
C15.0938 -0.203125 17.0938 3.29688 18.7031 6.5
C21.7031 12.0938 24.9062 19 28.2969 27.0938
C28.7031 27.5 28.9062 28 28.9062 28.5938
C28.9062 28.7969 28 30.7969 26.4062 34.4062
C26.2031 35 26 35.2969 25.7031 35.2969
M37.5 64.5938
C36.7031 64.5938 36.2969 64 36.2969 63
L36.2969 59.9062
C36.2969 58.7969 36.7031 58.2969 37.5 58.2969
L60.0938 58.2969
L60.0938 40.2969
L33.9062 40.2969
C33.0938 40.2969 32.7969 39.7969 32.7969 38.7969
L32.7969 35.7031
C32.7969 34.5938 33.0938 34.0938 33.9062 34.0938
L94.0938 34.0938
C94.9062 34.0938 95.2969 34.5938 95.2969 35.7031
L95.2969 38.7969
C95.2969 39.7969 94.9062 40.2969 94.0938 40.2969
L67.0938 40.2969
L67.0938 58.2969
L91.4062 58.2969
C92.0938 58.2969 92.5 58.7969 92.5 59.9062
L92.5 63
C92.5 64 92.0938 64.5938 91.4062 64.5938
L67.0938 64.5938
L67.0938 77.5
C67.0938 78.7031 67.4062 79.4062 68.0938 79.5
C68.7031 79.5938 69.0938 80.0938 69.0938 81
C69.0938 81.7031 66.5938 82.0938 61.7031 82.0938
C60.5938 82.0938 60.0938 81.7031 60.0938 81
L60.0938 64.5938
z

M57.7969 33.2969
C57.2031 33.2969 56.7031 33 56.5 32.5
C55.0938 28.5 53.2969 24.4062 51.2031 20.2969
C49.7031 17.5 46.2969 11.7031 41 3
C37.2969 2.70312 34 2.5 31.2031 2.5
C32.5938 -4.79688 33.7031 -8.5 34.7031 -8.5
C35.5 -8.5 36 -7.90625 36.2969 -6.90625
C36.5 -6.09375 37.0938 -5.70312 37.9062 -5.70312
C45.2031 -4.79688 61 -2.40625 85.2969 1.5
C87.0938 -2.59375 88.4062 -6.20312 89 -9.29688
C93.5938 -8 96 -7.20312 96 -6.90625
C94.2969 -1.5 92.2031 3.5 89.7031 8.29688
C87.0938 13.5 83.7969 19.2969 79.5938 25.5
C75.7031 23.5938 73.7969 22.4062 73.7969 22
C77.2969 17.0938 80.2969 12.0938 82.7031 7.09375
C69.5 5.5 58.0938 4.40625 48.7031 3.59375
C55.0938 13.2969 60.0938 20.9062 63.7031 26.2969
C64 27 64.7969 27.4062 66 27.5
C66.7031 27.5 67.0938 27.7031 67.0938 28.2031
C67.0938 28.7969 64.4062 30.4062 59.2031 33
C58.7031 33.2031 58.2031 33.2969 57.7969 33.2969" id="DFHeiStd-W5-6cd5"/>
      <path d="
M7.40625 69.5938
C6.59375 69.5938 6.20312 69.0938 6.20312 68.0938
L6.20312 64.2031
C6.20312 63.0938 6.59375 62.5938 7.40625 62.5938
L26.5 62.5938
C27.2969 62.5938 27.7031 63.0938 27.7031 64.2031
L27.7031 68.0938
C27.7031 69.0938 27.2969 69.5938 26.5 69.5938
z

M26.9062 29.4062
C26.7031 29.4062 26.4062 29.2031 26.2031 28.7969
C24.4062 25.7969 22.4062 22.5938 20.0938 19.0938
C17.2969 15.0938 14.5 11.4062 11.7031 8.20312
C9.59375 5.79688 7.5 3.90625 5.5 2.40625
C5.09375 2.09375 5 1.70312 5 1.29688
C5.09375 0.703125 5.29688 0.40625 5.70312 0.203125
C9.40625 -4 11.5 -6.09375 12.0938 -6.09375
C12.5 -6.09375 12.7969 -5.70312 12.7969 -5
C12.7969 -3.79688 13 -2.79688 13.5 -2.09375
C15.9062 0.703125 17.9062 3.40625 19.7031 5.90625
C22.7031 10.2031 26 15.4062 29.5 21.5938
C29.7969 21.9062 30 22.2969 30 22.7969
C30 23 29.0938 25 27.5 28.5938
C27.4062 29.0938 27.2031 29.4062 26.9062 29.4062
M48.7969 81.4062
C48.4062 81.4062 48.0938 81.0938 47.9062 80.5
C46.5938 75 45.2969 70.5 44 67
C42.7969 63.5938 41.2969 60.5 39.5938 57.5938
C36.7969 52.5 33.5938 48.2031 30.0938 44.7031
C29.7031 44.5 29.5938 44.2031 29.5938 43.9062
C29.5938 43.5938 29.7969 43.4062 30.2969 43.2031
C31.7031 42.5938 33 42.0938 34.4062 41.5
C35 41.2031 35.7969 41.0938 36.7031 41.0938
C38.9062 43.5 41.0938 46.0938 43.0938 49
C45 52.4062 46.9062 55.9062 48.7031 59.5938
C49 60.2031 49.2969 61 49.7031 61.7969
L86.2969 61.7969
L75.2969 41.9062
C75.2969 41.0938 77.2031 40.2031 81.2031 39.2031
C81.5938 39.2031 81.9062 39.4062 82.2031 39.9062
L95.7031 65
C95.7031 65.5938 95 66.4062 93.5938 67.5938
C93.2969 67.9062 92.7031 68.0938 91.7031 68.0938
L52 68.0938
C52.5938 70 53.2969 72.2031 54.0938 74.5938
C54.2969 75.4062 54.7969 75.9062 55.7969 75.9062
C56.5938 76.0938 57 76.7031 57 77.5
C57 77.7969 56.5938 78.2031 55.9062 78.7969
z

M58.5 55.5938
C58 55.5938 57.7031 54.7969 57.5938 53.4062
C57.5938 47.5938 57.2031 42.7031 56.4062 38.5
C55.5938 33.0938 54.5938 28.7031 53.2969 25.0938
C51.9062 21.2031 50.2031 17.7969 48.4062 15
C45.7969 11 42.7969 7.70312 39.2969 5.09375
C36.4062 2.5 33.2031 0.703125 29.7031 -0.5
C29.2969 -0.703125 29.2031 -1.20312 29.2031 -1.79688
C29.2031 -2 29.4062 -2.40625 29.7969 -2.90625
C31 -4.29688 32.0938 -5.59375 33 -7
C33.4062 -7.70312 34.2031 -8.09375 35.5 -8.09375
C38.7031 -6.29688 41.2969 -4.59375 43.2969 -3.09375
C46.2969 -0.296875 49.2969 3.09375 52.2031 7.40625
C54.7969 10.7031 56.9062 14.5938 58.5938 19.2031
C58.9062 20.2031 59.2969 21.2031 59.7031 22.4062
C60.5 19.4062 61.5938 16.7969 62.7969 14.5938
C64.4062 11.4062 66.4062 8.40625 68.7031 5.70312
C70.9062 2.5 73.5 0 76.5 -1.90625
C78.2969 -3.40625 82.2031 -5.59375 88.2031 -8.5
C88.4062 -8.5 88.9062 -8.20312 89.5 -7.59375
C90.5938 -6.20312 91.7969 -4.90625 93.0938 -3.59375
C93.7031 -3.20312 94.0938 -2.79688 94.0938 -2.20312
C89.5938 -0.796875 85.7031 0.90625 82.4062 3.20312
C79.5 5 76.7031 7.40625 74.0938 10.5
C72 12.7969 70.2031 15.2969 68.7969 18.0938
C67.2031 21.2969 66 24.7031 65 28.2969
C64.2031 31.7031 63.7031 35.5 63.5938 39.7969
C64 42.7031 64.4062 46.0938 64.7969 50.0938
C64.9062 51 65.4062 51.7031 66.2969 52.2969
C66.7969 52.9062 67.0938 53.2969 67.0938 53.5938
C67.0938 54 66.7031 54.2031 66.0938 54.4062
z
" id="DFHeiStd-W5-6b21"/>
      <path d="
M11.7031 75.9062
C10.5938 75.9062 10.0938 75.5 10.0938 74.7031
L10.0938 65
L5 65
C4.40625 65 4.20312 64.5938 4.20312 63.7969
L4.20312 60.7031
C4.20312 59.9062 4.40625 59.5 5 59.5
L10.0938 59.5
L10.0938 49.7031
C10.0938 48.9062 10.5938 48.5 11.7031 48.5
L27.7031 48.5
L27.7031 43.5
L11.7031 43.5
C10.5938 43.5 10.0938 43.0938 10.0938 42.2969
L10.0938 27.5
C10.0938 26.7031 10.5938 26.2969 11.7031 26.2969
L23.5938 26.2969
C23.4062 26.0938 23.2969 25.7969 23.2031 25.5938
C22.4062 24 21.4062 22.4062 20.4062 20.7969
L5 20.7969
C4.40625 20.7969 4.20312 20.4062 4.20312 19.5938
L4.20312 16.5
C4.20312 15.7031 4.40625 15.2969 5 15.2969
L16.7031 15.2969
C15.0938 13 12.9062 10.2031 10.0938 6.79688
C10.0938 6.29688 10.2031 6 10.5 5.90625
C11.9062 5.5 13.0938 5 14.2969 4.5
C14.5 4.09375 15 4 15.5938 4
C16.2031 4.59375 16.7969 5.29688 17.5 6.09375
C21.2969 4.90625 24.9062 3.79688 28.4062 2.59375
C28.5938 2.5 28.9062 2.40625 29.2969 2.20312
C26.9062 1.20312 24.2031 0.203125 21 -0.703125
C18.2031 -1.40625 15.7031 -1.90625 13.2969 -2.29688
C11.4062 -2.70312 9.90625 -3 8.90625 -3
C8.90625 -3.40625 9.09375 -3.79688 9.70312 -4.20312
C10.7031 -6 11.7031 -7.40625 12.5 -8.59375
C12.5 -9 12.9062 -9.29688 13.5938 -9.29688
C19.2031 -8 24 -6.59375 28.0938 -5
C31.2969 -3.70312 34.0938 -2.40625 36.5 -1
C36.5 -1 36.5 -0.90625 36.5938 -0.90625
C36.7031 -0.90625 36.9062 -1 37.2031 -1.20312
C41.7031 -3.20312 46 -5.70312 50 -8.59375
C50.2969 -8.79688 50.7031 -8.90625 51.0938 -8.90625
C53.2031 -7.5 54.5938 -6.5 55.4062 -5.90625
C56.2031 -6.70312 57.0938 -7.70312 58.2031 -8.90625
C63.2969 -6.29688 67.5 -3.5 70.7031 -0.5
C72.4062 0.90625 74.0938 2.59375 75.7031 4.5
C76.9062 2.79688 78.2969 1.09375 80 -0.59375
C83 -3.79688 86 -6.5 89 -8.90625
C89.7031 -8.90625 90.2969 -8.59375 90.7969 -8.20312
C92.2031 -7.09375 93.5 -6.09375 94.7031 -5.29688
C95.2969 -4.90625 95.7031 -4.59375 95.7031 -4.20312
C90.7031 -0.703125 86.5 2.90625 83 6.90625
C81.9062 8.09375 80.9062 9.40625 80 10.7969
C82.7969 16 85 22.5938 86.5938 30.5938
C87.7969 36.4062 88.5 45.5 88.9062 57.9062
L93.2969 57.9062
C94.0938 57.9062 94.5 58.4062 94.5 59.5
L94.5 62.5938
C94.5 63.5938 94.0938 64.2031 93.2969 64.2031
L69.5938 64.2031
C70.4062 67.7031 71.2031 71.7031 72.2031 76.2969
C73.5 77.0938 74.2031 77.7969 74.2031 78.2031
C74.2031 78.7969 73.7969 79.2969 73.2031 79.5
L65.2031 81.7969
C64.9062 81.7969 64.7969 81.5 64.7969 81
C64.7031 77.5 64.2969 74.2031 63.7031 71.0938
C62.7031 65.2969 61.5938 60.2969 60.4062 56.2969
C59 52 57.2969 48 55.4062 44.4062
C54.7969 43 54.0938 41.7969 53.5 40.7031
L53.5 42.2969
C53.5 43.0938 52.9062 43.5 51.9062 43.5
L34.2969 43.5
L34.2969 48.5
L51.5 48.5
C52.5 48.5 53.0938 48.9062 53.0938 49.7031
L53.0938 59.5
L57.7969 59.5
C58.2031 59.5 58.5 59.9062 58.5 60.7031
L58.5 63.7969
C58.5 64.5938 58.2031 65 57.7969 65
L53.0938 65
L53.0938 74.7031
C53.0938 75.5 52.5 75.9062 51.5 75.9062
L34.2969 75.9062
L34.2969 77.7969
C34.2969 79 34.5 79.5938 35.0938 79.7031
C35.5938 79.7031 35.9062 80.2031 35.9062 81
C35.9062 81.7031 33.5 82.0938 28.9062 82.0938
C28.0938 82.0938 27.7031 81.7969 27.7031 81.4062
L27.7031 75.9062
z

M53.9062 -3.59375
C51.7969 -2.20312 49.4062 -0.703125 46.7031 0.703125
C45.2031 1.5 43.7031 2.40625 42.0938 3.20312
C42.2969 3.40625 42.5938 3.59375 42.9062 3.90625
C44.5938 5.70312 46.0938 7.79688 47.5 10.4062
C48.4062 11.9062 49.2031 13.5 49.9062 15.2969
L60.0938 15.2969
C60.5938 15.2969 60.9062 15.7031 60.9062 16.5
L60.9062 19.5938
C60.9062 20.4062 60.5938 20.7969 60.0938 20.7969
L28.2969 20.7969
C28.7031 21.4062 29.0938 22 29.5938 22.7969
C29.7969 23.2031 30.7031 23.5 32.4062 23.7031
C33.0938 23.7031 33.5 24.0938 33.5 24.7031
C33.5 24.7969 33.2969 25.0938 33.0938 25.5938
L32 26.2969
L51.9062 26.2969
C52.9062 26.2969 53.5 26.7031 53.5 27.5
L53.5 39.2031
C53.5 39.0938 53.5938 39 53.7969 38.9062
C55.4062 38.5 56.9062 38.0938 58.2031 37.5
C58.7969 37 59.5 36.7969 60.5 36.7969
C61.2969 38.5938 62.2031 40.5 63 42.5
C63.5 35.7031 64.4062 30 65.7031 25.5938
C67.2969 19.7031 69.0938 14.7969 71.2969 11
C69.0938 7.79688 66.2969 4.90625 62.9062 2.20312
C59.5 -0.59375 56.5 -2.5 53.9062 -3.59375
M65.2969 48.2031
C65.5938 49.0938 66 50.0938 66.4062 51.2969
C66.9062 53.0938 67.5 55.2969 68.0938 57.9062
L81.9062 57.9062
C81.5 46.5 80.7031 37.7969 79.5 32
C78.5 27.2031 77.2031 22.7031 75.4062 18.5938
C73.7969 22.4062 72.5 26.2969 71.5 30.0938
C70.4062 34.2031 69.7031 39.7031 69.5 46.5938
C69.5 47.5938 68.7969 48.2031 67.5 48.2031
z

M35.7969 6.09375
C34.4062 6.59375 32.9062 7.20312 31.4062 7.79688
C28 9 24.7969 10.0938 21.5938 11.0938
C22.5938 12.2969 23.4062 13.5 24.2031 14.5938
C24.2969 14.7969 24.5 15 24.7031 15.2969
L43 15.2969
C42.2031 13.5938 41.4062 12.2031 40.5 11.0938
C39.2031 9.20312 37.5938 7.5 35.7969 6.09375
M46.4062 54
L34.2969 54
L34.2969 59.5
L46.4062 59.5
z

M27.7031 54
L16.7031 54
L16.7031 59.5
L27.7031 59.5
z

M16.7031 65
L16.7031 70.4062
L27.7031 70.4062
L27.7031 65
z

M34.2969 70.4062
L46.4062 70.4062
L46.4062 65
L34.2969 65
z

M46.7969 31.7969
L34.2969 31.7969
L34.2969 38
L46.7969 38
z

M27.7031 31.7969
L16.7031 31.7969
L16.7031 38
L27.7031 38
z
" id="DFHeiStd-W5-6578"/>
      <path d="
M53.0938 82.9062
C52 82.9062 51.5 82.5 51.5 81.7969
L51.5 75.9062
L11.7031 75.9062
C10.5938 75.9062 10.0938 75.5 10.0938 74.7031
L10.0938 43.9062
C10.0938 35.5938 9.79688 28.5938 9.29688 22.9062
C8.79688 17.2969 8 12.0938 6.90625 7.09375
C5.70312 2.29688 4.5 -1.40625 3.09375 -4.20312
C3.09375 -4.70312 3.20312 -5.20312 3.5 -5.59375
C4.79688 -6.29688 6 -7.20312 7.09375 -8.29688
C7.29688 -8.40625 7.70312 -8.5 8.20312 -8.5
C9.79688 -5.40625 11.0938 -2.29688 12.0938 0.90625
C13.9062 6.29688 15.0938 11.7969 15.7031 17.2969
C16.5938 23.7969 17.0938 32.7031 17.0938 43.9062
L17.0938 70
L94.0938 70
C94.5938 70 94.9062 70.5 94.9062 71.5938
L94.9062 74.7031
C94.9062 75.5 94.5938 75.9062 94.0938 75.9062
L58.5 75.9062
L58.5 78.2031
C58.5 79.4062 58.7969 80.0938 59.5 80.2969
C60.0938 80.2969 60.5 80.7969 60.5 81.7969
C60.5 82.5 58 82.9062 53.0938 82.9062
M39 65.2969
C38 65.2969 37.5 64.9062 37.5 64.2031
L37.5 41.0938
L22.2031 41.0938
C21.2031 41.0938 20.7031 40.7031 20.7031 40
L20.7031 -7.29688
C20.7031 -8.09375 21.2031 -8.5 22.2031 -8.5
L26.0938 -8.5
C27.0938 -8.5 27.7031 -8.09375 27.7031 -7.29688
L27.7031 35.2969
L53.9062 35.2969
L53.9062 3.20312
C53.7031 0.703125 50.9062 -0.703125 45.2969 -1.09375
C46.0938 -3.5 46.5938 -5.40625 46.7969 -6.70312
C46.7969 -7.59375 47.4062 -8.09375 48.7969 -8.09375
C55.7969 -6.5 59.2969 -5 59.5 -3.5
C60.4062 -2.5 60.9062 -0.203125 60.9062 3.20312
L60.9062 31.5
C62.0938 31.0938 63.2969 30.5938 64.5938 30.0938
C65.2031 29.9062 65.9062 29.7969 66.7031 29.7969
C67.2969 30.7969 68 32.0938 68.7969 33.5
C69 27.5 69.7031 22.5 70.7969 18.7031
C72 14 73.5 10.0938 75.2031 7.09375
C72 2.29688 67.9062 -1.70312 62.7031 -4.90625
C62.2969 -5.09375 62.0938 -5.40625 62.0938 -5.70312
C62.0938 -6.09375 62.4062 -6.29688 63 -6.5
C64.2031 -7.29688 65.4062 -8 66.7031 -8.70312
C67.0938 -8.79688 67.7969 -8.90625 68.7031 -8.90625
C72.7031 -5.90625 76.2031 -2.5 79.0938 1.09375
C79.9062 0.09375 80.7031 -0.90625 81.7031 -2
C84 -4.40625 86.2969 -6.59375 88.5938 -8.5
C89.2031 -8.5 89.7969 -8.20312 90.2969 -7.79688
C91.5938 -6.79688 92.7969 -6 94 -5.20312
C94.5938 -4.90625 94.9062 -4.59375 94.9062 -4.20312
C91.0938 -1.40625 87.9062 1.40625 85.2031 4.5
C84.5 5.29688 83.7969 6.09375 83.0938 7.09375
C84.9062 10.5938 86.5 14.7969 87.7031 19.5938
C89.0938 25.5 90 33.7031 90.2969 44.2031
C90.2969 44.4062 90.4062 44.7031 90.5938 45
L94.9062 45
C95.4062 45 95.7031 45.5 95.7031 46.5938
L95.7031 49.7031
C95.7031 50.5 95.4062 50.9062 94.9062 50.9062
L75 50.9062
C75.5938 53.4062 76.2969 56.5 77.0938 60.2031
C77.0938 61 77.5 61.4062 78.0938 61.4062
C78.5938 61.5938 78.9062 62 78.9062 62.5938
C78.9062 62.9062 78.5 63.4062 77.7969 64
L71 66.5
C70.7969 66.5 70.7031 66.2031 70.5938 65.7031
C69.7969 60.7031 69.0938 56.5938 68.2969 53.4062
C67.5938 50.2969 66.7969 47.4062 65.7969 44.7969
C64.2969 40.5938 62.7031 36.9062 60.9062 33.9062
L60.9062 40
C60.9062 40.7031 60.2969 41.0938 59.2969 41.0938
L44.5 41.0938
L44.5 60.7031
C44.5 61.9062 44.7969 62.5938 45.5 62.7031
C46.0938 62.7969 46.4062 63.2969 46.4062 64.2031
C46.4062 64.9062 43.9062 65.2969 39 65.2969
M70.2031 36.4062
C70.2031 36.5 70.2969 36.7031 70.5 37
C71.5 39.5 72.4062 42.2031 73.2969 45
L83.5938 45
C83.5938 36.2969 83.2031 29.5938 82.2031 25
C81.5 21.4062 80.5 17.9062 79.0938 14.5
C78 17.0938 77.0938 19.7031 76.5 22.5
C75.5938 25.7031 75.0938 29.9062 75 35.2969
C75 36 74.2969 36.4062 73 36.4062
L70.2969 36.4062
C70.2969 36.4062 70.2031 36.4062 70.2031 36.4062
M25 62.2031
C22.0938 60.7969 20.7031 59.7969 20.7031 59.0938
C22.2969 55.0938 24.0938 50.2031 26.0938 44.2969
C27.5 44.2969 29.2969 45 31.7031 46.5938
C32.0938 46.5938 32.4062 47.2031 32.4062 48.2031
C30.5 53 28.4062 57.5 26.0938 61.7969
C25.9062 62 25.5938 62.2031 25 62.2031
M57 62.2031
C56.7031 62.2031 56.5 61.7969 56.2969 61.2031
C55.7031 58.7969 54.7969 56.4062 53.5938 54
C52.7031 52.2031 51.4062 50.0938 49.7969 47.7031
C49.5938 47.2969 49.5938 47.0938 49.5938 47
C49.5938 46.7969 49.7969 46.7031 50.2969 46.5
C51.4062 46 52.5938 45.5 53.9062 44.9062
C54.5 44.5 55 44.2969 55.4062 44.2969
C55.5938 44.2969 55.9062 44.5938 56.2969 45.2031
C58.0938 47.9062 59.7969 51.7969 61.5938 56.7969
C61.7969 57.4062 62.2031 57.7969 62.7969 57.7969
C63.2969 58 63.5938 58.2969 63.5938 58.7031
C63.5938 59.2031 63.0938 59.5938 62.2969 60
z

M33.2031 29
C32.4062 29 32 28.5938 32 27.7969
L32 1.29688
C32 0.703125 32.4062 0.5 33.2031 0.5
L36.2969 0.5
C37.2969 0.5 37.7969 0.703125 37.7969 1.29688
L37.7969 5.20312
L48.4062 5.20312
C49.4062 5.20312 50 5.40625 50 6
L50 28.2031
C50 28.7031 49.4062 29 48.4062 29
z

M37.7969 11
L37.7969 23.2031
L44.0938 23.2031
L44.0938 11
z
" id="DFHeiStd-W5-5ee0"/>
      <path id="DFHeiStd-W5-20"/>
      <path d="
M37.5 74.7031
C36.9062 74.7031 36.7031 74.2969 36.7031 73.5
L36.7031 70.4062
C36.7031 69.4062 36.9062 68.9062 37.5 68.9062
L53.7969 68.9062
C52.5 66.0938 51.2031 63.5938 50 61.4062
L31.5938 61.4062
C31 61.4062 30.7969 61 30.7969 60.2969
L30.7969 57.0938
C30.7969 56.0938 31 55.5938 31.5938 55.5938
L92.5 55.5938
C93 55.5938 93.2969 56.0938 93.2969 57.0938
L93.2969 60.2969
C93.2969 61 93 61.4062 92.5 61.4062
L82.7031 61.4062
L85.0938 73.5
C85.0938 74.2969 84.4062 74.7031 83.2031 74.7031
L63.7031 74.7031
C63.9062 75.0938 64.2031 75.7031 64.4062 76.2969
C64.5938 76.9062 65 77.4062 65.7031 77.5938
C66.5938 77.5938 67.0938 78 67.0938 79
C67.0938 79.7031 66.5938 80.2031 65.7969 80.4062
L60.0938 81.7969
C59.5 81.7969 59.0938 81.5 58.9062 81
C58.0938 78.7969 57.2031 76.7031 56.4062 74.7031
z

M57.5 61.4062
C58.7031 63.5938 60 66.0938 61.2969 68.9062
L77.7031 68.9062
L75.5 61.4062
z

M42.5 51.2969
C41.5 51.2969 41 50.9062 41 50.0938
L41 35.2969
C41 34.5 41.5 34.0938 42.5 34.0938
L64 34.0938
L64 28.2031
L35.5 28.2031
C34.9062 28.2031 34.7031 27.7969 34.7031 27.0938
L34.7031 23.9062
C34.7031 22.9062 34.9062 22.4062 35.5 22.4062
L39.7969 22.4062
L39.7969 15.2969
L32.4062 15.2969
C31.7969 15.2969 31.5938 14.9062 31.5938 14.2031
L31.5938 11
C31.5938 10 31.7969 9.5 32.4062 9.5
L64 9.5
L64 2.5
C64 1.70312 64.5 1.29688 65.5938 1.29688
L69.5 1.29688
C70.5 1.29688 71 1.70312 71 2.5
L71 9.5
L93.2969 9.5
C93.7969 9.5 94.0938 10 94.0938 11
L94.0938 14.2031
C94.0938 14.9062 93.7969 15.2969 93.2969 15.2969
L71 15.2969
L71 22.4062
L87.5 22.4062
C87.9062 22.4062 88.2031 22.9062 88.2031 23.9062
L88.2031 27.0938
C88.2031 27.7969 87.9062 28.2031 87.5 28.2031
L71 28.2031
L71 34.0938
L83.9062 34.0938
C84.9062 34.0938 85.5 34.5 85.5 35.2969
L85.5 50.0938
C85.5 50.9062 84.9062 51.2969 83.9062 51.2969
z

M78.5 40
L48 40
L48 45.4062
L78.5 45.4062
z

M64 15.2969
L46.7969 15.2969
L46.7969 22.4062
L64 22.4062
z

M12.7969 81.7969
C12.5938 81.7969 12.2969 81.5 12 81.0938
C9.90625 78.5 8.90625 77 8.90625 76.7031
C10.5 76.0938 12.5938 75.0938 15.0938 73.9062
C18.0938 72.2969 21 70.5 23.7969 68.5
C23.7969 68.5 24.7969 69.9062 26.7969 72.7031
C27.0938 73.0938 27.2969 73.4062 27.2969 73.5
C25.5 74.7969 23.4062 76.2031 20.9062 77.7031
C18.7969 78.9062 16.0938 80.2969 12.7969 81.7969
M10.0938 59.0938
C9.90625 59.0938 9.59375 58.7969 9.29688 58.4062
C7.20312 55.7969 6.20312 54.4062 6.20312 54
C7.79688 53.4062 9.90625 52.5 12.5 51.2031
C15.5938 49.5938 18.5938 47.7969 21.4062 45.7969
C21.5 45.7969 22.5 47.2031 24.5 50.0938
C24.7969 50.5 25 50.7031 25 50.9062
C23.2031 52.0938 21 53.5 18.5 55.0938
C16.2969 56.2969 13.5 57.5938 10.0938 59.0938
M6.59375 36
C5.79688 36 5.40625 35.5 5.40625 34.5
L5.40625 31.4062
C5.40625 30.2969 5.79688 29.7969 6.59375 29.7969
L18.7031 29.7969
L18.7031 13.4062
C18.7031 11.5 18.0938 10.2969 17.0938 9.79688
C9.70312 3.5 5.09375 0.296875 3.5 0.09375
L8.09375 -6.90625
C8.59375 -7.40625 9 -7.70312 9.29688 -7.70312
C9.70312 -7.70312 10 -7.09375 10 -6
C10.0938 -4.59375 10.9062 -3.5 12.5 -2.59375
C15.0938 0.09375 18 3.09375 21.4062 6.40625
C23 2.79688 24.7031 0 26.7031 -2
C30.9062 -5.5 36.5 -7.29688 43.5 -7.29688
L92.5 -7.29688
C93.5938 -7.29688 94.2031 -6.59375 94.4062 -5.40625
C95.0938 -3.59375 96 -1.70312 97.2031 0.5
C97.2031 1 96.9062 1.29688 96.4062 1.29688
C96 1.29688 95.5938 1.20312 95.2031 1.20312
C92.4062 0.5 88.2969 0 83 -0.59375
C77.2031 -1.20312 73.2031 -1.5 70.7969 -1.5
L43.5 -1.5
C38.0938 -1.5 34 -0.5 31.2031 1.5
C29 3.40625 27.2031 5.70312 26 8.40625
C25.7969 10.4062 25.7031 12 25.7031 13.4062
L25.7031 34.9062
C25.7031 35.5938 25.2031 36 24.2031 36
z
" id="DFHeiStd-W5-9055"/>
      <path d="
M6.59375 70.4062
C5.79688 70.4062 5.40625 69.9062 5.40625 68.9062
L5.40625 65.7031
C5.40625 64.7031 5.79688 64.2031 6.59375 64.2031
L19.5 64.2031
L19.5 19.4062
C13.0938 17.2031 7.59375 15.5938 3.09375 14.5938
C5.09375 9.09375 6.40625 6.40625 7 6.40625
C7.59375 6.40625 8.29688 7.29688 9.29688 9.09375
C19.2031 12.5 29 16.2031 38.5938 20.4062
C38.7969 20.7031 39 22.5 39 25.9062
C39 26.4062 38.7031 26.7031 38.2031 26.7031
C38 26.7031 37.7969 26.5938 37.5938 26.4062
C34 24.7969 30.2969 23.2969 26.5 21.9062
L26.5 64.2031
L37.5 64.2031
C38.2031 64.2031 38.5938 64.7031 38.5938 65.7031
L38.5938 68.9062
C38.5938 69.9062 38.2031 70.4062 37.5 70.4062
z

M42.5 78.5938
C41.7031 78.5938 41.4062 78.0938 41.4062 77.0938
L41.4062 73.9062
C41.4062 72.9062 41.7031 72.4062 42.5 72.4062
L63.2969 72.4062
C62.5938 70.2031 61.9062 68.4062 61.2969 67
C60.5 65.2031 59.5 63.0938 58.2969 60.7031
L44.9062 60.7031
C43.7969 60.7031 43.2969 60.2969 43.2969 59.5
L43.2969 9.09375
C43.2969 8.29688 43.7969 7.90625 44.9062 7.90625
L53.9062 7.90625
C52.0938 6.09375 50.5 4.5 49 3.29688
C46.7969 1.29688 44.2031 -0.296875 41.2031 -1.90625
C39.7969 -2.70312 38 -3.5 35.9062 -4.09375
C35.5938 -4.20312 35.5 -4.40625 35.5 -4.59375
C35.5 -4.79688 35.7031 -5.09375 36.2031 -5.29688
C37.2031 -6.09375 38.2969 -7 39.7031 -8.09375
C39.9062 -8.59375 40.5 -8.90625 41.4062 -8.90625
C45.7969 -6.70312 49.4062 -4.59375 52.4062 -2.59375
C54.7969 -0.796875 57.0938 1.20312 59.2969 3.40625
C59.7031 3.70312 60.2969 3.90625 61.2031 4
C61.7969 4 62.0938 4.20312 62.0938 4.40625
C62.0938 4.79688 61.7969 5.20312 61.2969 5.79688
L58.5 7.90625
L77.0938 7.90625
C74.9062 5.29688 73.7969 4 73.7969 4
C79.7969 -1.20312 85.7031 -5.5 91.7031 -8.90625
C92 -8.90625 93.0938 -7.29688 95 -4.29688
C95.4062 -3.70312 95.7031 -3.29688 95.7031 -3
C90.2969 -0.09375 85 3.5 79.9062 7.90625
L89.4062 7.90625
C90.4062 7.90625 91 8.29688 91 9.09375
L91 59.5
C91 60.2969 90.4062 60.7031 89.4062 60.7031
L66 60.7031
C67.5938 64.4062 69.0938 68.2969 70.5 72.4062
L93.2969 72.4062
C94.0938 72.4062 94.5 72.9062 94.5 73.9062
L94.5 77.0938
C94.5 78.0938 94.0938 78.5938 93.2969 78.5938
z

M83.9062 14.2031
L50.2969 14.2031
L50.2969 23.2031
L83.9062 23.2031
z

M50.2969 29.4062
L50.2969 38.7969
L83.9062 38.7969
L83.9062 29.4062
z

M50.2969 45
L50.2969 54.4062
L83.9062 54.4062
L83.9062 45
z
" id="DFHeiStd-W5-9805"/>
      <path d="
M25.2969 72.4062
L85.5 72.4062
C86.2969 72.4062 86.7031 72.9062 86.7031 73.9062
L86.7031 77.0938
C86.7031 78.0938 86.2969 78.5938 85.5 78.5938
L19.9062 78.5938
C18.7969 78.5938 18.2969 78.0938 18.2969 77.0938
L18.2969 45.4062
C18.2969 37.2031 17.7969 30.2969 16.7969 24.5938
C15.7969 19.0938 14.2969 13.9062 12.0938 9
C9.90625 4.20312 7.40625 0.5 4.59375 -2.20312
C4.59375 -2.79688 4.70312 -3.20312 5.09375 -3.59375
C6.40625 -4.40625 7.59375 -5.29688 8.70312 -6.29688
C8.90625 -6.40625 9.20312 -6.5 9.70312 -6.5
C12.7031 -3.5 15 -0.40625 16.5938 2.79688
C19.7031 8.20312 21.7969 13.7031 22.9062 19.0938
C24.5 25.5 25.2969 34.2969 25.2969 45.4062
L25.2969 48.9062
L34.7969 48.9062
C36.5938 41.0938 38.7969 34.7031 41.4062 29.9062
C43 25.2969 45.7031 20.9062 49.2969 16.7031
C50.4062 15.2031 51.7969 13.7031 53.4062 12.2031
C53.2031 12 53 11.7969 52.7969 11.7031
C49.4062 8.59375 45.2969 5.90625 40.5938 3.70312
C36.2031 1.40625 30.5938 -0.703125 23.7969 -2.70312
C23.2031 -2.79688 23 -3 23 -3.40625
C23 -3.5 23.2031 -3.79688 23.5938 -4.29688
C25.2031 -5.29688 26.7969 -6.29688 28.2969 -7.5
C28.7031 -8.09375 29.2969 -8.5 30 -8.5
C36.4062 -6.09375 41.4062 -3.90625 44.7969 -2
C49.2031 0.296875 52.7969 2.59375 55.5938 4.79688
C56.5938 5.59375 57.5938 6.40625 58.5938 7.40625
C59.2031 6.79688 59.9062 6.20312 60.5938 5.70312
C64.7969 2.59375 69.4062 -0.09375 74.4062 -2.59375
C78.5938 -4.40625 82.4062 -5.90625 85.9062 -7.20312
C87.0938 -7.79688 87.9062 -8.09375 88.2031 -8.09375
C88.5 -8.09375 88.9062 -7.70312 89.4062 -7.09375
C90.5938 -5.70312 91.9062 -4.40625 93.2031 -3.40625
C93.5 -3 93.7031 -2.59375 93.7031 -2.20312
C93.7031 -1.90625 93.2031 -1.59375 92.4062 -1.40625
C85 0.59375 78.9062 2.79688 74.2969 5.40625
C70.0938 7.40625 66.4062 9.59375 63.4062 12.2031
C64 12.7969 64.7031 13.5938 65.2969 14.4062
C68.0938 17.7969 70.2969 20.9062 71.7969 23.7031
C74.4062 27.9062 76.5 32.2969 78.0938 36.7969
C79.4062 40.7969 80.7031 46.0938 82 52.5
C82 52.9062 81.2969 53.5938 80.0938 54.5938
C79.4062 55 78.7031 55.2031 78.0938 55.2031
L25.2969 55.2031
z

M41.5938 48.9062
L73.9062 48.9062
C72.2969 42.4062 70.7969 37.2031 69.2031 33.2031
C67.2031 29.0938 64.9062 25.2031 62.2969 21.4062
C61.2969 19.9062 59.9062 18.2969 58.2969 16.7031
C56.2031 18.7031 54.2969 20.9062 52.5 23.5
C49.4062 27.7031 46.9062 32.2969 45.0938 37.4062
C43.7031 40.5938 42.5 44.5 41.5938 48.9062" id="DFHeiStd-W5-53cd"/>
      <path d="
M49.5938 82.9062
C49 82.9062 48.4062 82.5 47.7969 81.7969
C45.7969 78.2969 43.7031 75.0938 41.2969 72.2031
C39.0938 69.5 36.2969 66.7031 33 63.7969
C27.9062 59.2969 22.9062 55.5938 17.9062 52.7969
C14.2969 50.5938 9.70312 48.5 4.09375 46.4062
C3.70312 46.2031 3.5 46 3.5 45.7969
C3.5 45.4062 3.79688 45 4.59375 44.5938
C5.90625 43.5 7 42.2031 8 40.5938
C8.40625 39.9062 9 39.5938 9.70312 39.5938
C12.0938 40.5938 15.2969 42.2969 19.2031 44.7031
C23.0938 47.2031 27 50 31 53.0938
C34.7969 56.0938 38.0938 59.0938 40.7969 62
C43.4062 64.4062 46.0938 67.2031 48.9062 70.5938
C55.0938 63.4062 60.2031 58.4062 64.2031 55.5
C72.2031 48.9062 80.5938 43.9062 89.4062 40.7031
C90.2031 40.7031 90.7031 40.9062 91 41.4062
C91.9062 42.4062 93.4062 43.9062 95.5938 45.7969
C96.0938 46 96.4062 46.4062 96.4062 47
C91.2031 48 85.9062 50 80.5 53.0938
C75.7031 55.7031 70.9062 59 66 63.0938
C62.2969 66 58.0938 70.2031 53.4062 75.5938
C54.2031 76 55.2031 76.2969 56.5938 76.2969
C57.7969 76.2969 58.5 76.7969 58.5 77.7969
C58.5 78.2031 58.0938 78.5938 57.5 79.2031
z

M30.4062 50.0938
C29.5938 50.0938 29.2031 49.5 29.2031 48.5
L29.2031 45.4062
C29.2031 44.4062 29.5938 43.9062 30.4062 43.9062
L68.2969 43.9062
C69.0938 43.9062 69.5 44.4062 69.5 45.4062
L69.5 48.5
C69.5 49.5 69.0938 50.0938 68.2969 50.0938
z

M17.9062 33.7031
C17.0938 33.7031 16.7031 33.0938 16.7031 32.0938
L16.7031 29
C16.7031 28 17.0938 27.5 17.9062 27.5
L72 27.5
L49.9062 6.20312
C44.9062 8.20312 39.0938 10.2969 32.4062 12.5938
C32.0938 12.5938 31.7969 12.2969 31.4062 11.9062
C29.2031 9.09375 28.0938 7.5 28.0938 7.09375
C32.5 5.90625 38.0938 4 44.7031 1.20312
C52.9062 -2.09375 60.5938 -5.79688 67.9062 -10
C68 -10 69.0938 -8.5 71.2969 -5.5
C71.5938 -4.90625 71.7969 -4.59375 71.7969 -4.59375
C67.5938 -2.29688 62.7031 0.203125 57 3
L84.2969 30.5938
C84.2969 31.2031 83.5938 32.0938 82.2969 33.2969
C82 33.5 81.4062 33.7031 80.4062 33.7031
z
" id="DFHeiStd-W5-4ee4"/>
      <path d="
M22.5938 81
C21.5 81 21 80.5938 21 79.7969
L21 64.2031
L6.20312 64.2031
C5.40625 64.2031 5 63.7969 5 63
L5 59.0938
C5 58 5.40625 57.5 6.20312 57.5
L15.0938 57.5
C15.0938 47 14.7969 39 14.4062 33.4062
C13.7031 26.0938 12.5 19.4062 10.9062 13.2031
C9.09375 6.59375 6.59375 1.29688 3.5 -2.70312
C3.20312 -3.09375 3.09375 -3.40625 3.09375 -3.79688
C3.09375 -4.20312 3.40625 -4.5 4.09375 -4.59375
C5.40625 -5.40625 6.70312 -6.29688 8.09375 -7.09375
C8.5 -7.20312 9.09375 -7.29688 10.0938 -7.29688
C12.9062 -2.79688 15.0938 2.09375 16.9062 7.70312
C18.5 12.7969 19.7969 19.2969 20.7969 27.2969
C21.0938 30.0938 21.4062 33.4062 21.5938 37.2031
L30.2969 37.2031
C30.0938 26.5938 29.9062 19 29.5938 14.4062
C29.2031 8.29688 28.7969 4.20312 28.4062 2.09375
C27.9062 -0.5 26.9062 -1.79688 25.2969 -1.79688
C23.0938 -1.79688 20.7969 -1.70312 18.2969 -1.5
L18.2969 -2.20312
C19.2969 -4.20312 20 -5.90625 20.2969 -7.40625
C20.4062 -8.59375 22.0938 -9.29688 25.2969 -9.29688
C29.5938 -9.29688 32.2969 -7.40625 33.2969 -3.59375
C34.2969 -0.09375 35.0938 5.20312 35.7031 12.5
C36.2031 18.5 36.5 28.5 36.7031 42.2969
C36.7031 43.2969 36.2969 43.9062 35.5 43.9062
L21.9062 43.9062
C22 47.7969 22.0938 52.2031 22.2031 57.2031
L22.2031 57.5
L41.4062 57.5
C42.0938 57.5 42.5 58 42.5 59.0938
L42.5 63
C42.5 63.7969 42.0938 64.2031 41.4062 64.2031
L28.0938 64.2031
L28.0938 76.2969
C28.0938 77.5 28.4062 78.2031 29.0938 78.2969
C29.7031 78.4062 30 78.9062 30 79.7969
C30 80.5938 27.5 81 22.5938 81
M56.2031 81
C55.7031 81 55.2969 80.2969 54.9062 78.9062
C53.7031 74.0938 51.9062 69.2969 49.5 64.5938
C47.7969 60.9062 45.2969 56.5938 41.9062 51.7969
C41.5 51.2031 41.4062 50.7969 41.4062 50.5
C41.4062 50.4062 41.5938 50.2969 42.0938 50.0938
C43.2969 49.5 44.5 49 45.9062 48.4062
C46.5 48 47.0938 47.7969 47.5938 47.7969
C48 47.7969 48.7031 48.4062 49.5 49.5938
C51.5 52.7969 53.5 56.9062 55.5 61.7969
L94.0938 61.7969
C94.9062 61.7969 95.2969 62.2969 95.2969 63.4062
L95.2969 67.2969
C95.2969 68.0938 94.9062 68.5 94.0938 68.5
L58.0938 68.5
C58.5938 69.9062 59.2031 71.4062 59.7969 73.0938
C60.0938 74.5 60.9062 75.2031 62.2031 75.2031
C63.0938 75.5 63.5938 76.0938 63.5938 77.0938
C63.5938 77.5938 63.0938 78.0938 62.2031 78.5
z

M92.0938 48.2031
L74.5938 43.0938
L74.5938 50.0938
C74.5938 51.2969 74.9062 52 75.5 52.2031
C76.0938 52.2031 76.5 52.7031 76.5 53.5938
C76.5 54.4062 74 54.7969 69.0938 54.7969
C68 54.7969 67.5 54.4062 67.5 53.5938
L67.5 41.0938
L58.2031 38.4062
L58.2031 45.4062
C58.2031 46.0938 58.4062 46.5 59 46.5938
C59.4062 46.7031 59.7031 47.0938 59.7031 47.7969
C59.7031 48.0938 59.2969 48.2969 58.5 48.5
L51.9062 49.2969
C51.2969 49.2969 51.0938 48.9062 51.0938 48.2031
L51.0938 36.4062
L43.2969 34.0938
C43 33.9062 42.9062 33.7031 42.9062 33.2969
L44.2031 29.5
C44.4062 28.9062 44.7031 28.5938 45.2969 28.5938
L51.0938 30.0938
L51.0938 -0.296875
C51.0938 -4.90625 55 -7.29688 62.7969 -7.29688
L87.7969 -7.29688
C90.5938 -7.29688 92.5 -6.70312 93.4062 -5.5
C94.2031 -4.90625 95.5 -2 97.2031 3.20312
C97.2031 3.79688 96.7031 4.29688 95.7969 4.70312
C94 5.70312 92.5938 6.90625 91.7031 8.29688
C90.5 3.79688 89.5 1.20312 88.7031 0.59375
C88 -0.203125 86 -0.703125 82.7969 -0.703125
L63.5938 -0.703125
C60 -0.703125 58.2031 0.703125 58.2031 3.59375
L58.2031 32
L67.5 34.5
L67.5 10.7031
C67.5 9.90625 68 9.5 69.0938 9.5
L73 9.5
C74 9.5 74.5938 9.90625 74.5938 10.7031
L74.5938 36.4062
L88.2031 40
C88 33.7969 87.5938 28.5938 87 24.5
C86.5938 21.5 85.9062 20 85.0938 20
L83.2031 20
C81.2031 20 79.5 20.0938 78.0938 20.4062
C77.7969 20.4062 77.7031 20.0938 77.7031 19.5938
C78.2031 18.0938 78.7031 16.5938 79.0938 15.2031
C79.0938 14.2031 80 13.7969 82 13.7969
L85.5 13.7969
C87.5 13.7969 88.9062 14.2031 89.7969 15
C91.0938 15.9062 92.2031 18.5938 93 23
C93.5938 27.5 94.2969 34.5938 94.9062 44.2969
C94.9062 45.2969 94.7031 46 94.5 46.4062
L93.2969 47.7031
C93.0938 48 92.7031 48.2031 92.0938 48.2031" id="DFHeiStd-W5-65bd"/>
     </defs>
     <g style="fill:#555555;" transform="translate(156.8953125 279.9328125)scale(0.1 -0.1)">
      <use xlink:href="#DFHeiStd-W5-9055"/>
      <use x="99.99998474121094" xlink:href="#DFHeiStd-W5-53cd"/>
      <use x="199.99996948242188" xlink:href="#DFHeiStd-W5-6cd5"/>
      <use x="299.9999542236328" xlink:href="#DFHeiStd-W5-4ee4"/>
      <use x="399.99993896484375" xlink:href="#DFHeiStd-W5-9805"/>
      <use x="499.9999237060547" xlink:href="#DFHeiStd-W5-6578"/>
      <use x="599.9999084472656" xlink:href="#DFHeiStd-W5-20"/>
      <use x="633.2998962402344" xlink:href="#DFHeiStd-W5-2f"/>
      <use x="661.0998840332031" xlink:href="#DFHeiStd-W5-20"/>
      <use x="694.3998718261719" xlink:href="#DFHeiStd-W5-5be6"/>
      <use x="794.3998565673828" xlink:href="#DFHeiStd-W5-65bd"/>
      <use x="894.3998413085938" xlink:href="#DFHeiStd-W5-6aa2"/>
      <use x="994.3998260498047" xlink:href="#DFHeiStd-W5-67e5"/>
      <use x="1094.3998107910156" xlink:href="#DFHeiStd-W5-5ee0"/>
      <use x="1194.3997955322266" xlink:href="#DFHeiStd-W5-6b21"/>
     </g>
    </g>
   </g>
   <g id="matplotlib.axis_2">
    <g id="ytick_1">
     <g id="line2d_28">
      <path clip-path="url(#p124b8dd147)" d="
M54 252
L388.8 252" style="fill:none;stroke:#000000;stroke-dasharray:1.000000,3.000000;stroke-dashoffset:0.0;stroke-width:0.5;"/>
     </g>
     <g id="line2d_29">
      <g>
       <use style="fill:#555555;stroke:#555555;stroke-width:0.5;" x="54.0" xlink:href="#m1d870bcb37" y="252.0"/>
      </g>
     </g>
     <g id="line2d_30">
      <g>
       <use style="fill:#555555;stroke:#555555;stroke-width:0.5;" x="388.8" xlink:href="#m1d870bcb37" y="252.0"/>
      </g>
     </g>
     <g id="text_11">
      <!-- −1 -->
      <defs>
       <path d="
M53.0781 31.9844
L6.89062 31.9844
L6.89062 38.375
L53.0781 38.375
z
" id="AndaleMono-2212"/>
      </defs>
      <g style="fill:#555555;" transform="translate(37.7171875 254.43828125)scale(0.1 -0.1)">
       <use xlink:href="#AndaleMono-2212"/>
       <use x="60.009765625" xlink:href="#AndaleMono-31"/>
      </g>
     </g>
    </g>
    <g id="ytick_2">
     <g id="line2d_31">
      <path clip-path="url(#p124b8dd147)" d="
M54 224.1
L388.8 224.1" style="fill:none;stroke:#000000;stroke-dasharray:1.000000,3.000000;stroke-dashoffset:0.0;stroke-width:0.5;"/>
     </g>
     <g id="line2d_32">
      <g>
       <use style="fill:#555555;stroke:#555555;stroke-width:0.5;" x="54.0" xlink:href="#m1d870bcb37" y="224.1"/>
      </g>
     </g>
     <g id="line2d_33">
      <g>
       <use style="fill:#555555;stroke:#555555;stroke-width:0.5;" x="388.8" xlink:href="#m1d870bcb37" y="224.1"/>
      </g>
     </g>
     <g id="text_12">
      <!-- 0 -->
      <g style="fill:#555555;" transform="translate(43.4578125 226.53828125)scale(0.1 -0.1)">
       <use xlink:href="#AndaleMono-30"/>
      </g>
     </g>
    </g>
    <g id="ytick_3">
     <g id="line2d_34">
      <path clip-path="url(#p124b8dd147)" d="
M54 196.2
L388.8 196.2" style="fill:none;stroke:#000000;stroke-dasharray:1.000000,3.000000;stroke-dashoffset:0.0;stroke-width:0.5;"/>
     </g>
     <g id="line2d_35">
      <g>
       <use style="fill:#555555;stroke:#555555;stroke-width:0.5;" x="54.0" xlink:href="#m1d870bcb37" y="196.2"/>
      </g>
     </g>
     <g id="line2d_36">
      <g>
       <use style="fill:#555555;stroke:#555555;stroke-width:0.5;" x="388.8" xlink:href="#m1d870bcb37" y="196.2"/>
      </g>
     </g>
     <g id="text_13">
      <!-- 1 -->
      <g style="fill:#555555;" transform="translate(44.378125 198.63828125)scale(0.1 -0.1)">
       <use xlink:href="#AndaleMono-31"/>
      </g>
     </g>
    </g>
    <g id="ytick_4">
     <g id="line2d_37">
      <path clip-path="url(#p124b8dd147)" d="
M54 168.3
L388.8 168.3" style="fill:none;stroke:#000000;stroke-dasharray:1.000000,3.000000;stroke-dashoffset:0.0;stroke-width:0.5;"/>
     </g>
     <g id="line2d_38">
      <g>
       <use style="fill:#555555;stroke:#555555;stroke-width:0.5;" x="54.0" xlink:href="#m1d870bcb37" y="168.3"/>
      </g>
     </g>
     <g id="line2d_39">
      <g>
       <use style="fill:#555555;stroke:#555555;stroke-width:0.5;" x="388.8" xlink:href="#m1d870bcb37" y="168.3"/>
      </g>
     </g>
     <g id="text_14">
      <!-- 2 -->
      <g style="fill:#555555;" transform="translate(44.2109375 170.73828125)scale(0.1 -0.1)">
       <use xlink:href="#AndaleMono-32"/>
      </g>
     </g>
    </g>
    <g id="ytick_5">
     <g id="line2d_40">
      <path clip-path="url(#p124b8dd147)" d="
M54 140.4
L388.8 140.4" style="fill:none;stroke:#000000;stroke-dasharray:1.000000,3.000000;stroke-dashoffset:0.0;stroke-width:0.5;"/>
     </g>
     <g id="line2d_41">
      <g>
       <use style="fill:#555555;stroke:#555555;stroke-width:0.5;" x="54.0" xlink:href="#m1d870bcb37" y="140.4"/>
      </g>
     </g>
     <g id="line2d_42">
      <g>
       <use style="fill:#555555;stroke:#555555;stroke-width:0.5;" x="388.8" xlink:href="#m1d870bcb37" y="140.4"/>
      </g>
     </g>
     <g id="text_15">
      <!-- 3 -->
      <g style="fill:#555555;" transform="translate(44.153125 142.83828125)scale(0.1 -0.1)">
       <use xlink:href="#AndaleMono-33"/>
      </g>
     </g>
    </g>
    <g id="ytick_6">
     <g id="line2d_43">
      <path clip-path="url(#p124b8dd147)" d="
M54 112.5
L388.8 112.5" style="fill:none;stroke:#000000;stroke-dasharray:1.000000,3.000000;stroke-dashoffset:0.0;stroke-width:0.5;"/>
     </g>
     <g id="line2d_44">
      <g>
       <use style="fill:#555555;stroke:#555555;stroke-width:0.5;" x="54.0" xlink:href="#m1d870bcb37" y="112.5"/>
      </g>
     </g>
     <g id="line2d_45">
      <g>
       <use style="fill:#555555;stroke:#555555;stroke-width:0.5;" x="388.8" xlink:href="#m1d870bcb37" y="112.5"/>
      </g>
     </g>
     <g id="text_16">
      <!-- 4 -->
      <g style="fill:#555555;" transform="translate(43.3515625 114.93828125)scale(0.1 -0.1)">
       <use xlink:href="#AndaleMono-34"/>
      </g>
     </g>
    </g>
    <g id="ytick_7">
     <g id="line2d_46">
      <path clip-path="url(#p124b8dd147)" d="
M54 84.6
L388.8 84.6" style="fill:none;stroke:#000000;stroke-dasharray:1.000000,3.000000;stroke-dashoffset:0.0;stroke-width:0.5;"/>
     </g>
     <g id="line2d_47">
      <g>
       <use style="fill:#555555;stroke:#555555;stroke-width:0.5;" x="54.0" xlink:href="#m1d870bcb37" y="84.6"/>
      </g>
     </g>
     <g id="line2d_48">
      <g>
       <use style="fill:#555555;stroke:#555555;stroke-width:0.5;" x="388.8" xlink:href="#m1d870bcb37" y="84.6"/>
      </g>
     </g>
     <g id="text_17">
      <!-- 5 -->
      <g style="fill:#555555;" transform="translate(44.2203125 87.03828125)scale(0.1 -0.1)">
       <use xlink:href="#AndaleMono-35"/>
      </g>
     </g>
    </g>
    <g id="ytick_8">
     <g id="line2d_49">
      <path clip-path="url(#p124b8dd147)" d="
M54 56.7
L388.8 56.7" style="fill:none;stroke:#000000;stroke-dasharray:1.000000,3.000000;stroke-dashoffset:0.0;stroke-width:0.5;"/>
     </g>
     <g id="line2d_50">
      <g>
       <use style="fill:#555555;stroke:#555555;stroke-width:0.5;" x="54.0" xlink:href="#m1d870bcb37" y="56.7"/>
      </g>
     </g>
     <g id="line2d_51">
      <g>
       <use style="fill:#555555;stroke:#555555;stroke-width:0.5;" x="388.8" xlink:href="#m1d870bcb37" y="56.7"/>
      </g>
     </g>
     <g id="text_18">
      <!-- 6 -->
      <defs>
       <path d="
M17.6719 35.8906
Q24.125 41.1094 31.6875 41.1094
Q40.4375 41.1094 46.2656 35.5156
Q52.0938 29.9375 52.0938 21.0938
Q52.0938 11.375 46.9219 5.03125
Q41.75 -1.3125 33.1094 -1.3125
Q22.0781 -1.3125 15.625 8.8125
Q9.1875 18.9531 9.1875 33.5938
Q9.1875 49.2188 15.8906 59.7188
Q22.6094 70.2188 34.2812 70.2188
Q42.3281 70.2188 48.1875 67.8281
L46.9219 60.6875
Q40.1406 63.1875 34.5156 63.1875
Q26.5625 63.1875 22.1094 55.5625
Q17.6719 47.9531 17.6719 35.8906
M17.9219 29
Q17.9219 20.1719 22.0625 12.9375
Q26.2188 5.71875 32.5156 5.71875
Q37.8438 5.71875 40.7188 9.625
Q43.6094 13.5312 43.6094 20.4062
Q43.6094 26.7656 40.4219 30.4219
Q37.25 34.0781 31.5 34.0781
Q24.0312 34.0781 17.9219 29" id="AndaleMono-36"/>
      </defs>
      <g style="fill:#555555;" transform="translate(43.709375 59.13828125)scale(0.1 -0.1)">
       <use xlink:href="#AndaleMono-36"/>
      </g>
     </g>
    </g>
    <g id="ytick_9">
     <g id="line2d_52">
      <path clip-path="url(#p124b8dd147)" d="
M54 28.8
L388.8 28.8" style="fill:none;stroke:#000000;stroke-dasharray:1.000000,3.000000;stroke-dashoffset:0.0;stroke-width:0.5;"/>
     </g>
     <g id="line2d_53">
      <g>
       <use style="fill:#555555;stroke:#555555;stroke-width:0.5;" x="54.0" xlink:href="#m1d870bcb37" y="28.8"/>
      </g>
     </g>
     <g id="line2d_54">
      <g>
       <use style="fill:#555555;stroke:#555555;stroke-width:0.5;" x="388.8" xlink:href="#m1d870bcb37" y="28.8"/>
      </g>
     </g>
     <g id="text_19">
      <!-- 7 -->
      <defs>
       <path d="
M50.5938 63.1875
L23.2969 0
L15.0938 0
L42 61.9219
L9.71875 61.9219
L9.71875 68.8906
L50.5938 68.8906
z
" id="AndaleMono-37"/>
      </defs>
      <g style="fill:#555555;" transform="translate(43.9125 31.23828125)scale(0.1 -0.1)">
       <use xlink:href="#AndaleMono-37"/>
      </g>
     </g>
    </g>
    <g id="text_20">
     <!-- 失能傷害頻率 -->
     <defs>
      <path d="
M26.9062 81.7969
C26.0938 81.7969 25.7031 81.5 25.7031 81
L25.7031 49.2969
L17.9062 49.2969
L17.9062 67.7031
C17.9062 68.7969 18.0938 69.4062 18.7031 69.5
C19.2031 69.5 19.5 70 19.5 70.7969
C19.5 71.5938 17.0938 72 12.5 72
C11.7031 72 11.2969 71.7031 11.2969 71.2031
L11.2969 49.2969
L6.20312 49.2969
C5.40625 49.2969 5 48.7969 5 47.7969
L5 44.5938
C5 43.5938 5.40625 43.0938 6.20312 43.0938
L25.7031 43.0938
L25.7031 22
C25.7031 19.5938 24 18.5 20.7031 18.5
C19.2969 18.5 18 18.7031 16.7031 19.2969
L16.7031 18.9062
C17.5 17 18 15.4062 18.0938 14
C18.0938 12.7969 18.2969 12.2031 18.7031 12.2031
L21 12.2031
C28.5938 12.2031 32.4062 14.5 32.4062 19.2969
L32.4062 43.0938
L46.7969 43.0938
C47.5938 43.0938 48 43.5938 48 44.5938
L48 47.7969
C48 48.7969 47.5938 49.2969 46.7969 49.2969
L32.4062 49.2969
L32.4062 61
L44.5 61
C45.2969 61 45.7031 61.5 45.7031 62.5938
L45.7031 65.7031
C45.7031 66.7031 45.2969 67.2969 44.5 67.2969
L32.4062 67.2969
L32.4062 77.5
C32.4062 78.5938 32.5938 79.2031 33.2031 79.2969
C33.5938 79.2969 33.9062 79.7969 33.9062 80.5938
C33.9062 81.4062 31.5 81.7969 26.9062 81.7969
M14.7969 38.7969
C14.4062 38.7969 14.0938 38.2969 13.7969 37.4062
C12.9062 34.2031 11.5938 31 9.79688 27.7969
C8.59375 25.4062 6.70312 22.5938 4.20312 19.4062
C4 19 3.90625 18.7031 3.90625 18.5
C3.90625 18.2969 4.09375 18.2031 4.59375 18
C5.70312 17.5 6.90625 17 8.20312 16.4062
C8.79688 15.9062 9.29688 15.7031 9.70312 15.7031
C10 15.7031 10.5 16.0938 11.0938 17
C13.5 20.7031 16 25.9062 18.5938 32.5938
C18.7969 33.5 19.4062 34 20.4062 34
C21 34.2031 21.4062 34.7031 21.4062 35.2969
C21.4062 35.7031 20.9062 36.2031 20.0938 36.5938
z

M42.9062 33.2969
C42 33.2969 41.5 33 41.4062 32.4062
C40.0938 28.2031 38.2969 24.4062 36 20.9062
C32.7031 15.0938 28.7969 10.5 24.2031 7
C20.5938 4 16.5938 1.5 12.0938 -0.703125
C9.40625 -2.09375 6.70312 -3.20312 4 -3.90625
C3.40625 -4.09375 3.09375 -4.29688 3.09375 -4.59375
C3.09375 -5.09375 3.29688 -5.5 3.90625 -5.79688
C4.79688 -6.59375 5.59375 -7.5 6.29688 -8.5
C6.70312 -9.29688 7.40625 -9.70312 8.20312 -9.70312
C8.79688 -9.70312 9.40625 -9.5 10.0938 -9.29688
C17.2031 -5.90625 23.2031 -2.29688 28.2031 1.59375
C31.7969 4.79688 35.2969 8.40625 38.5 12.5938
C41.7031 16.9062 44.5938 21.7031 47 27.0938
C47.5 27.7969 48.4062 28.2031 49.5938 28.2031
C50.2969 28.5938 50.7031 29.0938 50.7031 29.7969
C50.7031 30.4062 48.0938 31.5 42.9062 33.2969
M50.7031 78.2031
C50.2031 78.2031 50 77.7969 50 77.0938
L50 73.9062
C50 72.9062 50.2031 72.4062 50.7031 72.4062
L67.5938 72.4062
L63.7969 64.5938
L53.5 64.5938
C52.4062 64.5938 51.9062 64.2031 51.9062 63.4062
L51.9062 11.4062
C51.9062 10.5938 52.4062 10.2969 53.5 10.2969
L82.5938 10.2969
C82.5938 10.2031 82.4062 10 82.2031 9.79688
C80 7.29688 78.9062 6 78.9062 6
C83.9062 -0.59375 89 -5.90625 94.0938 -10
C94.2969 -10 95.2969 -8.5 97 -5.70312
C97.4062 -5.20312 97.5938 -4.79688 97.5938 -4.59375
C92.7031 -0.703125 88 4.20312 83.5 10.2969
L92.0938 10.2969
C93.0938 10.2969 93.7031 10.5938 93.7031 11.4062
L93.7031 63.4062
C93.7031 64.2031 93.0938 64.5938 92.0938 64.5938
L70.9062 64.5938
L74.5938 72.4062
L94.5 72.4062
C95 72.4062 95.2969 72.9062 95.2969 73.9062
L95.2969 77.0938
C95.2969 77.7969 95 78.2031 94.5 78.2031
z

M87.0938 16.5
L58.5 16.5
L58.5 26.2969
L87.0938 26.2969
z

M58.5 32.5
L58.5 41.9062
L87.0938 41.9062
L87.0938 32.5
z

M58.5 48.2031
L58.5 58.2969
L87.0938 58.2969
L87.0938 48.2031
z

M63.2031 9.90625
C63 9.90625 62.7969 9.70312 62.5938 9.29688
C60.5938 6.70312 58.7031 4.5 57 2.70312
C55 0.59375 52.7031 -1.20312 50 -2.90625
C48.7031 -3.79688 47.0938 -4.59375 45.2969 -5.29688
C45 -5.40625 44.9062 -5.5 44.9062 -5.70312
C44.9062 -6 45.0938 -6.29688 45.5938 -6.5
C46.4062 -7.29688 47.5 -8.20312 48.7969 -9.29688
C49 -9.70312 49.5 -10 50.2969 -10
C54.2969 -7.59375 57.7031 -5.29688 60.4062 -3.09375
C62.5938 -1 64.5938 1.20312 66.5938 3.70312
C67 4 67.5938 4.20312 68.4062 4.40625
C68.7969 4.40625 69.0938 4.5 69.0938 4.79688
C69.0938 5.09375 68.7969 5.5 68.4062 6.09375
z
" id="DFHeiStd-W5-983b"/>
      <path d="
M47.2031 81.7969
C46.2031 81.7969 45.7031 81.4062 45.7031 80.5938
L45.7031 74.2969
L7.79688 74.2969
C6.70312 74.2969 6.20312 73.7969 6.20312 72.7969
L6.20312 53.2031
C6.20312 52.4062 6.70312 52.0938 7.79688 52.0938
L11.7031 52.0938
C12.7031 52.0938 13.2031 52.4062 13.2031 53.2031
L13.2031 68.0938
L85.9062 68.0938
L85.9062 53.5938
C85.9062 52.7969 86.4062 52.5 87.5 52.5
L91.4062 52.5
C92.4062 52.5 92.9062 52.7969 92.9062 53.5938
L92.9062 73.2031
C92.9062 73.9062 92.4062 74.2969 91.4062 74.2969
L52.7031 74.2969
L52.7031 77.0938
C52.7031 78.2969 53 79 53.7031 79.0938
C54.2969 79.2031 54.5938 79.7031 54.5938 80.5938
C54.5938 81.4062 52.0938 81.7969 47.2031 81.7969
M77.7031 56.4062
L80 56
C80.5 56 80.7969 56.2031 80.7969 56.7969
C80.7969 57 79.2969 58.9062 76.4062 62.5
C76 63.0938 75.7031 63.4062 75.2969 63.4062
C75 63.4062 74.7031 63.2969 74.4062 63.2969
C70.5938 62.4062 66.5 61.5938 62 61
C58.9062 60.4062 55.7031 60 52.2969 59.5938
L52.2969 61.7969
C52.2969 63 52.5938 63.7031 53.2969 63.9062
C53.9062 63.9062 54.2031 64.4062 54.2031 65.2969
C54.2031 66.0938 51.7031 66.5 46.7969 66.5
C45.7969 66.5 45.2969 66.0938 45.2969 65.2969
L45.2969 58.9062
C44.2969 58.7031 43.2031 58.5938 42.0938 58.5938
C34.4062 57.9062 25.7969 57.2969 16.4062 56.7969
L18.2969 50.9062
C27.9062 51.2969 35.5938 51.7969 41.5 52.2969
C42.7031 52.4062 44 52.5 45.2969 52.5938
L45.2969 45.7969
L17.5 45.7969
C16.7031 45.7969 16.4062 45.2969 16.4062 44.2969
L16.4062 41.0938
C16.4062 40.0938 16.7031 39.5938 17.5 39.5938
L45.2969 39.5938
L45.2969 31.7969
L8.5 31.7969
C7.70312 31.7969 7.40625 31.2031 7.40625 30.2031
L7.40625 27.0938
C7.40625 26 7.70312 25.5 8.5 25.5
L91.4062 25.5
C92.0938 25.5 92.5 26 92.5 27.0938
L92.5 30.2031
C92.5 31.2031 92.0938 31.7969 91.4062 31.7969
L52.2969 31.7969
L52.2969 39.5938
L81.5938 39.5938
C82.4062 39.5938 82.7969 40.0938 82.7969 41.0938
L82.7969 44.2969
C82.7969 45.2969 82.4062 45.7969 81.5938 45.7969
L52.2969 45.7969
L52.2969 53.2969
C55.7031 53.5938 59.0938 53.9062 62.4062 54.2969
C67.5938 54.9062 72.4062 55.5 76.7969 56.2969
C77 56.2969 77.2969 56.4062 77.7031 56.4062
M22.5938 18.5
C21.5 18.5 21 17.9062 21 16.9062
L21 -7.70312
C21 -8.5 21.5 -8.90625 22.5938 -8.90625
L26.5 -8.90625
C27.5 -8.90625 28.0938 -8.5 28.0938 -7.70312
L28.0938 -5.40625
L73 -5.40625
L73 -7.70312
C73 -8.5 73.5 -8.90625 74.5938 -8.90625
L78.5 -8.90625
C79.5 -8.90625 80 -8.5 80 -7.70312
L80 17.2969
C80 18.0938 79.5 18.5 78.5 18.5
z

M28.0938 0.90625
L28.0938 12.2031
L73 12.2031
L73 0.90625
z
" id="DFHeiStd-W5-5bb3"/>
      <path d="
M48.4062 81.4062
C47.2969 81.4062 46.7969 81 46.7969 80.2031
L46.7969 71.5938
L9.70312 71.5938
C8.90625 71.5938 8.5 71 8.5 70
L8.5 66.9062
C8.5 65.7969 8.90625 65.2969 9.70312 65.2969
L90.2031 65.2969
C91 65.2969 91.4062 65.7969 91.4062 66.9062
L91.4062 70
C91.4062 71 91 71.5938 90.2031 71.5938
L53.9062 71.5938
L53.9062 76.7031
C53.9062 77.9062 54.2031 78.5938 54.7969 78.7031
C55.4062 78.7969 55.7969 79.2969 55.7969 80.2031
C55.7969 81 53.2969 81.4062 48.4062 81.4062
M47.5938 65
C46.5938 63.2031 45.0938 60.5 42.9062 56.9062
C41.7031 55 40.4062 53.0938 39 51.0938
C37.7031 52.0938 36.4062 53 35.0938 54
C34.7969 54 34.5 53.7969 34.2969 53.4062
C31.7031 50.7031 30.4062 49.0938 30.4062 48.5
C33.2031 47.2969 35.9062 45.9062 38.4062 44.4062
C40 43.2969 42.2969 41.5 45.4062 38.9062
C43.2031 36.5938 40.5938 34 37.5938 31
C31.7969 30.2969 28.9062 29.7969 28.9062 29.4062
C29.9062 23.0938 30.5 20 30.7969 20
C31 20 31.9062 20.9062 33.5 22.7969
L64.7969 29.2031
C64.9062 29 65 28.7031 65.2031 28.4062
C66.5938 25.4062 67.5 22.7969 67.9062 20.7969
C72.0938 21.7969 74.2031 22.5 74.2031 22.7969
C73.0938 26 71.7969 29 70.4062 31.7969
C68.7969 34.7969 66.7969 38.2031 64.4062 41.9062
C61 40.2031 59.2969 39.2031 59.2969 38.7969
C60.5 37 61.7031 35.2031 62.7031 33.4062
C56.5 32.7969 51.2031 32.4062 46.5938 32
C52.2031 37.2031 57.9062 42.7969 63.7031 49
C64.0938 49.4062 65.0938 49.5938 66.7031 49.5938
C67.5 49.5938 67.9062 49.7031 67.9062 50.0938
C67.9062 50.5 65.5 52.5938 60.9062 56.4062
C58.2031 53 54.9062 49.0938 51 44.9062
C50.2031 44.0938 49.4062 43.2031 48.5 42.2031
C46.7969 43.9062 45.0938 45.5938 43.4062 47.2031
C45.7969 50.4062 48.4062 53.9062 51.0938 57.9062
C51.5 58.5938 52.5 59 53.9062 59
C54.9062 59 55.4062 59.2969 55.4062 59.9062
C55.4062 59.9062 55.2031 60.2969 55 61
z

M14 63.4062
C13.7969 63.4062 13.5 63.0938 13.2031 62.7031
C11.0938 60.0938 10.0938 58.7031 10.0938 58.2969
C11.7031 57.5938 13.5938 56.4062 16 54.7031
C18.7969 52.5938 21.5938 50.2969 24.2031 47.7969
C24.2031 47.7969 25.2031 49.2031 27.2031 52
C27.5 52.4062 27.7031 52.7031 27.7031 52.7969
C26 54.4062 24 56.2031 21.7031 58.2031
C19.7031 59.7969 17.0938 61.5 14 63.4062
M28.0938 42.7031
C27.7969 42.7031 27.5938 42.5 27.4062 42.2969
C25.7969 40.2969 23.7969 38.2031 21.5938 36
C19 33.2969 16.2969 30.9062 13.7031 28.9062
C11.7031 27.2969 9.70312 26.0938 7.79688 25.0938
C7.5 24.9062 7.40625 24.5938 7.40625 24.2969
C7.40625 23.7969 7.59375 23.5 8 23.2969
C11.2969 19.5 13.2031 17.7031 13.5938 17.7031
C14.0938 17.7031 14.4062 18.0938 14.4062 18.9062
C14.4062 19.5938 14.5938 20.2031 15 20.7031
C17.2969 22.5 19.2969 24.2969 20.9062 25.9062
C23.7969 28.7031 26.9062 32.0938 30.2969 36.0938
C30.5938 36.2969 30.7969 36.5 30.7969 36.7969
C30.7969 37 30 38.7969 28.5938 42
C28.5 42.4062 28.2969 42.7031 28.0938 42.7031
M82.7969 63.4062
C82.4062 63.4062 82 63.0938 81.7031 62.5
C80.7969 60.4062 79.4062 58.2969 77.4062 56.2969
C76 54.7031 74.0938 52.7969 71.5 50.7031
C71.0938 50.5 71 50.2969 71 50.0938
C71 50 71.2031 49.9062 71.7969 49.7031
C73 49.0938 74.2031 48.5938 75.5938 48
C76.2031 47.5938 76.7969 47.4062 77.2969 47.4062
C77.5938 47.4062 78.0938 47.5938 78.7969 48.2031
C81.5 50.4062 84.2969 53.7031 87.0938 57.9062
C87.2969 58.4062 88 58.7031 89 58.7031
C89.7969 58.9062 90.2031 59.0938 90.2031 59.5
C90.2031 60 89.7031 60.5 88.7031 61
z

M79.2031 41.5
C75.5938 39.5938 73.7969 38.4062 73.7969 38
C77 34.4062 79.5 30.7969 81.5 27.2031
C83.2969 24 84.5 21.4062 85.0938 19.2969
C89.5 20.2969 91.7031 21 91.7031 21.2031
C90.4062 24.5938 88.7969 27.7031 87 30.7031
C85 34 82.4062 37.5938 79.2031 41.5
M6.59375 15.7031
C5.79688 15.7031 5.40625 15.2031 5.40625 14.2031
L5.40625 11
C5.40625 10 5.79688 9.5 6.59375 9.5
L46 9.5
L46 -8.09375
C46 -8.90625 46.5 -9.29688 47.5938 -9.29688
L51.5 -9.29688
C52.5 -9.29688 53.0938 -8.90625 53.0938 -8.09375
L53.0938 9.5
L93.2969 9.5
C94.0938 9.5 94.5 10 94.5 11
L94.5 14.2031
C94.5 15.2031 94.0938 15.7031 93.2969 15.7031
L53.0938 15.7031
L53.0938 18.5
C53.0938 19.7031 53.4062 20.4062 54.0938 20.5
C54.7031 20.5938 55 21.0938 55 22
C55 22.7969 52.5 23.2031 47.5938 23.2031
C46.5 23.2031 46 22.7969 46 22
L46 15.7031
z
" id="DFHeiStd-W5-7387"/>
      <path d="
M23 82.5
C22.5938 82.5 22.4062 82.2969 22.4062 82.0938
C21.5938 79.5938 20.7031 77 19.5 74.4062
C17.0938 69.4062 14.5 64.7031 11.5938 60.0938
C9 59.9062 6.5 59.7031 3.90625 59.5
C6.5 53.5 8.09375 50.5 8.90625 50.5
C9.70312 50.5 10.2031 51 10.5 52.0938
C10.7969 52.7031 11.2969 53 11.9062 53
C23.7031 54.2031 34.5 55.5938 44.2969 57.2031
C45.0938 54.2969 45.7031 51.7969 46 49.7031
C50.2031 50.7031 52.2969 51.4062 52.2969 51.7031
C51.2969 55.5938 50.2031 59.2969 49 62.9062
C47.5938 66.7031 45.9062 70.9062 43.7031 75.5
C40.2969 73.7969 38.5938 72.7969 38.5938 72.4062
C40 69.5 41.2031 66.5938 42.2969 63.7031
C34.7031 62.5 27 61.5 19.4062 60.7969
C20.4062 62 21.4062 63.4062 22.4062 65
C25.2969 69.2969 27.7031 73.2031 29.5938 76.7031
C29.5938 77.2969 30 77.5938 31 77.5938
C31.9062 77.5938 32.4062 77.9062 32.4062 78.5938
C32.4062 79.2031 29.2031 80.5 23 82.5
M12.0938 47
C11 47 10.5 46.4062 10.5 45.4062
L10.5 -7.70312
C10.5 -8.5 11 -8.90625 12.0938 -8.90625
L16 -8.90625
C17 -8.90625 17.5 -8.5 17.5 -7.70312
L17.5 8.70312
L40.5938 8.70312
L40.5938 2.09375
C40.5938 1.09375 40.0938 0.40625 39.0938 0
C38.2969 -0.40625 35.5938 -0.703125 31.2031 -0.703125
C30.5938 -0.703125 30.4062 -0.796875 30.4062 -1.09375
C31.7969 -3.79688 32.5 -5.90625 32.7031 -7.29688
C32.7969 -8.09375 33.2031 -8.5 33.9062 -8.5
C37.9062 -8.09375 41.0938 -7.59375 43.7031 -6.79688
C46.2969 -5.59375 47.5938 -4.09375 47.5938 -2.09375
L47.5938 45.4062
C47.5938 46.4062 46.9062 47 45.7031 47
z

M17.5 15
L17.5 24.7031
L40.5938 24.7031
L40.5938 15
z

M17.5 31
L17.5 40.7031
L40.5938 40.7031
L40.5938 31
z

M91 68.9062
L93.2969 68.5
C93.7969 68.5 94.0938 68.7031 94.0938 69.2969
C94.0938 69.5 92.5938 71.4062 89.7031 75
C89.2969 75.5938 89 75.9062 88.5938 75.9062
C88.4062 75.9062 88.2969 75.7969 88.2031 75.7969
C86.4062 74.2031 84.4062 72.7031 82.2031 71.5
C79.2031 69.7031 76.0938 68.2031 72.7969 67.0938
C70.2031 66.2031 67.4062 65.4062 64.4062 64.7031
L64.4062 78.2031
C64.4062 78.9062 64.7031 79.2969 65.2969 79.4062
C65.7031 79.5 66 79.9062 66 80.5938
C66 80.9062 65.5938 81.0938 64.7969 81.2969
L58.2031 82.0938
C57.5938 82.0938 57.4062 81.7031 57.4062 81
L57.4062 47.4062
C57.4062 42.5938 61.2969 40.2969 69.0938 40.2969
L85.5 40.2969
C88.7031 40.2969 90.7969 40.9062 91.7969 42.2969
C92.7969 42.9062 94.2031 46 96 51.7031
C96 52.2969 95.5 52.7031 94.7031 53.0938
C92.7969 54.2031 91.4062 55.4062 90.5938 56.7969
C89.2031 51.7969 88.0938 49 87.2031 48.4062
C86.4062 47.4062 84.2031 47 80.4062 47
L69.9062 47
C66.2031 47 64.4062 48.4062 64.4062 51.2969
L64.4062 58.2969
C68 59.0938 71.0938 60 73.5938 60.7969
C77.0938 61.9062 80.4062 63.2031 83.5938 64.7031
C86.0938 65.9062 88.4062 67.2969 90.5 68.7031
C90.5938 68.7969 90.7969 68.9062 91 68.9062
M92.0938 22
L94.5 21.5938
C95 21.5938 95.2969 21.7969 95.2969 22.4062
C95.2969 22.5938 93.7969 24.5 90.9062 28.0938
C90.5 28.7031 90.0938 29 89.7969 29
L89.2969 29
C87.5 27.4062 85.4062 25.9062 83.2031 24.7031
C80.0938 23 76.7969 21.5938 73.2969 20.5
C70.5938 19.7031 67.5938 18.9062 64.4062 18.2031
L64.4062 32.0938
C64.4062 32.7969 64.7031 33.2031 65.2969 33.2969
C65.7031 33.4062 66 33.7969 66 34.5
C66 34.7969 65.5938 35 64.7969 35.2031
L58.2031 36
C57.5938 36 57.4062 35.5938 57.4062 34.9062
L57.4062 -0.703125
C57.4062 -5.29688 61.2969 -7.70312 69.0938 -7.70312
L85.5 -7.70312
C88.7031 -7.70312 90.7969 -7 91.7969 -5.59375
C92.7969 -5 94.2031 -1.59375 96 4.40625
C96 5 95.5 5.40625 94.7031 5.79688
C92.7969 6.90625 91.4062 8.09375 90.5938 9.5
C89.2031 4.20312 88.0938 1.20312 87.2031 0.40625
C86.4062 -0.59375 84.2031 -1.09375 80.4062 -1.09375
L69.9062 -1.09375
C66.2031 -1.09375 64.4062 0.296875 64.4062 3.20312
L64.4062 11.7969
C68.2031 12.5938 71.4062 13.4062 74 14.2031
C77.7031 15.2031 81.2031 16.5 84.5 18
C87.0938 19.2031 89.4062 20.4062 91.5938 21.7969
C91.7969 21.9062 91.9062 22 92.0938 22" id="DFHeiStd-W5-80fd"/>
      <path d="
M26.0938 81.7969
C25.7031 81.7969 25.5 81.5 25.2969 81
C24 76 22.2031 71 19.9062 65.9062
C17.2969 60.0938 14.0938 54.9062 10.5 50.2031
C7.70312 46.5938 5 43.2031 2.29688 40
C2.29688 39.5 2.5 39.0938 3 38.7031
C4 37.9062 5.09375 37 6.09375 36.2031
C6.70312 35.5938 7.40625 35.2969 8.20312 35.2969
C11.7031 39.5 14.5 43.0938 16.7031 46.0938
L16.7031 -7.70312
C16.7031 -8.5 17.2031 -8.90625 18.2969 -8.90625
L22.2031 -8.90625
C23.2031 -8.90625 23.7969 -8.5 23.7969 -7.70312
L23.7969 57.4062
C26.2031 62 28.7031 67.7969 31.2031 74.7031
C31.5938 75.2969 32.2969 75.5938 33.5 75.7969
C34 75.7969 34.2969 76.0938 34.2969 76.7031
C34.2969 77.2031 31.5 78.9062 26.0938 81.7969
M44.5 82.0938
C44.2031 82.0938 44 81.9062 43.7969 81.5938
C42.9062 78.2031 42 75.4062 41 73.2031
C40 71.0938 38.9062 69.0938 37.7031 67.2969
C35.7031 64.0938 33.2969 61.5 30.7031 59.2969
C30.5 59.0938 30.4062 58.9062 30.4062 58.7031
C30.4062 58.5 30.5938 58.2969 31.0938 58.0938
C32.2969 57.7031 33.5 57.2031 34.7031 56.7031
C35.2031 56.5 35.9062 56.4062 36.7031 56.4062
C38.2969 57.7969 39.9062 59.2969 41.4062 61.0938
C42.7969 63.0938 44.2031 65.2969 45.5 67.5938
C45.7031 68 46 68.5938 46.4062 69.2969
L94.0938 69.2969
C94.5938 69.2969 94.9062 69.5938 94.9062 70.4062
L94.9062 73.5
C94.9062 74.2969 94.5938 74.7031 94.0938 74.7031
L48.7031 74.7031
C48.9062 75.2031 49.2031 75.9062 49.5 76.7031
C49.5938 77.2031 50 77.5 50.7031 77.5
C51.2031 77.5938 51.5 78 51.5 78.5938
C51.5 78.9062 51.0938 79.2969 50.5 79.7969
z

M46.4062 63
C45.4062 63 44.9062 62.5938 44.9062 61.7969
L44.9062 38
C44.9062 37.2031 45.4062 36.7969 46.4062 36.7969
L87.5 36.7969
C88.5 36.7969 89 37.2031 89 38
L89 61.7969
C89 62.5938 88.5 63 87.5 63
z

M82 41.9062
L51.9062 41.9062
L51.9062 47.4062
L82 47.4062
z

M51.9062 52.5
L51.9062 57.9062
L82 57.9062
L82 52.5
z

M34.2969 32.5
C33.7031 32.5 33.5 32.0938 33.5 31.4062
L33.5 28.2031
C33.5 27.4062 33.7031 27.0938 34.2969 27.0938
L46.7969 27.0938
C45.5938 25.2031 44.5938 23.7031 43.7969 22.7031
C41.5938 20.2969 39.5 18.2969 37.4062 16.7969
C35.2031 15.4062 32.5938 14 29.5938 12.5938
C29.5938 12.4062 29.7969 12 30.4062 11.4062
C31.5938 10.2031 32.5938 9 33.5 8
C33.9062 7.20312 34.2969 6.79688 34.7031 6.79688
C35.0938 6.79688 36.7031 7.70312 39.5 9.70312
C41.7031 11.4062 43.7969 13.2969 45.7969 15.2969
L56.2969 15.2969
C53.9062 12.2031 51.9062 9.90625 50.4062 8.5
C47.4062 5.59375 44.5938 3.29688 41.9062 1.70312
C40 0.40625 37.5938 -0.796875 34.7031 -2.20312
C34.7031 -2.40625 34.7969 -2.79688 35 -3.29688
C36.2031 -4.29688 37.2969 -5.40625 38.5 -6.70312
C38.9062 -7.09375 39.5 -7.29688 40.2031 -7.29688
C43.2969 -5.59375 46.4062 -3.59375 49.5938 -1.29688
C52.2969 0.90625 54.7969 3.29688 57.2031 5.90625
C59.2031 8.09375 61.7031 11.2969 64.5938 15.2969
L72.5 15.2969
C70.2031 11.7031 68.4062 9.09375 67.0938 7.5
C64.4062 4.29688 61.9062 1.90625 59.5 0.09375
C57.7969 -1.29688 55.7031 -2.70312 53.0938 -4.20312
C53.0938 -4.40625 53.2031 -4.70312 53.4062 -5.20312
C54.5 -6.20312 55.7031 -7.40625 56.9062 -8.59375
C57.2969 -9 57.7969 -9.29688 58.5 -9.29688
C61.2969 -7.5 64.0938 -5.29688 66.9062 -2.70312
C69.2969 -0.296875 71.5 2.20312 73.5938 5
C75.4062 7.40625 77.7031 10.9062 80.2969 15.2969
L86.9062 15.2969
C86.7031 11 86.4062 7.79688 86 5.79688
C85.5 2.79688 84.9062 0.703125 84.2031 -0.296875
C83.5938 -1.5 82.2031 -2.20312 80 -2.20312
C77.5938 -2.20312 75 -1.79688 72.2031 -1.09375
L72.2031 -1.79688
C73.4062 -4 74.0938 -5.90625 74.4062 -7.5
C74.5 -8.90625 76.4062 -9.70312 80 -9.70312
C85 -9.70312 88.0938 -8.59375 89.2969 -6.40625
C90.5 -4.40625 91.5 -1.40625 92.2031 2.70312
C92.7969 6.09375 93.0938 11.7969 93.2969 19.5938
C93.2969 20.0938 92.9062 20.4062 92.0938 20.4062
L49.7031 20.4062
C50 20.7969 50.2969 21.2031 50.5938 21.7031
C51.5938 23.0938 52.7031 24.9062 53.7031 27.0938
L94.9062 27.0938
C95.4062 27.0938 95.7031 27.4062 95.7031 28.2031
L95.7031 31.4062
C95.7031 32.0938 95.4062 32.5 94.9062 32.5
z
" id="DFHeiStd-W5-50b7"/>
      <path d="
M28.9062 81
C28.5 81 28.2031 80.7031 28.0938 80.2031
C26.9062 76.4062 25.4062 72.5 23.4062 68.5
C21.0938 63.9062 18.4062 59.7969 15.2969 56.2031
C12.9062 53.2969 10.5 50.5938 8.20312 48.2031
C8.20312 47.7031 8.40625 47.2969 8.90625 46.9062
C9.90625 46.0938 11 45.2031 12 44.4062
C12.5938 43.7969 13.2031 43.5 14 43.5
C18.5 48.4062 21.7031 52.2031 23.5938 54.7969
C24.0938 55.4062 24.7031 56.2031 25.2969 57.0938
L49.7969 57.0938
L50 44.2969
C50 40.9062 49.7969 37.9062 49.4062 35.2969
L6.59375 35.2969
C5.79688 35.2969 5.40625 34.7031 5.40625 33.7031
L5.40625 30.5938
C5.40625 29.5 5.79688 29 6.59375 29
L47.9062 29
C47.2969 25.5938 45.9062 22.4062 43.5 19.5938
C41 16 37.7031 13 33.7031 10.4062
C30.0938 7.59375 25.5938 5.20312 20.4062 3.20312
C16.2969 1.5 11 0.203125 4.5 -0.703125
C4.09375 -0.703125 3.90625 -0.90625 3.90625 -1.5
C3.90625 -1.5 4.09375 -1.70312 4.59375 -2
C5.59375 -3.40625 6.70312 -5.09375 7.70312 -7.09375
C7.90625 -7.70312 8.29688 -8.09375 8.90625 -8.09375
C10.7031 -8.09375 13.9062 -7.20312 18.7031 -5.59375
C26.2969 -2.79688 33 0.59375 38.7969 5
C43.5938 8.5 47.2031 12 49.7969 15.5938
C51.2031 17.4062 52.4062 19.5 53.5 21.7969
C54.5 19.5 55.7031 17.4062 56.9062 15.4062
C59.9062 11.0938 63.2031 7.40625 66.9062 4.20312
C71.7031 0.203125 78.0938 -3.40625 86.2031 -6.79688
C89.2969 -7.90625 91.0938 -8.5 91.7031 -8.5
C92.2969 -8.5 92.7031 -8.20312 93 -7.59375
C94 -6.40625 95 -5.09375 96.2031 -3.70312
C96.5938 -3.40625 96.7969 -2.90625 96.7969 -2.20312
C96.7969 -2 96.4062 -1.70312 95.5938 -1.5
C93.0938 -1.09375 90.5 -0.296875 87.7031 0.796875
C82 2.79688 77 5.59375 72.5938 9.20312
C68.5938 12.2031 65.2969 15.5938 62.7969 19.5
C60.9062 22.2031 59.2969 25.4062 57.9062 29
L91.7031 29
C92.5 29 92.9062 29.5 92.9062 30.5938
L92.9062 33.7031
C92.9062 34.7031 92.5 35.2969 91.7031 35.2969
L57 35.2969
C57.2031 37.7031 57.4062 40.7031 57.4062 44.2969
L57.0938 57.0938
L85.9062 57.0938
C86.7031 57.0938 87.0938 57.5938 87.0938 58.7031
L87.0938 61.7969
C87.0938 62.7969 86.7031 63.4062 85.9062 63.4062
L56.9062 63.4062
L56.5938 76.2969
C56.5938 77.2969 57 78 57.9062 78.4062
C58.5 78.5938 58.9062 79.0938 58.9062 79.7969
C58.9062 80.2031 58.2969 80.5 57.2969 80.7969
L50 81.4062
C49.4062 81.4062 49.2031 81 49.2031 80.2031
C49.4062 78.7969 49.5938 76.5 49.5938 73.5
L49.7031 63.4062
L29.0938 63.4062
C30.7031 66.4062 32.2969 69.9062 33.9062 73.9062
C34.2969 74.5 35.0938 74.9062 36.2969 75
C36.7969 75 37.0938 75.2969 37.0938 75.9062
C37.0938 76.4062 34.2969 78.0938 28.9062 81" id="DFHeiStd-W5-5931"/>
     </defs>
     <g style="fill:#555555;" transform="translate(31.4578125 169.9296875)rotate(-90.0)scale(0.1 -0.1)">
      <use xlink:href="#DFHeiStd-W5-5931"/>
      <use x="99.99998474121094" xlink:href="#DFHeiStd-W5-80fd"/>
      <use x="199.99996948242188" xlink:href="#DFHeiStd-W5-50b7"/>
      <use x="299.9999542236328" xlink:href="#DFHeiStd-W5-5bb3"/>
      <use x="399.99993896484375" xlink:href="#DFHeiStd-W5-983b"/>
      <use x="499.9999237060547" xlink:href="#DFHeiStd-W5-7387"/>
     </g>
    </g>
   </g>
   <g id="PathCollection_1">
    <defs>
     <path d="
M0 2.23607
C0.593012 2.23607 1.16182 2.00046 1.58114 1.58114
C2.00046 1.16182 2.23607 0.593012 2.23607 0
C2.23607 -0.593012 2.00046 -1.16182 1.58114 -1.58114
C1.16182 -2.00046 0.593012 -2.23607 0 -2.23607
C-0.593012 -2.23607 -1.16182 -2.00046 -1.58114 -1.58114
C-2.00046 -1.16182 -2.23607 -0.593012 -2.23607 0
C-2.23607 0.593012 -2.00046 1.16182 -1.58114 1.58114
C-1.16182 2.00046 -0.593012 2.23607 0 2.23607
z
" id="C0_0_919e3f95db"/>
    </defs>
    <g clip-path="url(#p124b8dd147)">
     <use style="fill:#0000ff;stroke:#eeeeee;stroke-width:0.5;" x="215.627586207" xlink:href="#C0_0_919e3f95db" y="146.233812624"/>
    </g>
    <g clip-path="url(#p124b8dd147)">
     <use style="fill:#0000ff;stroke:#eeeeee;stroke-width:0.5;" x="192.667164179" xlink:href="#C0_0_919e3f95db" y="191.037643685"/>
    </g>
    <g clip-path="url(#p124b8dd147)">
     <use style="fill:#0000ff;stroke:#eeeeee;stroke-width:0.5;" x="244.565261959" xlink:href="#C0_0_919e3f95db" y="132.069147624"/>
    </g>
    <g clip-path="url(#p124b8dd147)">
     <use style="fill:#0000ff;stroke:#eeeeee;stroke-width:0.5;" x="222.663396226" xlink:href="#C0_0_919e3f95db" y="183.786175225"/>
    </g>
    <g clip-path="url(#p124b8dd147)">
     <use style="fill:#0000ff;stroke:#eeeeee;stroke-width:0.5;" x="167.592857143" xlink:href="#C0_0_919e3f95db" y="161.289238693"/>
    </g>
    <g clip-path="url(#p124b8dd147)">
     <use style="fill:#0000ff;stroke:#eeeeee;stroke-width:0.5;" x="285.761371841" xlink:href="#C0_0_919e3f95db" y="169.575998178"/>
    </g>
    <g clip-path="url(#p124b8dd147)">
     <use style="fill:#0000ff;stroke:#eeeeee;stroke-width:0.5;" x="293.142857143" xlink:href="#C0_0_919e3f95db" y="194.280956459"/>
    </g>
    <g clip-path="url(#p124b8dd147)">
     <use style="fill:#0000ff;stroke:#eeeeee;stroke-width:0.5;" x="204.66" xlink:href="#C0_0_919e3f95db" y="154.93587355"/>
    </g>
    <g clip-path="url(#p124b8dd147)">
     <use style="fill:#0000ff;stroke:#eeeeee;stroke-width:0.5;" x="306.096428571" xlink:href="#C0_0_919e3f95db" y="62.7083164922"/>
    </g>
    <g clip-path="url(#p124b8dd147)">
     <use style="fill:#0000ff;stroke:#eeeeee;stroke-width:0.5;" x="263.342793792" xlink:href="#C0_0_919e3f95db" y="120.984490409"/>
    </g>
    <g clip-path="url(#p124b8dd147)">
     <use style="fill:#0000ff;stroke:#eeeeee;stroke-width:0.5;" x="185.3625" xlink:href="#C0_0_919e3f95db" y="152.592263214"/>
    </g>
    <g clip-path="url(#p124b8dd147)">
     <use style="fill:#0000ff;stroke:#eeeeee;stroke-width:0.5;" x="145.382608696" xlink:href="#C0_0_919e3f95db" y="219.313904174"/>
    </g>
    <g clip-path="url(#p124b8dd147)">
     <use style="fill:#0000ff;stroke:#eeeeee;stroke-width:0.5;" x="151.2087153" xlink:href="#C0_0_919e3f95db" y="185.296344708"/>
    </g>
    <g clip-path="url(#p124b8dd147)">
     <use style="fill:#0000ff;stroke:#eeeeee;stroke-width:0.5;" x="207.186792453" xlink:href="#C0_0_919e3f95db" y="162.493401638"/>
    </g>
    <g clip-path="url(#p124b8dd147)">
     <use style="fill:#0000ff;stroke:#eeeeee;stroke-width:0.5;" x="248.80619469" xlink:href="#C0_0_919e3f95db" y="170.191946561"/>
    </g>
    <g clip-path="url(#p124b8dd147)">
     <use style="fill:#0000ff;stroke:#eeeeee;stroke-width:0.5;" x="336.384590164" xlink:href="#C0_0_919e3f95db" y="126.283247447"/>
    </g>
    <g clip-path="url(#p124b8dd147)">
     <use style="fill:#0000ff;stroke:#eeeeee;stroke-width:0.5;" x="248.657565789" xlink:href="#C0_0_919e3f95db" y="155.873897526"/>
    </g>
    <g clip-path="url(#p124b8dd147)">
     <use style="fill:#0000ff;stroke:#eeeeee;stroke-width:0.5;" x="257.505882353" xlink:href="#C0_0_919e3f95db" y="122.763804763"/>
    </g>
    <g clip-path="url(#p124b8dd147)">
     <use style="fill:#0000ff;stroke:#eeeeee;stroke-width:0.5;" x="203.878027682" xlink:href="#C0_0_919e3f95db" y="130.818997518"/>
    </g>
    <g clip-path="url(#p124b8dd147)">
     <use style="fill:#0000ff;stroke:#eeeeee;stroke-width:0.5;" x="260.843901852" xlink:href="#C0_0_919e3f95db" y="114.168696505"/>
    </g>
    <g clip-path="url(#p124b8dd147)">
     <use style="fill:#0000ff;stroke:#eeeeee;stroke-width:0.5;" x="194.679369085" xlink:href="#C0_0_919e3f95db" y="195.832539957"/>
    </g>
    <g clip-path="url(#p124b8dd147)">
     <use style="fill:#0000ff;stroke:#eeeeee;stroke-width:0.5;" x="205.652319588" xlink:href="#C0_0_919e3f95db" y="202.034934605"/>
    </g>
    <g clip-path="url(#p124b8dd147)">
     <use style="fill:#0000ff;stroke:#eeeeee;stroke-width:0.5;" x="196.612576065" xlink:href="#C0_0_919e3f95db" y="174.840722181"/>
    </g>
    <g clip-path="url(#p124b8dd147)">
     <use style="fill:#0000ff;stroke:#eeeeee;stroke-width:0.5;" x="248.074137931" xlink:href="#C0_0_919e3f95db" y="150.459385924"/>
    </g>
    <g clip-path="url(#p124b8dd147)">
     <use style="fill:#0000ff;stroke:#eeeeee;stroke-width:0.5;" x="242.695353982" xlink:href="#C0_0_919e3f95db" y="159.206803082"/>
    </g>
    <g clip-path="url(#p124b8dd147)">
     <use style="fill:#0000ff;stroke:#eeeeee;stroke-width:0.5;" x="270.499126638" xlink:href="#C0_0_919e3f95db" y="157.51418012"/>
    </g>
    <g clip-path="url(#p124b8dd147)">
     <use style="fill:#0000ff;stroke:#eeeeee;stroke-width:0.5;" x="266.97" xlink:href="#C0_0_919e3f95db" y="115.882211701"/>
    </g>
    <g clip-path="url(#p124b8dd147)">
     <use style="fill:#0000ff;stroke:#eeeeee;stroke-width:0.5;" x="216.153134328" xlink:href="#C0_0_919e3f95db" y="168.397924249"/>
    </g>
    <g clip-path="url(#p124b8dd147)">
     <use style="fill:#0000ff;stroke:#eeeeee;stroke-width:0.5;" x="175.279591837" xlink:href="#C0_0_919e3f95db" y="156.88599725"/>
    </g>
    <g clip-path="url(#p124b8dd147)">
     <use style="fill:#0000ff;stroke:#eeeeee;stroke-width:0.5;" x="170.945327103" xlink:href="#C0_0_919e3f95db" y="208.702835948"/>
    </g>
    <g clip-path="url(#p124b8dd147)">
     <use style="fill:#0000ff;stroke:#eeeeee;stroke-width:0.5;" x="186.540534521" xlink:href="#C0_0_919e3f95db" y="89.2028285624"/>
    </g>
    <g clip-path="url(#p124b8dd147)">
     <use style="fill:#0000ff;stroke:#eeeeee;stroke-width:0.5;" x="157.143630613" xlink:href="#C0_0_919e3f95db" y="169.308710498"/>
    </g>
    <g clip-path="url(#p124b8dd147)">
     <use style="fill:#0000ff;stroke:#eeeeee;stroke-width:0.5;" x="195.904457652" xlink:href="#C0_0_919e3f95db" y="185.452802192"/>
    </g>
    <g clip-path="url(#p124b8dd147)">
     <use style="fill:#0000ff;stroke:#eeeeee;stroke-width:0.5;" x="146.546714129" xlink:href="#C0_0_919e3f95db" y="167.942314856"/>
    </g>
    <g clip-path="url(#p124b8dd147)">
     <use style="fill:#0000ff;stroke:#eeeeee;stroke-width:0.5;" x="135.830504148" xlink:href="#C0_0_919e3f95db" y="134.594771394"/>
    </g>
    <g clip-path="url(#p124b8dd147)">
     <use style="fill:#0000ff;stroke:#eeeeee;stroke-width:0.5;" x="168.08" xlink:href="#C0_0_919e3f95db" y="206.210056296"/>
    </g>
    <g clip-path="url(#p124b8dd147)">
     <use style="fill:#0000ff;stroke:#eeeeee;stroke-width:0.5;" x="95.85" xlink:href="#C0_0_919e3f95db" y="211.740132773"/>
    </g>
    <g clip-path="url(#p124b8dd147)">
     <use style="fill:#0000ff;stroke:#eeeeee;stroke-width:0.5;" x="143.198540146" xlink:href="#C0_0_919e3f95db" y="168.255042575"/>
    </g>
    <g clip-path="url(#p124b8dd147)">
     <use style="fill:#0000ff;stroke:#eeeeee;stroke-width:0.5;" x="162.258131868" xlink:href="#C0_0_919e3f95db" y="210.961513032"/>
    </g>
    <g clip-path="url(#p124b8dd147)">
     <use style="fill:#0000ff;stroke:#eeeeee;stroke-width:0.5;" x="93.6876391097" xlink:href="#C0_0_919e3f95db" y="193.079773335"/>
    </g>
    <g clip-path="url(#p124b8dd147)">
     <use style="fill:#0000ff;stroke:#eeeeee;stroke-width:0.5;" x="135.808474576" xlink:href="#C0_0_919e3f95db" y="104.956617669"/>
    </g>
    <g clip-path="url(#p124b8dd147)">
     <use style="fill:#0000ff;stroke:#eeeeee;stroke-width:0.5;" x="287.979545455" xlink:href="#C0_0_919e3f95db" y="222.232940149"/>
    </g>
    <g clip-path="url(#p124b8dd147)">
     <use style="fill:#0000ff;stroke:#eeeeee;stroke-width:0.5;" x="149.308029197" xlink:href="#C0_0_919e3f95db" y="193.198191673"/>
    </g>
    <g clip-path="url(#p124b8dd147)">
     <use style="fill:#0000ff;stroke:#eeeeee;stroke-width:0.5;" x="79.3491428571" xlink:href="#C0_0_919e3f95db" y="87.1285942774"/>
    </g>
    <g clip-path="url(#p124b8dd147)">
     <use style="fill:#0000ff;stroke:#eeeeee;stroke-width:0.5;" x="113.164241164" xlink:href="#C0_0_919e3f95db" y="197.78624235"/>
    </g>
   </g>
   <g id="patch_3">
    <path d="
M388.8 252
L388.8 28.8" style="fill:none;stroke:#bcbcbc;"/>
   </g>
   <g id="patch_4">
    <path d="
M54 252
L54 28.8" style="fill:none;stroke:#bcbcbc;"/>
   </g>
   <g id="patch_5">
    <path d="
M54 28.8
L388.8 28.8" style="fill:none;stroke:#bcbcbc;"/>
   </g>
   <g id="patch_6">
    <path d="
M54 252
L388.8 252" style="fill:none;stroke:#bcbcbc;"/>
   </g>
  </g>
 </g>
 <defs>
  <clipPath id="p124b8dd147">
   <rect height="223.2" width="334.8" x="54.0" y="28.8"/>
  </clipPath>
 </defs>
</svg>
